original-source.ufo
<glyph name="i_custom_folder_npm" format="2">
  <advance width="1200"/>
  <unicode hex="E5FA"/>
  <note>
i_custom_folder_npm
</note>
  <outline>
    <contour>
      <point x="73" y="499" type="line"/>
      <point x="73" y="850" type="line"/>
      <point x="1116" y="850" type="line"/>
      <point x="1116" y="499" type="line"/>
      <point x="595" y="499" type="line"/>
      <point x="595" y="441" type="line"/>
      <point x="361" y="441" type="line"/>
      <point x="361" y="499" type="line"/>
    </contour>
    <contour>
      <point x="303" y="558" type="line"/>
      <point x="361" y="558" type="line"/>
      <point x="361" y="792" type="line"/>
      <point x="131" y="792" type="line"/>
      <point x="131" y="558" type="line"/>
      <point x="248" y="558" type="line"/>
      <point x="248" y="730" type="line"/>
      <point x="303" y="730" type="line"/>
    </contour>
    <contour>
      <point x="539" y="558" type="line"/>
      <point x="654" y="558" type="line"/>
      <point x="654" y="792" type="line"/>
      <point x="422" y="792" type="line"/>
      <point x="422" y="499" type="line"/>
      <point x="539" y="499" type="line"/>
    </contour>
    <contour>
      <point x="1003" y="558" type="line"/>
      <point x="1061" y="558" type="line"/>
      <point x="1061" y="792" type="line"/>
      <point x="710" y="792" type="line"/>
      <point x="710" y="558" type="line"/>
      <point x="827" y="558" type="line"/>
      <point x="827" y="730" type="line"/>
      <point x="886" y="730" type="line"/>
      <point x="886" y="558" type="line"/>
      <point x="944" y="558" type="line"/>
      <point x="944" y="730" type="line"/>
      <point x="1003" y="730" type="line"/>
    </contour>
    <contour>
      <point x="539" y="730" type="line"/>
      <point x="595" y="730" type="line"/>
      <point x="595" y="620" type="line"/>
      <point x="539" y="620" type="line"/>
    </contour>
    <contour>
      <point x="527" y="1182" type="curve"/>
      <point x="20" y="1182" type="line"/>
      <point x="20" y="238" type="line"/>
      <point x="1180" y="238" type="line"/>
      <point x="1180" y="1036" type="line"/>
      <point x="673" y="1036" type="line"/>
      <point x="624" y="1084"/>
      <point x="576" y="1133"/>
    </contour>
  </outline>
</glyph>
<glyph name="i_custom_folder_git" format="2">
  <advance width="1200"/>
  <unicode hex="E5FB"/>
  <note>
i_custom_folder_git
</note>
  <outline>
    <contour>
      <point x="528" y="1182" type="curve"/>
      <point x="20" y="1182" type="line"/>
      <point x="20" y="238" type="line"/>
      <point x="1180" y="238" type="line"/>
      <point x="1180" y="1037" type="line"/>
      <point x="673" y="1037" type="line"/>
      <point x="625" y="1085"/>
      <point x="577" y="1133"/>
    </contour>
    <contour>
      <point x="592" y="971" type="line"/>
      <point x="627" y="969"/>
      <point x="645" y="933"/>
      <point x="670" y="913" type="curve"/>
      <point x="750" y="833"/>
      <point x="829" y="754"/>
      <point x="908" y="674" type="curve" smooth="yes"/>
      <point x="937" y="645"/>
      <point x="910" y="611"/>
      <point x="885" y="591" type="curve"/>
      <point x="796" y="503"/>
      <point x="707" y="414"/>
      <point x="617" y="327" type="curve"/>
      <point x="586" y="303"/>
      <point x="562" y="338"/>
      <point x="541" y="358" type="curve" smooth="yes"/>
      <point x="453" y="446"/>
      <point x="365" y="535"/>
      <point x="276" y="623" type="curve"/>
      <point x="252" y="654"/>
      <point x="287" y="679"/>
      <point x="307" y="700" type="curve" smooth="yes"/>
      <point x="363" y="757"/>
      <point x="419" y="814"/>
      <point x="475" y="871" type="curve"/>
      <point x="500" y="846"/>
      <point x="525" y="822"/>
      <point x="549" y="797" type="curve"/>
      <point x="527" y="760"/>
      <point x="576" y="743"/>
      <point x="577" y="716" type="curve" smooth="yes"/>
      <point x="577" y="552" type="line"/>
      <point x="497" y="519"/>
      <point x="592" y="405"/>
      <point x="638" y="479" type="curve"/>
      <point x="670" y="522"/>
      <point x="607" y="540"/>
      <point x="618" y="580" type="curve"/>
      <point x="618" y="728" type="line"/>
      <point x="641" y="705"/>
      <point x="663" y="683"/>
      <point x="686" y="661" type="curve"/>
      <point x="656" y="596"/>
      <point x="769" y="561"/>
      <point x="781" y="632" type="curve" smooth="yes"/>
      <point x="795" y="691"/>
      <point x="729" y="682"/>
      <point x="702" y="701" type="curve"/>
      <point x="682" y="721"/>
      <point x="662" y="741"/>
      <point x="643" y="761" type="curve"/>
      <point x="662" y="809"/>
      <point x="607" y="828"/>
      <point x="574" y="831" type="curve"/>
      <point x="551" y="854"/>
      <point x="528" y="877"/>
      <point x="504" y="901" type="curve"/>
      <point x="529" y="923"/>
      <point x="549" y="950"/>
      <point x="577" y="968" type="curve"/>
      <point x="584" y="971" type="line"/>
    </contour>
  </outline>
</glyph>
<glyph name="i_custom_folder_config" format="2">
  <advance width="1200"/>
  <unicode hex="E5FC"/>
  <note>
i_custom_folder_config
</note>
  <outline>
    <contour>
      <point x="898" y="580" type="curve" smooth="yes"/>
      <point x="898" y="580" type="line" smooth="yes"/>
      <point x="947" y="563"/>
      <point x="889" y="503"/>
      <point x="887" y="471" type="curve"/>
      <point x="861" y="429"/>
      <point x="816" y="500"/>
      <point x="795" y="457" type="curve"/>
      <point x="782" y="440"/>
      <point x="750" y="425"/>
      <point x="772" y="401" type="curve"/>
      <point x="807" y="354"/>
      <point x="749" y="336"/>
      <point x="714" y="321" type="curve"/>
      <point x="676" y="290"/>
      <point x="654" y="335"/>
      <point x="646" y="367" type="curve"/>
      <point x="627" y="369"/>
      <point x="607" y="367"/>
      <point x="588" y="368" type="curve"/>
      <point x="553" y="376"/>
      <point x="567" y="320"/>
      <point x="540" y="310" type="curve"/>
      <point x="503" y="313"/>
      <point x="411" y="330"/>
      <point x="438" y="383" type="curve"/>
      <point x="464" y="416"/>
      <point x="422" y="430"/>
      <point x="407" y="457" type="curve"/>
      <point x="388" y="475"/>
      <point x="364" y="444"/>
      <point x="343" y="443" type="curve"/>
      <point x="311" y="461"/>
      <point x="274" y="526"/>
      <point x="295" y="561" type="curve"/>
      <point x="319" y="574"/>
      <point x="356" y="576"/>
      <point x="341" y="612" type="curve"/>
      <point x="349" y="650"/>
      <point x="327" y="669"/>
      <point x="291" y="677" type="curve"/>
      <point x="272" y="715"/>
      <point x="301" y="777"/>
      <point x="335" y="795" type="curve"/>
      <point x="368" y="775"/>
      <point x="396" y="774"/>
      <point x="416" y="809" type="curve"/>
      <point x="446" y="823"/>
      <point x="437" y="847"/>
      <point x="422" y="870" type="curve"/>
      <point x="407" y="918"/>
      <point x="490" y="932"/>
      <point x="523" y="938" type="curve"/>
      <point x="549" y="932"/>
      <point x="540" y="882"/>
      <point x="568" y="884" type="curve" smooth="yes"/>
      <point x="589" y="887"/>
      <point x="620" y="876"/>
      <point x="633" y="896" type="curve"/>
      <point x="641" y="966"/>
      <point x="709" y="939"/>
      <point x="751" y="915" type="curve"/>
      <point x="798" y="901"/>
      <point x="741" y="852"/>
      <point x="759" y="834" type="curve"/>
      <point x="779" y="821"/>
      <point x="787" y="795"/>
      <point x="809" y="789" type="curve"/>
      <point x="837" y="806"/>
      <point x="882" y="822"/>
      <point x="889" y="774" type="curve"/>
      <point x="911" y="740"/>
      <point x="932" y="686"/>
      <point x="873" y="677" type="curve"/>
      <point x="851" y="675"/>
      <point x="858" y="653"/>
      <point x="857" y="637" type="curve"/>
      <point x="851" y="603"/>
      <point x="866" y="586"/>
    </contour>
    <contour>
      <point x="652" y="509" type="curve" smooth="yes"/>
      <point x="671" y="518"/>
      <point x="689" y="531"/>
      <point x="701" y="548" type="curve"/>
      <point x="760" y="616"/>
      <point x="716" y="735"/>
      <point x="629" y="753" type="curve"/>
      <point x="545" y="777"/>
      <point x="459" y="695"/>
      <point x="471" y="611" type="curve"/>
      <point x="476" y="528"/>
      <point x="578" y="469"/>
    </contour>
    <contour>
      <point x="673" y="1037" type="line"/>
      <point x="528" y="1182" type="line"/>
      <point x="20" y="1182" type="line"/>
      <point x="20" y="238" type="line"/>
      <point x="1180" y="238" type="line"/>
      <point x="1180" y="1037" type="line"/>
    </contour>
  </outline>
</glyph>
<glyph name="i_custom_folder_github" format="2">
  <advance width="1200"/>
  <unicode hex="E5FD"/>
  <note>
i_custom_folder_github
</note>
  <outline>
    <contour>
      <point x="528" y="1182" type="curve"/>
      <point x="20" y="1182" type="line"/>
      <point x="20" y="238" type="line"/>
      <point x="1180" y="238" type="line"/>
      <point x="1180" y="1037" type="line"/>
      <point x="673" y="1037" type="line"/>
      <point x="625" y="1085"/>
      <point x="577" y="1133"/>
    </contour>
    <contour>
      <point x="338" y="944" type="curve" smooth="yes"/>
      <point x="338" y="944" type="line" smooth="yes"/>
      <point x="401" y="935"/>
      <point x="457" y="901"/>
      <point x="509" y="865" type="curve"/>
      <point x="571" y="877"/>
      <point x="637" y="878"/>
      <point x="699" y="865" type="curve"/>
      <point x="752" y="898"/>
      <point x="807" y="932"/>
      <point x="870" y="944" type="curve"/>
      <point x="893" y="894"/>
      <point x="898" y="838"/>
      <point x="897" y="783" type="curve"/>
      <point x="923" y="738"/>
      <point x="956" y="678"/>
      <point x="948" y="618" type="curve"/>
      <point x="950" y="543"/>
      <point x="924" y="465"/>
      <point x="865" y="416" type="curve" smooth="yes"/>
      <point x="829" y="384"/>
      <point x="782" y="369"/>
      <point x="735" y="363" type="curve" smooth="yes"/>
      <point x="692" y="357"/>
      <point x="648" y="357"/>
      <point x="604" y="355" type="curve"/>
      <point x="560" y="357"/>
      <point x="517" y="357"/>
      <point x="474" y="363" type="curve" smooth="yes"/>
      <point x="409" y="366"/>
      <point x="348" y="401"/>
      <point x="308" y="453" type="curve" smooth="yes"/>
      <point x="275" y="495"/>
      <point x="263" y="552"/>
      <point x="260" y="605" type="curve" smooth="yes"/>
      <point x="255" y="667"/>
      <point x="269" y="733"/>
      <point x="315" y="779" type="curve"/>
      <point x="308" y="824"/>
      <point x="316" y="874"/>
      <point x="330" y="918" type="curve" smooth="yes"/>
      <point x="332" y="927"/>
      <point x="335" y="935"/>
    </contour>
    <contour>
      <point x="480" y="662" type="curve" smooth="yes"/>
      <point x="480" y="662" type="line" smooth="yes"/>
      <point x="434" y="661"/>
      <point x="384" y="645"/>
      <point x="363" y="601" type="curve" smooth="yes"/>
      <point x="337" y="540"/>
      <point x="350" y="450"/>
      <point x="415" y="421" type="curve" smooth="yes"/>
      <point x="508" y="383"/>
      <point x="612" y="388"/>
      <point x="709" y="397" type="curve" smooth="yes"/>
      <point x="770" y="404"/>
      <point x="845" y="432"/>
      <point x="855" y="501" type="curve"/>
      <point x="873" y="565"/>
      <point x="839" y="647"/>
      <point x="769" y="658" type="curve" smooth="yes"/>
      <point x="708" y="668"/>
      <point x="648" y="651"/>
      <point x="587" y="655" type="curve" smooth="yes"/>
      <point x="551" y="655"/>
      <point x="516" y="660"/>
    </contour>
    <contour>
      <point x="485" y="603" type="curve"/>
      <point x="534" y="594"/>
      <point x="548" y="521"/>
      <point x="518" y="486" type="curve"/>
      <point x="475" y="428"/>
      <point x="417" y="512"/>
      <point x="439" y="560" type="curve" smooth="yes"/>
      <point x="446" y="580"/>
      <point x="461" y="603"/>
    </contour>
    <contour>
      <point x="726" y="603" type="curve"/>
      <point x="777" y="594"/>
      <point x="784" y="522"/>
      <point x="758" y="486" type="curve" smooth="yes"/>
      <point x="719" y="429"/>
      <point x="658" y="507"/>
      <point x="678" y="554" type="curve"/>
      <point x="683" y="577"/>
      <point x="699" y="603"/>
    </contour>
  </outline>
</glyph>
<glyph name="i_custom_folder_open" format="2">
  <advance width="1200"/>
  <unicode hex="E5FE"/>
  <note>
i_custom_folder_open
</note>
  <outline>
    <contour>
      <point x="20" y="238" type="line"/>
      <point x="963" y="238" type="line"/>
      <point x="1180" y="818" type="line"/>
      <point x="238" y="818" type="line"/>
    </contour>
    <contour>
      <point x="20" y="238" type="line"/>
      <point x="165" y="892" type="line"/>
      <point x="963" y="892" type="line"/>
      <point x="963" y="1037" type="line"/>
      <point x="492" y="1037" type="line"/>
      <point x="347" y="1182" type="line"/>
      <point x="20" y="1182" type="line"/>
    </contour>
  </outline>
</glyph>
<glyph name="i_custom_folder" format="2">
  <advance width="1200"/>
  <unicode hex="E5FF"/>
  <note>
i_custom_folder
</note>
  <outline>
    <contour>
      <point x="673" y="1037" type="line"/>
      <point x="528" y="1182" type="line"/>
      <point x="20" y="1182" type="line"/>
      <point x="20" y="238" type="line"/>
      <point x="1180" y="238" type="line"/>
      <point x="1180" y="1037" type="line"/>
    </contour>
  </outline>
</glyph>
<glyph name="i_seti_stylus" format="2">
  <advance width="1200"/>
  <unicode hex="E600"/>
  <note>
i_seti_stylus
</note>
  <outline>
    <contour>
      <point x="1103" y="1419" type="curve" smooth="yes"/>
      <point x="1103" y="1419" type="line" smooth="yes"/>
      <point x="1092" y="1419"/>
      <point x="1075" y="1414"/>
      <point x="1064" y="1408" type="curve"/>
      <point x="1014" y="1392"/>
      <point x="981" y="1353"/>
      <point x="948" y="1314" type="curve" smooth="yes"/>
      <point x="881" y="1242"/>
      <point x="826" y="1159"/>
      <point x="781" y="1070" type="curve"/>
      <point x="720" y="965"/>
      <point x="676" y="854"/>
      <point x="643" y="737" type="curve" smooth="yes"/>
      <point x="632" y="693"/>
      <point x="620" y="643"/>
      <point x="620" y="593" type="curve" smooth="yes"/>
      <point x="620" y="566"/>
      <point x="643" y="549"/>
      <point x="665" y="554" type="curve"/>
      <point x="715" y="560"/>
      <point x="742" y="599"/>
      <point x="770" y="632" type="curve"/>
      <point x="770" y="649" type="line"/>
      <point x="753" y="632"/>
      <point x="737" y="615"/>
      <point x="720" y="604" type="curve" smooth="yes"/>
      <point x="704" y="593"/>
      <point x="693" y="599"/>
      <point x="693" y="615" type="curve" smooth="yes"/>
      <point x="693" y="671" type="line" smooth="yes"/>
      <point x="693" y="737"/>
      <point x="709" y="804"/>
      <point x="731" y="865" type="curve" smooth="yes"/>
      <point x="753" y="926"/>
      <point x="776" y="987"/>
      <point x="803" y="1042" type="curve" smooth="yes"/>
      <point x="842" y="1125"/>
      <point x="892" y="1209"/>
      <point x="959" y="1275" type="curve"/>
      <point x="986" y="1320"/>
      <point x="1025" y="1347"/>
      <point x="1081" y="1353" type="curve"/>
      <point x="1108" y="1353"/>
      <point x="1125" y="1347"/>
      <point x="1130" y="1325" type="curve"/>
      <point x="1130" y="1320"/>
      <point x="1136" y="1320"/>
      <point x="1136" y="1320" type="curve"/>
      <point x="1136" y="1320"/>
      <point x="1142" y="1325"/>
      <point x="1147" y="1325" type="curve"/>
      <point x="1153" y="1342"/>
      <point x="1158" y="1358"/>
      <point x="1158" y="1375" type="curve" smooth="yes"/>
      <point x="1158" y="1397"/>
      <point x="1130" y="1425"/>
    </contour>
    <contour>
      <point x="548" y="859" type="curve" smooth="yes"/>
      <point x="548" y="859" type="line" smooth="yes"/>
      <point x="510" y="859"/>
      <point x="449" y="815"/>
      <point x="432" y="782" type="curve"/>
      <point x="432" y="771" type="line"/>
      <point x="437" y="771"/>
      <point x="437" y="771"/>
      <point x="443" y="776" type="curve" smooth="yes"/>
      <point x="449" y="782"/>
      <point x="454" y="793"/>
      <point x="465" y="798" type="curve"/>
      <point x="476" y="809"/>
      <point x="487" y="821"/>
      <point x="504" y="815" type="curve" smooth="yes"/>
      <point x="521" y="809"/>
      <point x="521" y="787"/>
      <point x="515" y="776" type="curve"/>
      <point x="510" y="710"/>
      <point x="498" y="654"/>
      <point x="487" y="593" type="curve"/>
      <point x="465" y="510"/>
      <point x="437" y="427"/>
      <point x="399" y="355" type="curve" smooth="yes"/>
      <point x="354" y="266"/>
      <point x="304" y="188"/>
      <point x="232" y="122" type="curve" smooth="yes"/>
      <point x="199" y="94"/>
      <point x="160" y="67"/>
      <point x="116" y="67" type="curve" smooth="yes"/>
      <point x="88" y="67"/>
      <point x="77" y="72"/>
      <point x="72" y="100" type="curve"/>
      <point x="72" y="105"/>
      <point x="66" y="105"/>
      <point x="60" y="111" type="curve"/>
      <point x="44" y="89"/>
      <point x="38" y="67"/>
      <point x="44" y="39" type="curve" smooth="yes"/>
      <point x="49" y="17"/>
      <point x="60" y="0"/>
      <point x="77" y="0" type="curve" smooth="yes"/>
      <point x="99" y="0"/>
      <point x="121" y="6"/>
      <point x="138" y="11" type="curve" smooth="yes"/>
      <point x="177" y="22"/>
      <point x="205" y="55"/>
      <point x="232" y="83" type="curve" smooth="yes"/>
      <point x="299" y="150"/>
      <point x="354" y="227"/>
      <point x="399" y="310" type="curve" smooth="yes"/>
      <point x="471" y="432"/>
      <point x="526" y="560"/>
      <point x="565" y="699" type="curve" smooth="yes"/>
      <point x="576" y="743"/>
      <point x="587" y="782"/>
      <point x="582" y="826" type="curve"/>
      <point x="582" y="843"/>
      <point x="565" y="859"/>
    </contour>
  </outline>
</glyph>
<glyph name="i_seti_project" format="2">
  <advance width="1200"/>
  <unicode hex="E601"/>
  <note>
i_seti_project
</note>
  <outline>
    <contour>
      <point x="600" y="259" type="line"/>
      <point x="130" y="259" type="line"/>
      <point x="130" y="136" type="line"/>
      <point x="600" y="136" type="line"/>
    </contour>
    <contour>
      <point x="1096" y="749" type="line"/>
      <point x="684" y="749" type="line"/>
      <point x="684" y="626" type="line"/>
      <point x="1096" y="626" type="line"/>
    </contour>
    <contour>
      <point x="445" y="1284" type="line"/>
      <point x="20" y="1284" type="line"/>
      <point x="20" y="1161" type="line"/>
      <point x="445" y="1161" type="line"/>
    </contour>
    <contour>
      <point x="594" y="749" type="line"/>
      <point x="271" y="749" type="line"/>
      <point x="271" y="626" type="line"/>
      <point x="594" y="626" type="line"/>
    </contour>
    <contour>
      <point x="671" y="497" type="line"/>
      <point x="271" y="497" type="line"/>
      <point x="271" y="375" type="line"/>
      <point x="671" y="375" type="line"/>
    </contour>
    <contour>
      <point x="1180" y="497" type="line"/>
      <point x="974" y="497" type="line"/>
      <point x="974" y="375" type="line"/>
      <point x="1180" y="375" type="line"/>
    </contour>
    <contour>
      <point x="600" y="1013" type="line"/>
      <point x="130" y="1013" type="line"/>
      <point x="130" y="890" type="line"/>
      <point x="600" y="890" type="line"/>
    </contour>
    <contour>
      <point x="890" y="497" type="line"/>
      <point x="761" y="497" type="line"/>
      <point x="761" y="375" type="line"/>
      <point x="890" y="375" type="line"/>
    </contour>
  </outline>
</glyph>
<glyph name="i_custom_play_arrow" format="2">
  <advance width="1200"/>
  <unicode hex="E602"/>
  <note>
i_custom_play_arrow
</note>
  <outline>
    <contour>
      <point x="1048" y="728" type="line"/>
      <point x="152" y="1420" type="line"/>
      <point x="152" y="0" type="line"/>
    </contour>
  </outline>
</glyph>
<glyph name="i_seti_sass" format="2">
  <advance width="1200"/>
  <unicode hex="E603"/>
  <note>
i_seti_sass
</note>
  <outline>
    <contour>
      <point x="755" y="602" type="curve" smooth="yes"/>
      <point x="755" y="602" type="line"/>
      <point x="755" y="602" type="line"/>
      <point x="747" y="610"/>
      <point x="739" y="610"/>
      <point x="739" y="642" type="curve"/>
      <point x="660" y="626"/>
      <point x="589" y="594"/>
      <point x="518" y="555" type="curve"/>
      <point x="495" y="547"/>
      <point x="479" y="539"/>
      <point x="455" y="523" type="curve"/>
      <point x="447" y="515"/>
      <point x="439" y="523"/>
      <point x="432" y="523" type="curve"/>
      <point x="384" y="563"/>
      <point x="329" y="610"/>
      <point x="282" y="649" type="curve" smooth="yes"/>
      <point x="250" y="673"/>
      <point x="219" y="705"/>
      <point x="187" y="736" type="curve" smooth="yes"/>
      <point x="140" y="783"/>
      <point x="132" y="847"/>
      <point x="156" y="910" type="curve"/>
      <point x="172" y="941"/>
      <point x="187" y="973"/>
      <point x="211" y="1004" type="curve" smooth="yes"/>
      <point x="258" y="1067"/>
      <point x="321" y="1114"/>
      <point x="392" y="1154" type="curve" smooth="yes"/>
      <point x="518" y="1233"/>
      <point x="660" y="1296"/>
      <point x="818" y="1319" type="curve" smooth="yes"/>
      <point x="881" y="1327"/>
      <point x="944" y="1327"/>
      <point x="1007" y="1296" type="curve" smooth="yes"/>
      <point x="1062" y="1264"/>
      <point x="1094" y="1217"/>
      <point x="1078" y="1154" type="curve" smooth="yes"/>
      <point x="1062" y="1099"/>
      <point x="1031" y="1051"/>
      <point x="999" y="1012" type="curve" smooth="yes"/>
      <point x="912" y="910"/>
      <point x="794" y="862"/>
      <point x="660" y="839" type="curve" smooth="yes"/>
      <point x="589" y="823"/>
      <point x="518" y="831"/>
      <point x="455" y="894" type="curve" smooth="yes"/>
      <point x="447" y="902"/>
      <point x="439" y="902"/>
      <point x="439" y="902" type="curve"/>
      <point x="432" y="894"/>
      <point x="432" y="886"/>
      <point x="432" y="886" type="curve"/>
      <point x="439" y="878"/>
      <point x="447" y="862"/>
      <point x="455" y="847" type="curve"/>
      <point x="495" y="807"/>
      <point x="534" y="783"/>
      <point x="581" y="776" type="curve" smooth="yes"/>
      <point x="731" y="752"/>
      <point x="857" y="783"/>
      <point x="983" y="862" type="curve" smooth="yes"/>
      <point x="1078" y="917"/>
      <point x="1141" y="1004"/>
      <point x="1172" y="1107" type="curve" smooth="yes"/>
      <point x="1212" y="1233"/>
      <point x="1165" y="1327"/>
      <point x="1046" y="1375" type="curve"/>
      <point x="1015" y="1390"/>
      <point x="968" y="1398"/>
      <point x="936" y="1414" type="curve"/>
      <point x="826" y="1430"/>
      <point x="715" y="1414"/>
      <point x="605" y="1375" type="curve" smooth="yes"/>
      <point x="447" y="1319"/>
      <point x="305" y="1241"/>
      <point x="179" y="1130" type="curve"/>
      <point x="124" y="1075"/>
      <point x="69" y="1012"/>
      <point x="38" y="933" type="curve"/>
      <point x="-2" y="862"/>
      <point x="6" y="783"/>
      <point x="77" y="728" type="curve"/>
      <point x="101" y="689"/>
      <point x="132" y="657"/>
      <point x="164" y="626" type="curve" smooth="yes"/>
      <point x="219" y="571"/>
      <point x="282" y="523"/>
      <point x="345" y="484" type="curve"/>
      <point x="361" y="484"/>
      <point x="369" y="468"/>
      <point x="392" y="452" type="curve"/>
      <point x="376" y="445"/>
      <point x="369" y="445"/>
      <point x="361" y="437" type="curve"/>
      <point x="313" y="405"/>
      <point x="258" y="382"/>
      <point x="219" y="350" type="curve"/>
      <point x="179" y="326"/>
      <point x="148" y="287"/>
      <point x="116" y="255" type="curve"/>
      <point x="69" y="200"/>
      <point x="61" y="137"/>
      <point x="93" y="66" type="curve"/>
      <point x="101" y="43"/>
      <point x="116" y="19"/>
      <point x="148" y="11" type="curve" smooth="yes"/>
      <point x="172" y="3"/>
      <point x="203" y="-5"/>
      <point x="235" y="3" type="curve"/>
      <point x="353" y="19"/>
      <point x="447" y="90"/>
      <point x="487" y="216" type="curve" smooth="yes"/>
      <point x="510" y="287"/>
      <point x="510" y="358"/>
      <point x="479" y="429" type="curve"/>
      <point x="566" y="484"/>
      <point x="668" y="547"/>
    </contour>
    <contour>
      <point x="416" y="405" type="curve" smooth="yes"/>
      <point x="416" y="405" type="line" smooth="yes"/>
      <point x="432" y="326"/>
      <point x="432" y="271"/>
      <point x="392" y="208" type="curve" smooth="yes"/>
      <point x="361" y="161"/>
      <point x="313" y="121"/>
      <point x="250" y="106" type="curve"/>
      <point x="203" y="98"/>
      <point x="171" y="121"/>
      <point x="179" y="169" type="curve" smooth="yes"/>
      <point x="187" y="208"/>
      <point x="203" y="240"/>
      <point x="235" y="271" type="curve" smooth="yes"/>
      <point x="290" y="326"/>
      <point x="345" y="366"/>
    </contour>
  </outline>
</glyph>
<glyph name="i_seti_rails" format="2">
  <advance width="1200"/>
  <unicode hex="E604"/>
  <note>
i_seti_rails
</note>
  <outline>
    <contour>
      <point x="1175" y="1072" type="curve"/>
      <point x="1127" y="1120"/>
      <point x="1066" y="1154"/>
      <point x="1004" y="1181" type="curve" smooth="yes"/>
      <point x="929" y="1216"/>
      <point x="854" y="1229"/>
      <point x="772" y="1216" type="curve" smooth="yes"/>
      <point x="690" y="1202"/>
      <point x="615" y="1175"/>
      <point x="553" y="1127" type="curve" smooth="yes"/>
      <point x="485" y="1079"/>
      <point x="430" y="1024"/>
      <point x="389" y="956" type="curve" smooth="yes"/>
      <point x="362" y="915"/>
      <point x="341" y="874"/>
      <point x="314" y="826" type="curve" smooth="yes"/>
      <point x="280" y="758"/>
      <point x="245" y="683"/>
      <point x="218" y="607" type="curve" smooth="yes"/>
      <point x="191" y="525"/>
      <point x="170" y="437"/>
      <point x="157" y="355" type="curve" smooth="yes"/>
      <point x="150" y="293"/>
      <point x="143" y="232"/>
      <point x="143" y="170" type="curve" smooth="yes"/>
      <point x="143" y="136" type="line"/>
      <point x="710" y="136" type="line"/>
      <point x="683" y="211"/>
      <point x="656" y="286"/>
      <point x="642" y="361" type="curve" smooth="yes"/>
      <point x="628" y="416"/>
      <point x="621" y="471"/>
      <point x="615" y="525" type="curve"/>
      <point x="615" y="635" type="line" smooth="yes"/>
      <point x="615" y="683"/>
      <point x="621" y="730"/>
      <point x="642" y="771" type="curve"/>
      <point x="683" y="901"/>
      <point x="765" y="990"/>
      <point x="888" y="1052" type="curve"/>
      <point x="936" y="1072"/>
      <point x="984" y="1086"/>
      <point x="1038" y="1079" type="curve" smooth="yes"/>
      <point x="1086" y="1072"/>
      <point x="1127" y="1052"/>
      <point x="1161" y="1024" type="curve"/>
      <point x="1168" y="1045"/>
      <point x="1175" y="1058"/>
      <point x="1175" y="1072" type="curve"/>
      <point x="1182" y="1072"/>
      <point x="1182" y="1072"/>
    </contour>
    <contour>
      <point x="34" y="430" type="curve" smooth="yes"/>
      <point x="34" y="430" type="line" smooth="yes"/>
      <point x="27" y="396"/>
      <point x="27" y="361"/>
      <point x="20" y="320" type="curve"/>
      <point x="54" y="314"/>
      <point x="88" y="314"/>
      <point x="123" y="307" type="curve"/>
      <point x="129" y="341"/>
      <point x="136" y="382"/>
      <point x="143" y="416" type="curve"/>
      <point x="102" y="423"/>
      <point x="68" y="430"/>
    </contour>
    <contour>
      <point x="239" y="751" type="curve"/>
      <point x="205" y="765"/>
      <point x="170" y="778"/>
      <point x="143" y="792" type="curve"/>
      <point x="129" y="765"/>
      <point x="123" y="730"/>
      <point x="109" y="703" type="curve"/>
      <point x="143" y="689"/>
      <point x="177" y="683"/>
      <point x="211" y="669" type="curve"/>
      <point x="218" y="696"/>
      <point x="225" y="724"/>
    </contour>
    <contour>
      <point x="765" y="320" type="curve" smooth="yes"/>
      <point x="765" y="320" type="line"/>
      <point x="765" y="320" type="line"/>
      <point x="731" y="327"/>
      <point x="703" y="327"/>
      <point x="676" y="327" type="curve" smooth="yes"/>
      <point x="669" y="327" type="line"/>
      <point x="669" y="320" type="line"/>
      <point x="676" y="300"/>
      <point x="683" y="273"/>
      <point x="690" y="252" type="curve"/>
      <point x="690" y="245"/>
      <point x="697" y="245"/>
      <point x="697" y="245" type="curve"/>
      <point x="731" y="245"/>
      <point x="765" y="238"/>
      <point x="792" y="238" type="curve" smooth="yes"/>
      <point x="799" y="238" type="line"/>
      <point x="799" y="245" type="line"/>
      <point x="792" y="273"/>
      <point x="779" y="300"/>
    </contour>
    <contour>
      <point x="403" y="1024" type="curve"/>
      <point x="375" y="1038"/>
      <point x="355" y="1058"/>
      <point x="328" y="1072" type="curve"/>
      <point x="307" y="1052"/>
      <point x="287" y="1031"/>
      <point x="266" y="1004" type="curve"/>
      <point x="293" y="983"/>
      <point x="321" y="970"/>
      <point x="341" y="949" type="curve"/>
      <point x="362" y="977"/>
      <point x="382" y="997"/>
    </contour>
    <contour>
      <point x="642" y="519" type="curve" smooth="yes"/>
      <point x="642" y="519" type="line" smooth="yes"/>
      <point x="676" y="505"/>
      <point x="703" y="491"/>
      <point x="724" y="478" type="curve"/>
      <point x="731" y="478" type="line"/>
      <point x="731" y="484" type="line" smooth="yes"/>
      <point x="731" y="505"/>
      <point x="731" y="525"/>
      <point x="724" y="546" type="curve"/>
      <point x="724" y="546"/>
      <point x="724" y="553"/>
      <point x="717" y="553" type="curve"/>
      <point x="690" y="566"/>
      <point x="669" y="580"/>
      <point x="642" y="594" type="curve"/>
      <point x="635" y="594" type="line"/>
      <point x="642" y="566"/>
      <point x="642" y="546"/>
    </contour>
    <contour>
      <point x="621" y="1195" type="curve"/>
      <point x="608" y="1216"/>
      <point x="587" y="1229"/>
      <point x="574" y="1250" type="curve"/>
      <point x="567" y="1250" type="line"/>
      <point x="546" y="1236"/>
      <point x="526" y="1229"/>
      <point x="505" y="1216" type="curve"/>
      <point x="512" y="1195"/>
      <point x="533" y="1175"/>
      <point x="546" y="1154" type="curve"/>
      <point x="574" y="1168"/>
      <point x="594" y="1182"/>
    </contour>
    <contour>
      <point x="649" y="731" type="curve" smooth="yes"/>
      <point x="649" y="731" type="line" smooth="yes"/>
      <point x="676" y="710"/>
      <point x="697" y="690"/>
      <point x="724" y="669" type="curve"/>
      <point x="731" y="690"/>
      <point x="738" y="710"/>
      <point x="738" y="737" type="curve" smooth="yes"/>
      <point x="738" y="744" type="line"/>
      <point x="731" y="751" type="line" smooth="yes"/>
      <point x="717" y="765"/>
      <point x="697" y="778"/>
      <point x="683" y="792" type="curve"/>
      <point x="662" y="772"/>
      <point x="656" y="751"/>
    </contour>
    <contour>
      <point x="847" y="1229" type="curve" smooth="yes"/>
      <point x="847" y="1229" type="line" smooth="yes"/>
      <point x="847" y="1250"/>
      <point x="840" y="1264"/>
      <point x="840" y="1277" type="curve" smooth="yes"/>
      <point x="840" y="1284"/>
      <point x="840" y="1284"/>
      <point x="833" y="1284" type="curve" smooth="yes"/>
      <point x="751" y="1284" type="line"/>
      <point x="758" y="1264"/>
      <point x="758" y="1243"/>
      <point x="765" y="1223" type="curve"/>
      <point x="792" y="1229"/>
      <point x="820" y="1229"/>
    </contour>
    <contour>
      <point x="799" y="895" type="curve"/>
      <point x="799" y="901" type="line"/>
      <point x="785" y="922"/>
      <point x="772" y="942"/>
      <point x="758" y="956" type="curve"/>
      <point x="758" y="963" type="line"/>
      <point x="744" y="949"/>
      <point x="731" y="936"/>
      <point x="710" y="922" type="curve"/>
      <point x="731" y="901"/>
      <point x="751" y="874"/>
      <point x="772" y="854" type="curve"/>
      <point x="785" y="867"/>
      <point x="792" y="881"/>
    </contour>
    <contour>
      <point x="908" y="1045" type="curve"/>
      <point x="888" y="1038"/>
      <point x="867" y="1038"/>
      <point x="847" y="1031" type="curve"/>
      <point x="854" y="1011"/>
      <point x="867" y="997"/>
      <point x="874" y="977" type="curve"/>
      <point x="888" y="990"/>
      <point x="902" y="997"/>
      <point x="915" y="1004" type="curve"/>
      <point x="915" y="1024"/>
      <point x="908" y="1038"/>
    </contour>
    <contour>
      <point x="1045" y="1182" type="line"/>
      <point x="1045" y="1182" type="line" smooth="yes"/>
      <point x="1066" y="1168"/>
      <point x="1086" y="1161"/>
      <point x="1100" y="1147" type="curve"/>
      <point x="1107" y="1154"/>
      <point x="1107" y="1161"/>
      <point x="1113" y="1168" type="curve"/>
      <point x="1093" y="1182"/>
      <point x="1066" y="1202"/>
      <point x="1045" y="1216" type="curve"/>
    </contour>
    <contour>
      <point x="1086" y="1045" type="curve"/>
      <point x="1072" y="1045"/>
      <point x="1059" y="1052"/>
      <point x="1045" y="1052" type="curve" smooth="yes"/>
      <point x="1031" y="1052" type="line"/>
      <point x="1031" y="1018" type="line"/>
      <point x="1052" y="1018"/>
      <point x="1072" y="1011"/>
      <point x="1086" y="1011" type="curve"/>
      <point x="1093" y="1031"/>
      <point x="1093" y="1038"/>
      <point x="1086" y="1045" type="curve"/>
      <point x="1093" y="1045"/>
      <point x="1086" y="1045"/>
    </contour>
  </outline>
</glyph>
<glyph name="i_seti_ruby" format="2">
  <advance width="1200"/>
  <unicode hex="E605"/>
  <note>
i_seti_ruby
</note>
  <outline>
    <contour>
      <point x="1002" y="1293" type="curve" smooth="yes"/>
      <point x="720" y="1293" type="line"/>
      <point x="693" y="1280"/>
      <point x="672" y="1273"/>
      <point x="651" y="1259" type="curve"/>
      <point x="487" y="1218"/>
      <point x="356" y="1122"/>
      <point x="240" y="998" type="curve" smooth="yes"/>
      <point x="144" y="902"/>
      <point x="89" y="786"/>
      <point x="41" y="662" type="curve"/>
      <point x="34" y="634"/>
      <point x="34" y="607"/>
      <point x="34" y="573" type="curve" smooth="yes"/>
      <point x="34" y="518"/>
      <point x="27" y="456"/>
      <point x="27" y="401" type="curve" smooth="yes"/>
      <point x="27" y="387"/>
      <point x="20" y="381"/>
      <point x="20" y="374" type="curve" smooth="yes"/>
      <point x="20" y="339" type="line"/>
      <point x="27" y="319"/>
      <point x="27" y="298"/>
      <point x="34" y="278" type="curve" smooth="yes"/>
      <point x="54" y="195"/>
      <point x="116" y="147"/>
      <point x="198" y="133" type="curve"/>
      <point x="205" y="133"/>
      <point x="212" y="127"/>
      <point x="219" y="127" type="curve" smooth="yes"/>
      <point x="288" y="127" type="line"/>
      <point x="329" y="133"/>
      <point x="370" y="140"/>
      <point x="411" y="140" type="curve" smooth="yes"/>
      <point x="562" y="147"/>
      <point x="713" y="161"/>
      <point x="864" y="168" type="curve" smooth="yes"/>
      <point x="940" y="175"/>
      <point x="1008" y="175"/>
      <point x="1084" y="181" type="curve"/>
      <point x="1111" y="181"/>
      <point x="1118" y="188"/>
      <point x="1118" y="216" type="curve" smooth="yes"/>
      <point x="1125" y="381"/>
      <point x="1139" y="538"/>
      <point x="1153" y="703" type="curve" smooth="yes"/>
      <point x="1159" y="799"/>
      <point x="1166" y="902"/>
      <point x="1173" y="998" type="curve" smooth="yes"/>
      <point x="1173" y="1012"/>
      <point x="1180" y="1026"/>
      <point x="1180" y="1039" type="curve" smooth="yes"/>
      <point x="1180" y="1094" type="line" smooth="yes"/>
      <point x="1180" y="1108"/>
      <point x="1173" y="1122"/>
      <point x="1173" y="1136" type="curve"/>
      <point x="1159" y="1218"/>
      <point x="1104" y="1266"/>
      <point x="1022" y="1287" type="curve"/>
      <point x="1015" y="1287"/>
      <point x="1008" y="1293"/>
    </contour>
  </outline>
</glyph>
<glyph name="i_seti_python" format="2">
  <advance width="1200"/>
  <unicode hex="E606"/>
  <note>
i_seti_python
</note>
  <outline>
    <contour>
      <point x="435" y="744" type="curve" smooth="yes"/>
      <point x="573" y="744" type="line" smooth="yes"/>
      <point x="614" y="744"/>
      <point x="662" y="744"/>
      <point x="710" y="751" type="curve"/>
      <point x="806" y="751"/>
      <point x="861" y="806"/>
      <point x="861" y="902" type="curve" smooth="yes"/>
      <point x="861" y="1149" type="line"/>
      <point x="868" y="1190"/>
      <point x="847" y="1218"/>
      <point x="819" y="1245" type="curve"/>
      <point x="792" y="1266"/>
      <point x="758" y="1279"/>
      <point x="723" y="1286" type="curve" smooth="yes"/>
      <point x="641" y="1307"/>
      <point x="559" y="1307"/>
      <point x="477" y="1293" type="curve" smooth="yes"/>
      <point x="442" y="1286"/>
      <point x="408" y="1272"/>
      <point x="374" y="1259" type="curve" smooth="yes"/>
      <point x="332" y="1245"/>
      <point x="312" y="1211"/>
      <point x="312" y="1163" type="curve" smooth="yes"/>
      <point x="312" y="1074" type="line" smooth="yes"/>
      <point x="312" y="1053"/>
      <point x="319" y="1046"/>
      <point x="339" y="1046" type="curve" smooth="yes"/>
      <point x="573" y="1046" type="line" smooth="yes"/>
      <point x="579" y="1046"/>
      <point x="593" y="1039"/>
      <point x="593" y="1039" type="curve"/>
      <point x="593" y="1005" type="line" smooth="yes"/>
      <point x="593" y="998"/>
      <point x="579" y="998"/>
      <point x="573" y="998" type="curve" smooth="yes"/>
      <point x="175" y="998" type="line"/>
      <point x="106" y="984"/>
      <point x="65" y="936"/>
      <point x="44" y="875" type="curve" smooth="yes"/>
      <point x="17" y="799"/>
      <point x="17" y="724"/>
      <point x="24" y="648" type="curve"/>
      <point x="24" y="607"/>
      <point x="38" y="566"/>
      <point x="58" y="525" type="curve" smooth="yes"/>
      <point x="86" y="470"/>
      <point x="134" y="442"/>
      <point x="195" y="442" type="curve" smooth="yes"/>
      <point x="257" y="442" type="line" smooth="yes"/>
      <point x="271" y="442"/>
      <point x="278" y="449"/>
      <point x="278" y="463" type="curve" smooth="yes"/>
      <point x="278" y="587" type="line" smooth="yes"/>
      <point x="278" y="683"/>
      <point x="339" y="744"/>
    </contour>
    <contour>
      <point x="381" y="1156" type="curve" smooth="yes"/>
      <point x="381" y="1183"/>
      <point x="401" y="1211"/>
      <point x="435" y="1211" type="curve"/>
      <point x="463" y="1204"/>
      <point x="490" y="1183"/>
      <point x="490" y="1156" type="curve" smooth="yes"/>
      <point x="490" y="1128"/>
      <point x="463" y="1101"/>
      <point x="435" y="1101" type="curve" smooth="yes"/>
      <point x="401" y="1101"/>
      <point x="381" y="1128"/>
    </contour>
    <contour>
      <point x="765" y="676" type="curve" smooth="yes"/>
      <point x="627" y="676" type="line" smooth="yes"/>
      <point x="586" y="676"/>
      <point x="538" y="676"/>
      <point x="490" y="669" type="curve"/>
      <point x="394" y="669"/>
      <point x="339" y="614"/>
      <point x="339" y="518" type="curve" smooth="yes"/>
      <point x="339" y="271" type="line"/>
      <point x="332" y="230"/>
      <point x="353" y="202"/>
      <point x="381" y="175" type="curve"/>
      <point x="408" y="154"/>
      <point x="442" y="141"/>
      <point x="477" y="134" type="curve" smooth="yes"/>
      <point x="559" y="113"/>
      <point x="641" y="113"/>
      <point x="723" y="127" type="curve" smooth="yes"/>
      <point x="758" y="134"/>
      <point x="792" y="148"/>
      <point x="826" y="161" type="curve" smooth="yes"/>
      <point x="868" y="175"/>
      <point x="888" y="209"/>
      <point x="888" y="257" type="curve" smooth="yes"/>
      <point x="888" y="346" type="line" smooth="yes"/>
      <point x="888" y="367"/>
      <point x="881" y="374"/>
      <point x="861" y="374" type="curve" smooth="yes"/>
      <point x="627" y="374" type="line" smooth="yes"/>
      <point x="621" y="374"/>
      <point x="607" y="381"/>
      <point x="607" y="381" type="curve"/>
      <point x="607" y="415" type="line" smooth="yes"/>
      <point x="607" y="422"/>
      <point x="621" y="422"/>
      <point x="627" y="422" type="curve" smooth="yes"/>
      <point x="1025" y="422" type="line"/>
      <point x="1094" y="436"/>
      <point x="1135" y="484"/>
      <point x="1156" y="545" type="curve" smooth="yes"/>
      <point x="1183" y="621"/>
      <point x="1183" y="696"/>
      <point x="1176" y="772" type="curve"/>
      <point x="1176" y="813"/>
      <point x="1162" y="854"/>
      <point x="1142" y="895" type="curve" smooth="yes"/>
      <point x="1114" y="950"/>
      <point x="1066" y="978"/>
      <point x="1005" y="978" type="curve" smooth="yes"/>
      <point x="943" y="978" type="line" smooth="yes"/>
      <point x="929" y="978"/>
      <point x="922" y="971"/>
      <point x="922" y="957" type="curve" smooth="yes"/>
      <point x="922" y="833" type="line" smooth="yes"/>
      <point x="922" y="737"/>
      <point x="861" y="676"/>
    </contour>
    <contour>
      <point x="820" y="264" type="curve" smooth="yes"/>
      <point x="820" y="237"/>
      <point x="799" y="209"/>
      <point x="765" y="209" type="curve"/>
      <point x="737" y="216"/>
      <point x="710" y="237"/>
      <point x="710" y="264" type="curve" smooth="yes"/>
      <point x="710" y="292"/>
      <point x="737" y="319"/>
      <point x="765" y="319" type="curve" smooth="yes"/>
      <point x="799" y="319"/>
      <point x="820" y="292"/>
    </contour>
  </outline>
</glyph>
<glyph name="i_seti_heroku" format="2">
  <advance width="1200"/>
  <unicode hex="E607"/>
  <note>
i_seti_heroku
</note>
  <outline>
    <contour>
      <point x="138" y="406" type="line"/>
      <point x="138" y="0" type="line"/>
      <point x="369" y="203" type="line"/>
    </contour>
    <contour>
      <point x="972" y="822" type="curve" smooth="yes"/>
      <point x="931" y="864"/>
      <point x="855" y="913"/>
      <point x="728" y="913" type="curve" smooth="yes"/>
      <point x="589" y="913"/>
      <point x="446" y="877"/>
      <point x="344" y="844" type="curve"/>
      <point x="344" y="1420" type="line"/>
      <point x="139" y="1420" type="line"/>
      <point x="139" y="540" type="line"/>
      <point x="283" y="605" type="line" smooth="yes"/>
      <point x="286" y="606"/>
      <point x="520" y="710"/>
      <point x="728" y="710" type="curve" smooth="yes"/>
      <point x="832" y="710"/>
      <point x="855" y="653"/>
      <point x="856" y="606" type="curve" smooth="yes"/>
      <point x="856" y="0" type="line"/>
      <point x="1061" y="0" type="line"/>
      <point x="1061" y="609" type="line" smooth="yes"/>
      <point x="1062" y="622"/>
      <point x="1060" y="734"/>
    </contour>
    <contour>
      <point x="703" y="1090" type="curve"/>
      <point x="908" y="1090" type="line"/>
      <point x="1000" y="1194"/>
      <point x="1048" y="1305"/>
      <point x="1061" y="1420" type="curve"/>
      <point x="856" y="1420" type="line"/>
      <point x="834" y="1305"/>
      <point x="783" y="1195"/>
    </contour>
  </outline>
</glyph>
<glyph name="i_seti_php" format="2">
  <advance width="1200"/>
  <unicode hex="E608"/>
  <note>
i_seti_php
</note>
  <outline>
    <contour>
      <point x="411" y="489" type="curve" smooth="yes"/>
      <point x="411" y="489" type="line" smooth="yes"/>
      <point x="417" y="454"/>
      <point x="417" y="414"/>
      <point x="394" y="390" type="curve"/>
      <point x="434" y="373"/>
      <point x="434" y="338"/>
      <point x="434" y="303" type="curve"/>
      <point x="440" y="303" type="line"/>
      <point x="475" y="297"/>
      <point x="516" y="297"/>
      <point x="557" y="309" type="curve" smooth="yes"/>
      <point x="574" y="315"/>
      <point x="574" y="320"/>
      <point x="574" y="338" type="curve"/>
      <point x="568" y="367"/>
      <point x="563" y="402"/>
      <point x="563" y="431" type="curve" smooth="yes"/>
      <point x="563" y="454"/>
      <point x="568" y="478"/>
      <point x="580" y="501" type="curve" smooth="yes"/>
      <point x="592" y="524"/>
      <point x="609" y="524"/>
      <point x="632" y="518" type="curve" smooth="yes"/>
      <point x="685" y="501"/>
      <point x="731" y="501"/>
      <point x="778" y="530" type="curve"/>
      <point x="796" y="536"/>
      <point x="813" y="536"/>
      <point x="825" y="518" type="curve" smooth="yes"/>
      <point x="836" y="501"/>
      <point x="842" y="483"/>
      <point x="836" y="460" type="curve" smooth="yes"/>
      <point x="830" y="431"/>
      <point x="825" y="408"/>
      <point x="819" y="384" type="curve"/>
      <point x="848" y="367"/>
      <point x="848" y="332"/>
      <point x="848" y="297" type="curve"/>
      <point x="941" y="297" type="line" smooth="yes"/>
      <point x="964" y="297"/>
      <point x="982" y="303"/>
      <point x="999" y="309" type="curve"/>
      <point x="1023" y="320"/>
      <point x="1034" y="332"/>
      <point x="1029" y="361" type="curve" smooth="yes"/>
      <point x="1023" y="408"/>
      <point x="1017" y="460"/>
      <point x="1011" y="507" type="curve"/>
      <point x="1005" y="530"/>
      <point x="1011" y="553"/>
      <point x="1011" y="577" type="curve" smooth="yes"/>
      <point x="1011" y="582"/>
      <point x="1017" y="594"/>
      <point x="1023" y="600" type="curve" smooth="yes"/>
      <point x="1063" y="641"/>
      <point x="1087" y="693"/>
      <point x="1104" y="751" type="curve"/>
      <point x="1104" y="757"/>
      <point x="1110" y="763"/>
      <point x="1110" y="769" type="curve" smooth="yes"/>
      <point x="1110" y="775"/>
      <point x="1116" y="775"/>
      <point x="1122" y="769" type="curve" smooth="yes"/>
      <point x="1128" y="763"/>
      <point x="1133" y="751"/>
      <point x="1139" y="746" type="curve" smooth="yes"/>
      <point x="1145" y="740"/>
      <point x="1151" y="728"/>
      <point x="1163" y="722" type="curve" smooth="yes"/>
      <point x="1174" y="716"/>
      <point x="1180" y="716"/>
      <point x="1180" y="728" type="curve" smooth="yes"/>
      <point x="1180" y="746"/>
      <point x="1180" y="757"/>
      <point x="1174" y="775" type="curve" smooth="yes"/>
      <point x="1145" y="879"/>
      <point x="1087" y="967"/>
      <point x="994" y="1025" type="curve" smooth="yes"/>
      <point x="935" y="1066"/>
      <point x="871" y="1083"/>
      <point x="801" y="1089" type="curve" smooth="yes"/>
      <point x="743" y="1095"/>
      <point x="679" y="1089"/>
      <point x="621" y="1078" type="curve"/>
      <point x="621" y="1072"/>
      <point x="615" y="1072"/>
      <point x="609" y="1072" type="curve"/>
      <point x="598" y="1066"/>
      <point x="598" y="1060"/>
      <point x="598" y="1048" type="curve"/>
      <point x="603" y="1031"/>
      <point x="609" y="1019"/>
      <point x="609" y="1002" type="curve"/>
      <point x="621" y="920"/>
      <point x="609" y="845"/>
      <point x="563" y="780" type="curve" smooth="yes"/>
      <point x="516" y="722"/>
      <point x="458" y="699"/>
      <point x="382" y="705" type="curve" smooth="yes"/>
      <point x="359" y="705"/>
      <point x="347" y="716"/>
      <point x="335" y="734" type="curve" smooth="yes"/>
      <point x="318" y="763"/>
      <point x="312" y="798"/>
      <point x="306" y="833" type="curve"/>
      <point x="306" y="827"/>
      <point x="312" y="827"/>
      <point x="312" y="821" type="curve" smooth="yes"/>
      <point x="312" y="815" type="line"/>
      <point x="324" y="792"/>
      <point x="341" y="769"/>
      <point x="353" y="751" type="curve" smooth="yes"/>
      <point x="370" y="722"/>
      <point x="388" y="716"/>
      <point x="423" y="728" type="curve" smooth="yes"/>
      <point x="499" y="751"/>
      <point x="563" y="821"/>
      <point x="568" y="903" type="curve"/>
      <point x="574" y="944"/>
      <point x="568" y="979"/>
      <point x="557" y="1019" type="curve" smooth="yes"/>
      <point x="539" y="1078"/>
      <point x="493" y="1107"/>
      <point x="434" y="1118" type="curve" smooth="yes"/>
      <point x="365" y="1130"/>
      <point x="295" y="1118"/>
      <point x="231" y="1101" type="curve" smooth="yes"/>
      <point x="207" y="1095"/>
      <point x="184" y="1089"/>
      <point x="161" y="1078" type="curve" smooth="yes"/>
      <point x="126" y="1060"/>
      <point x="102" y="1031"/>
      <point x="85" y="1002" type="curve" smooth="yes"/>
      <point x="38" y="920"/>
      <point x="15" y="833"/>
      <point x="21" y="740" type="curve" smooth="yes"/>
      <point x="27" y="658"/>
      <point x="62" y="588"/>
      <point x="137" y="530" type="curve" smooth="yes"/>
      <point x="166" y="507"/>
      <point x="196" y="483"/>
      <point x="219" y="460" type="curve" smooth="yes"/>
      <point x="225" y="454"/>
      <point x="225" y="448"/>
      <point x="231" y="443" type="curve"/>
      <point x="236" y="425"/>
      <point x="231" y="413"/>
      <point x="219" y="402" type="curve"/>
      <point x="219" y="396"/>
      <point x="213" y="390"/>
      <point x="207" y="390" type="curve"/>
      <point x="190" y="379"/>
      <point x="184" y="361"/>
      <point x="201" y="344" type="curve" smooth="yes"/>
      <point x="213" y="332"/>
      <point x="236" y="320"/>
      <point x="254" y="320" type="curve"/>
      <point x="254" y="320"/>
      <point x="260" y="320"/>
      <point x="266" y="326" type="curve" smooth="yes"/>
      <point x="295" y="355"/>
      <point x="312" y="396"/>
      <point x="318" y="437" type="curve"/>
      <point x="324" y="460"/>
      <point x="312" y="472"/>
      <point x="300" y="489" type="curve"/>
      <point x="283" y="507"/>
      <point x="271" y="518"/>
      <point x="260" y="536" type="curve"/>
      <point x="248" y="547"/>
      <point x="242" y="553"/>
      <point x="236" y="565" type="curve"/>
      <point x="231" y="571"/>
      <point x="225" y="582"/>
      <point x="231" y="594" type="curve"/>
      <point x="242" y="606"/>
      <point x="254" y="612"/>
      <point x="266" y="606" type="curve" smooth="yes"/>
      <point x="277" y="600"/>
      <point x="295" y="594"/>
      <point x="312" y="588" type="curve"/>
      <point x="324" y="582"/>
      <point x="341" y="571"/>
      <point x="353" y="565" type="curve"/>
      <point x="388" y="553"/>
      <point x="405" y="524"/>
    </contour>
    <contour>
      <point x="172" y="623" type="curve" smooth="yes"/>
      <point x="155" y="606"/>
      <point x="137" y="600"/>
      <point x="114" y="600" type="curve"/>
      <point x="108" y="606"/>
      <point x="97" y="606"/>
      <point x="91" y="606" type="curve" smooth="yes"/>
      <point x="79" y="606"/>
      <point x="73" y="617"/>
      <point x="79" y="629" type="curve"/>
      <point x="79" y="635"/>
      <point x="85" y="635"/>
      <point x="85" y="641" type="curve"/>
      <point x="102" y="658"/>
      <point x="114" y="676"/>
      <point x="132" y="693" type="curve" smooth="yes"/>
      <point x="137" y="699"/>
      <point x="143" y="705"/>
      <point x="155" y="699" type="curve"/>
      <point x="172" y="693"/>
      <point x="190" y="664"/>
      <point x="184" y="646" type="curve"/>
      <point x="184" y="635"/>
      <point x="178" y="629"/>
    </contour>
    <contour>
      <point x="172" y="815" type="curve" smooth="yes"/>
      <point x="172" y="804"/>
      <point x="161" y="792"/>
      <point x="155" y="786" type="curve"/>
      <point x="137" y="786"/>
      <point x="126" y="798"/>
      <point x="126" y="810" type="curve"/>
      <point x="120" y="827"/>
      <point x="137" y="839"/>
      <point x="149" y="839" type="curve" smooth="yes"/>
      <point x="161" y="839"/>
      <point x="172" y="827"/>
    </contour>
  </outline>
</glyph>
<glyph name="i_seti_markdown" format="2">
  <advance width="1200"/>
  <unicode hex="E609"/>
  <note>
i_seti_markdown
</note>
  <outline>
    <contour>
      <point x="922" y="669" type="line"/>
      <point x="922" y="1341" type="line"/>
      <point x="841" y="1287"/>
      <point x="637" y="1137"/>
      <point x="597" y="1137" type="curve" smooth="yes"/>
      <point x="556" y="1137"/>
      <point x="346" y="1287"/>
      <point x="257" y="1348" type="curve"/>
      <point x="257" y="663" type="line"/>
      <point x="20" y="663" type="line"/>
      <point x="210" y="466"/>
      <point x="407" y="262"/>
      <point x="590" y="72" type="curve"/>
      <point x="787" y="269"/>
      <point x="983" y="466"/>
      <point x="1180" y="669" type="curve"/>
    </contour>
  </outline>
</glyph>
<glyph name="i_seti_license" format="2">
  <advance width="1200"/>
  <unicode hex="E60A"/>
  <note>
i_seti_license
</note>
  <outline>
    <contour>
      <point x="767" y="905" type="curve" smooth="yes"/>
      <point x="767" y="905" type="line" smooth="yes"/>
      <point x="755" y="1042"/>
      <point x="650" y="1135"/>
      <point x="507" y="1141" type="curve" smooth="yes"/>
      <point x="414" y="1141" type="line"/>
      <point x="408" y="1222"/>
      <point x="439" y="1333"/>
      <point x="569" y="1346" type="curve" smooth="yes"/>
      <point x="625" y="1352"/>
      <point x="674" y="1339"/>
      <point x="718" y="1296" type="curve" smooth="yes"/>
      <point x="755" y="1253"/>
      <point x="767" y="1203"/>
      <point x="767" y="1147" type="curve" smooth="yes"/>
      <point x="767" y="1141"/>
      <point x="767" y="1129"/>
      <point x="774" y="1122" type="curve" smooth="yes"/>
      <point x="829" y="1067" type="line"/>
      <point x="848" y="1122"/>
      <point x="848" y="1178"/>
      <point x="836" y="1234" type="curve" smooth="yes"/>
      <point x="805" y="1346"/>
      <point x="712" y="1414"/>
      <point x="594" y="1420" type="curve" smooth="yes"/>
      <point x="526" y="1420"/>
      <point x="464" y="1408"/>
      <point x="414" y="1358" type="curve" smooth="yes"/>
      <point x="327" y="1277"/>
      <point x="296" y="1098"/>
      <point x="420" y="980" type="curve" smooth="yes"/>
      <point x="439" y="961"/>
      <point x="464" y="949"/>
      <point x="488" y="936" type="curve" smooth="yes"/>
      <point x="519" y="924"/>
      <point x="544" y="949"/>
      <point x="544" y="974" type="curve" smooth="yes"/>
      <point x="544" y="998"/>
      <point x="532" y="1017"/>
      <point x="501" y="1023" type="curve"/>
      <point x="495" y="1023"/>
      <point x="488" y="1029"/>
      <point x="482" y="1036" type="curve"/>
      <point x="482" y="1042" type="line"/>
      <point x="507" y="1048"/>
      <point x="538" y="1042"/>
      <point x="557" y="1023" type="curve" smooth="yes"/>
      <point x="575" y="1005"/>
      <point x="581" y="980"/>
      <point x="575" y="949" type="curve" smooth="yes"/>
      <point x="563" y="905"/>
      <point x="526" y="887"/>
      <point x="476" y="899" type="curve" smooth="yes"/>
      <point x="408" y="918"/>
      <point x="364" y="961"/>
      <point x="333" y="1023" type="curve"/>
      <point x="327" y="1042"/>
      <point x="315" y="1060"/>
      <point x="309" y="1079" type="curve"/>
      <point x="265" y="1036"/>
      <point x="228" y="992"/>
      <point x="216" y="930" type="curve" smooth="yes"/>
      <point x="191" y="819"/>
      <point x="222" y="725"/>
      <point x="302" y="651" type="curve" smooth="yes"/>
      <point x="309" y="645"/>
      <point x="315" y="639"/>
      <point x="309" y="626" type="curve"/>
      <point x="302" y="577"/>
      <point x="296" y="533"/>
      <point x="284" y="484" type="curve"/>
      <point x="265" y="378"/>
      <point x="253" y="279"/>
      <point x="234" y="174" type="curve" smooth="yes"/>
      <point x="228" y="143"/>
      <point x="228" y="105"/>
      <point x="234" y="74" type="curve" smooth="yes"/>
      <point x="240" y="50"/>
      <point x="253" y="31"/>
      <point x="284" y="19" type="curve"/>
      <point x="290" y="43"/>
      <point x="290" y="68"/>
      <point x="296" y="93" type="curve" smooth="yes"/>
      <point x="315" y="198"/>
      <point x="327" y="298"/>
      <point x="346" y="403" type="curve" smooth="yes"/>
      <point x="358" y="465"/>
      <point x="364" y="533"/>
      <point x="377" y="595" type="curve"/>
      <point x="377" y="608"/>
      <point x="383" y="614"/>
      <point x="395" y="614" type="curve" smooth="yes"/>
      <point x="408" y="614"/>
      <point x="408" y="601"/>
      <point x="408" y="589" type="curve" smooth="yes"/>
      <point x="402" y="527"/>
      <point x="389" y="465"/>
      <point x="377" y="409" type="curve"/>
      <point x="358" y="279"/>
      <point x="333" y="149"/>
      <point x="315" y="19" type="curve"/>
      <point x="315" y="12"/>
      <point x="321" y="6"/>
      <point x="321" y="6" type="curve"/>
      <point x="352" y="6"/>
      <point x="377" y="0"/>
      <point x="408" y="0" type="curve" smooth="yes"/>
      <point x="439" y="0"/>
      <point x="464" y="25"/>
      <point x="482" y="50" type="curve"/>
      <point x="501" y="68"/>
      <point x="501" y="93"/>
      <point x="488" y="118" type="curve"/>
      <point x="482" y="124"/>
      <point x="476" y="130"/>
      <point x="476" y="136" type="curve"/>
      <point x="457" y="161"/>
      <point x="464" y="180"/>
      <point x="488" y="192" type="curve"/>
      <point x="495" y="198"/>
      <point x="507" y="198"/>
      <point x="513" y="205" type="curve"/>
      <point x="526" y="211"/>
      <point x="532" y="229"/>
      <point x="519" y="242" type="curve" smooth="yes"/>
      <point x="501" y="260"/>
      <point x="488" y="279"/>
      <point x="470" y="291" type="curve"/>
      <point x="457" y="304"/>
      <point x="464" y="329"/>
      <point x="476" y="335" type="curve" smooth="yes"/>
      <point x="495" y="347"/>
      <point x="519" y="353"/>
      <point x="538" y="366" type="curve" smooth="yes"/>
      <point x="550" y="372"/>
      <point x="557" y="384"/>
      <point x="544" y="397" type="curve" smooth="yes"/>
      <point x="538" y="403"/>
      <point x="532" y="409"/>
      <point x="526" y="422" type="curve"/>
      <point x="507" y="440"/>
      <point x="513" y="471"/>
      <point x="532" y="484" type="curve"/>
      <point x="538" y="490"/>
      <point x="544" y="496"/>
      <point x="557" y="496" type="curve"/>
      <point x="569" y="502"/>
      <point x="575" y="508"/>
      <point x="575" y="521" type="curve" smooth="yes"/>
      <point x="575" y="539"/>
      <point x="581" y="558"/>
      <point x="581" y="577" type="curve" smooth="yes"/>
      <point x="581" y="583"/>
      <point x="588" y="595"/>
      <point x="594" y="601" type="curve" smooth="yes"/>
      <point x="612" y="620"/>
      <point x="637" y="632"/>
      <point x="662" y="645" type="curve"/>
      <point x="749" y="707"/>
      <point x="780" y="800"/>
    </contour>
    <contour>
      <point x="991" y="198" type="curve"/>
      <point x="991" y="211"/>
      <point x="984" y="223"/>
      <point x="966" y="223" type="curve" smooth="yes"/>
      <point x="953" y="223"/>
      <point x="935" y="223"/>
      <point x="929" y="242" type="curve" smooth="yes"/>
      <point x="922" y="260"/>
      <point x="922" y="279"/>
      <point x="929" y="298" type="curve"/>
      <point x="941" y="322"/>
      <point x="935" y="341"/>
      <point x="904" y="347" type="curve"/>
      <point x="891" y="347"/>
      <point x="879" y="353"/>
      <point x="860" y="353" type="curve" smooth="yes"/>
      <point x="848" y="353"/>
      <point x="842" y="360"/>
      <point x="842" y="372" type="curve" smooth="yes"/>
      <point x="842" y="384"/>
      <point x="836" y="397"/>
      <point x="836" y="409" type="curve" smooth="yes"/>
      <point x="836" y="428"/>
      <point x="848" y="440"/>
      <point x="860" y="453" type="curve"/>
      <point x="873" y="471"/>
      <point x="873" y="477"/>
      <point x="854" y="490" type="curve"/>
      <point x="848" y="496"/>
      <point x="836" y="502"/>
      <point x="829" y="508" type="curve"/>
      <point x="805" y="521"/>
      <point x="805" y="533"/>
      <point x="817" y="558" type="curve"/>
      <point x="823" y="564"/>
      <point x="829" y="570"/>
      <point x="829" y="577" type="curve"/>
      <point x="842" y="589"/>
      <point x="842" y="601"/>
      <point x="836" y="614" type="curve" smooth="yes"/>
      <point x="829" y="626"/>
      <point x="823" y="645"/>
      <point x="811" y="657" type="curve"/>
      <point x="805" y="670"/>
      <point x="805" y="682"/>
      <point x="811" y="694" type="curve" smooth="yes"/>
      <point x="860" y="794"/>
      <point x="873" y="893"/>
      <point x="829" y="998" type="curve" smooth="yes"/>
      <point x="798" y="1067"/>
      <point x="743" y="1110"/>
      <point x="668" y="1129" type="curve"/>
      <point x="662" y="1122" type="line"/>
      <point x="668" y="1116"/>
      <point x="674" y="1104"/>
      <point x="681" y="1098" type="curve" smooth="yes"/>
      <point x="755" y="1036"/>
      <point x="798" y="955"/>
      <point x="798" y="856" type="curve" smooth="yes"/>
      <point x="798" y="750"/>
      <point x="755" y="663"/>
      <point x="662" y="595" type="curve"/>
      <point x="650" y="589"/>
      <point x="643" y="577"/>
      <point x="650" y="564" type="curve" smooth="yes"/>
      <point x="674" y="502"/>
      <point x="693" y="446"/>
      <point x="718" y="384" type="curve" smooth="yes"/>
      <point x="767" y="267"/>
      <point x="817" y="155"/>
      <point x="867" y="37" type="curve"/>
      <point x="873" y="31"/>
      <point x="873" y="25"/>
      <point x="885" y="25" type="curve"/>
      <point x="960" y="62"/>
      <point x="1003" y="130"/>
    </contour>
    <contour>
      <point x="619" y="564" type="curve"/>
      <point x="612" y="539"/>
      <point x="612" y="521"/>
      <point x="606" y="502" type="curve"/>
      <point x="606" y="490"/>
      <point x="600" y="477"/>
      <point x="606" y="465" type="curve" smooth="yes"/>
      <point x="650" y="360"/>
      <point x="693" y="248"/>
      <point x="736" y="143" type="curve" smooth="yes"/>
      <point x="749" y="112"/>
      <point x="767" y="81"/>
      <point x="798" y="56" type="curve"/>
      <point x="811" y="50"/>
      <point x="823" y="43"/>
      <point x="829" y="37" type="curve"/>
      <point x="836" y="43" type="line"/>
      <point x="767" y="217"/>
      <point x="693" y="391"/>
    </contour>
  </outline>
</glyph>
<glyph name="i_seti_json" format="2">
  <advance width="1200"/>
  <unicode hex="E60B"/>
  <note>
i_seti_json
</note>
  <outline>
    <contour>
      <point x="20" y="775" type="curve"/>
      <point x="27" y="645" type="line"/>
      <point x="129" y="645"/>
      <point x="143" y="584"/>
      <point x="143" y="543" type="curve" smooth="yes"/>
      <point x="143" y="509"/>
      <point x="143" y="468"/>
      <point x="136" y="427" type="curve" smooth="yes"/>
      <point x="129" y="386"/>
      <point x="129" y="352"/>
      <point x="129" y="311" type="curve" smooth="yes"/>
      <point x="129" y="161"/>
      <point x="218" y="106"/>
      <point x="354" y="106" type="curve" smooth="yes"/>
      <point x="409" y="106" type="line"/>
      <point x="409" y="236" type="line"/>
      <point x="382" y="236" type="line" smooth="yes"/>
      <point x="313" y="236"/>
      <point x="293" y="277"/>
      <point x="293" y="345" type="curve" smooth="yes"/>
      <point x="293" y="365"/>
      <point x="300" y="400"/>
      <point x="300" y="427" type="curve" smooth="yes"/>
      <point x="300" y="454"/>
      <point x="307" y="488"/>
      <point x="307" y="529" type="curve" smooth="yes"/>
      <point x="307" y="645"/>
      <point x="259" y="686"/>
      <point x="177" y="707" type="curve"/>
      <point x="259" y="727"/>
      <point x="307" y="768"/>
      <point x="307" y="884" type="curve" smooth="yes"/>
      <point x="307" y="925"/>
      <point x="300" y="959"/>
      <point x="300" y="986" type="curve" smooth="yes"/>
      <point x="300" y="1020"/>
      <point x="293" y="1048"/>
      <point x="293" y="1075" type="curve" smooth="yes"/>
      <point x="293" y="1143"/>
      <point x="313" y="1184"/>
      <point x="382" y="1184" type="curve" smooth="yes"/>
      <point x="409" y="1184" type="line"/>
      <point x="409" y="1314" type="line"/>
      <point x="354" y="1314" type="line" smooth="yes"/>
      <point x="211" y="1314"/>
      <point x="122" y="1252"/>
      <point x="122" y="1109" type="curve" smooth="yes"/>
      <point x="122" y="1075"/>
      <point x="129" y="1034"/>
      <point x="129" y="993" type="curve" smooth="yes"/>
      <point x="129" y="952"/>
      <point x="136" y="918"/>
      <point x="136" y="877" type="curve" smooth="yes"/>
      <point x="136" y="829"/>
      <point x="122" y="775"/>
    </contour>
    <contour>
      <point x="1180" y="659" type="curve"/>
      <point x="1180" y="775" type="line"/>
      <point x="1078" y="775"/>
      <point x="1064" y="829"/>
      <point x="1064" y="877" type="curve" smooth="yes"/>
      <point x="1064" y="911"/>
      <point x="1064" y="952"/>
      <point x="1071" y="993" type="curve"/>
      <point x="1071" y="1034"/>
      <point x="1078" y="1068"/>
      <point x="1078" y="1109" type="curve" smooth="yes"/>
      <point x="1078" y="1252"/>
      <point x="989" y="1314"/>
      <point x="846" y="1314" type="curve" smooth="yes"/>
      <point x="791" y="1314" type="line"/>
      <point x="791" y="1184" type="line"/>
      <point x="818" y="1184" type="line"/>
      <point x="880" y="1177"/>
      <point x="907" y="1143"/>
      <point x="907" y="1075" type="curve" smooth="yes"/>
      <point x="907" y="1048"/>
      <point x="907" y="1020"/>
      <point x="900" y="986" type="curve"/>
      <point x="900" y="959"/>
      <point x="893" y="925"/>
      <point x="893" y="884" type="curve" smooth="yes"/>
      <point x="893" y="768"/>
      <point x="941" y="727"/>
      <point x="1023" y="707" type="curve"/>
      <point x="941" y="686"/>
      <point x="893" y="645"/>
      <point x="893" y="529" type="curve" smooth="yes"/>
      <point x="893" y="495"/>
      <point x="900" y="461"/>
      <point x="900" y="427" type="curve"/>
      <point x="907" y="400"/>
      <point x="907" y="372"/>
      <point x="907" y="345" type="curve" smooth="yes"/>
      <point x="907" y="277"/>
      <point x="887" y="236"/>
      <point x="818" y="236" type="curve" smooth="yes"/>
      <point x="791" y="236" type="line"/>
      <point x="791" y="120" type="line"/>
      <point x="846" y="120" type="line" smooth="yes"/>
      <point x="982" y="120"/>
      <point x="1078" y="174"/>
      <point x="1078" y="324" type="curve" smooth="yes"/>
      <point x="1078" y="359"/>
      <point x="1078" y="400"/>
      <point x="1071" y="440" type="curve"/>
      <point x="1071" y="481"/>
      <point x="1064" y="516"/>
      <point x="1064" y="556" type="curve" smooth="yes"/>
      <point x="1064" y="597"/>
      <point x="1078" y="659"/>
    </contour>
  </outline>
</glyph>
<glyph name="i_seti_javascript" format="2">
  <advance width="1200"/>
  <unicode hex="E60C"/>
  <note>
i_seti_javascript
</note>
  <outline>
    <contour>
      <point x="466" y="1134" type="line"/>
      <point x="275" y="1134" type="line"/>
      <point x="275" y="597" type="line" smooth="yes"/>
      <point x="275" y="462"/>
      <point x="218" y="427"/>
      <point x="140" y="427" type="curve" smooth="yes"/>
      <point x="105" y="427"/>
      <point x="70" y="434"/>
      <point x="41" y="448" type="curve"/>
      <point x="20" y="293" type="line"/>
      <point x="55" y="279"/>
      <point x="119" y="271"/>
      <point x="161" y="271" type="curve" smooth="yes"/>
      <point x="352" y="271"/>
      <point x="466" y="356"/>
      <point x="466" y="597" type="curve" smooth="yes"/>
    </contour>
    <contour>
      <point x="635" y="484" type="curve" smooth="yes"/>
      <point x="635" y="484" type="line"/>
      <point x="593" y="321" type="line"/>
      <point x="642" y="300"/>
      <point x="734" y="271"/>
      <point x="833" y="271" type="curve" smooth="yes"/>
      <point x="1067" y="271"/>
      <point x="1180" y="392"/>
      <point x="1180" y="533" type="curve" smooth="yes"/>
      <point x="1180" y="653"/>
      <point x="1109" y="731"/>
      <point x="961" y="788" type="curve" smooth="yes"/>
      <point x="855" y="830"/>
      <point x="805" y="851"/>
      <point x="805" y="908" type="curve" smooth="yes"/>
      <point x="805" y="958"/>
      <point x="848" y="993"/>
      <point x="932" y="993" type="curve" smooth="yes"/>
      <point x="1017" y="993"/>
      <point x="1074" y="965"/>
      <point x="1109" y="950" type="curve"/>
      <point x="1152" y="1106" type="line"/>
      <point x="1102" y="1127"/>
      <point x="1031" y="1149"/>
      <point x="932" y="1149" type="curve" smooth="yes"/>
      <point x="727" y="1149"/>
      <point x="607" y="1042"/>
      <point x="607" y="894" type="curve" smooth="yes"/>
      <point x="607" y="767"/>
      <point x="699" y="689"/>
      <point x="840" y="639" type="curve" smooth="yes"/>
      <point x="939" y="604"/>
      <point x="982" y="576"/>
      <point x="982" y="519" type="curve" smooth="yes"/>
      <point x="982" y="462"/>
      <point x="939" y="427"/>
      <point x="848" y="427" type="curve" smooth="yes"/>
      <point x="770" y="427"/>
      <point x="685" y="455"/>
    </contour>
  </outline>
</glyph>
<glyph name="i_seti_image" format="2">
  <advance width="1200"/>
  <unicode hex="E60D"/>
  <note>
i_seti_image
</note>
  <outline>
    <contour>
      <point x="924" y="637" type="curve" smooth="yes"/>
      <point x="985" y="637"/>
      <point x="1033" y="686"/>
      <point x="1033" y="747" type="curve" smooth="yes"/>
      <point x="1033" y="808"/>
      <point x="985" y="857"/>
      <point x="924" y="857" type="curve" smooth="yes"/>
      <point x="863" y="857"/>
      <point x="814" y="808"/>
      <point x="814" y="747" type="curve" smooth="yes"/>
      <point x="814" y="686"/>
      <point x="863" y="637"/>
    </contour>
    <contour>
      <point x="1180" y="973" type="line"/>
      <point x="246" y="973" type="line"/>
      <point x="246" y="215" type="line"/>
      <point x="1180" y="215" type="line"/>
    </contour>
    <contour>
      <point x="289" y="368" type="line"/>
      <point x="289" y="930" type="line"/>
      <point x="1137" y="930" type="line"/>
      <point x="1137" y="270" type="line"/>
      <point x="917" y="521" type="line"/>
      <point x="783" y="362" type="line"/>
      <point x="515" y="649" type="line"/>
    </contour>
    <contour>
      <point x="887" y="1101" type="line"/>
      <point x="887" y="1205" type="line"/>
      <point x="20" y="1205" type="line"/>
      <point x="20" y="545" type="line"/>
      <point x="136" y="545" type="line"/>
      <point x="136" y="1101" type="line"/>
    </contour>
  </outline>
</glyph>
<glyph name="i_seti_html" format="2">
  <advance width="1200"/>
  <unicode hex="E60E"/>
  <note>
i_seti_html
</note>
  <outline>
    <contour>
      <point x="455" y="1188" type="line"/>
      <point x="20" y="782" type="line"/>
      <point x="20" y="637" type="line"/>
      <point x="455" y="231" type="line"/>
      <point x="455" y="420" type="line"/>
      <point x="129" y="710" type="line"/>
      <point x="455" y="1000" type="line"/>
    </contour>
    <contour>
      <point x="745" y="224" type="line"/>
      <point x="1180" y="630" type="line"/>
      <point x="1180" y="790" type="line"/>
      <point x="745" y="1196" type="line"/>
      <point x="745" y="1000" type="line"/>
      <point x="1079" y="710" type="line"/>
      <point x="745" y="420" type="line"/>
    </contour>
  </outline>
</glyph>
<glyph name="i_seti_mustache" format="2">
  <advance width="1200"/>
  <unicode hex="E60F"/>
  <note>
i_seti_mustache
</note>
  <outline>
    <contour>
      <point x="152" y="726" type="curve" smooth="yes"/>
      <point x="152" y="726" type="line" smooth="yes"/>
      <point x="179" y="747"/>
      <point x="179" y="784"/>
      <point x="142" y="800" type="curve" smooth="yes"/>
      <point x="121" y="810"/>
      <point x="94" y="810"/>
      <point x="73" y="800" type="curve"/>
      <point x="36" y="789"/>
      <point x="26" y="757"/>
      <point x="20" y="721" type="curve"/>
      <point x="15" y="641"/>
      <point x="57" y="599"/>
      <point x="115" y="578" type="curve" smooth="yes"/>
      <point x="174" y="557"/>
      <point x="232" y="562"/>
      <point x="290" y="583" type="curve" smooth="yes"/>
      <point x="337" y="599"/>
      <point x="380" y="620"/>
      <point x="427" y="641" type="curve" smooth="yes"/>
      <point x="464" y="657"/>
      <point x="506" y="673"/>
      <point x="543" y="684" type="curve" smooth="yes"/>
      <point x="607" y="699"/>
      <point x="670" y="689"/>
      <point x="728" y="662" type="curve" smooth="yes"/>
      <point x="871" y="599" type="line"/>
      <point x="939" y="573"/>
      <point x="1008" y="557"/>
      <point x="1082" y="578" type="curve" smooth="yes"/>
      <point x="1119" y="589"/>
      <point x="1150" y="604"/>
      <point x="1166" y="641" type="curve" smooth="yes"/>
      <point x="1182" y="673"/>
      <point x="1182" y="710"/>
      <point x="1177" y="742" type="curve" smooth="yes"/>
      <point x="1166" y="794"/>
      <point x="1119" y="821"/>
      <point x="1071" y="805" type="curve" smooth="yes"/>
      <point x="1055" y="800"/>
      <point x="1040" y="789"/>
      <point x="1040" y="768" type="curve" smooth="yes"/>
      <point x="1040" y="752"/>
      <point x="1045" y="736"/>
      <point x="1061" y="726" type="curve"/>
      <point x="1061" y="731" type="line"/>
      <point x="1055" y="742"/>
      <point x="1061" y="752"/>
      <point x="1071" y="757" type="curve" smooth="yes"/>
      <point x="1082" y="763"/>
      <point x="1092" y="763"/>
      <point x="1103" y="752" type="curve" smooth="yes"/>
      <point x="1113" y="742"/>
      <point x="1119" y="731"/>
      <point x="1113" y="715" type="curve"/>
      <point x="1103" y="694"/>
      <point x="1077" y="678"/>
      <point x="1050" y="684" type="curve" smooth="yes"/>
      <point x="1029" y="689"/>
      <point x="1013" y="699"/>
      <point x="997" y="715" type="curve" smooth="yes"/>
      <point x="966" y="742"/>
      <point x="939" y="768"/>
      <point x="908" y="794" type="curve" smooth="yes"/>
      <point x="865" y="831"/>
      <point x="813" y="853"/>
      <point x="754" y="853" type="curve" smooth="yes"/>
      <point x="702" y="853"/>
      <point x="659" y="831"/>
      <point x="628" y="794" type="curve" smooth="yes"/>
      <point x="622" y="789"/>
      <point x="617" y="784"/>
      <point x="612" y="773" type="curve"/>
      <point x="601" y="784" type="line"/>
      <point x="570" y="816" type="line" smooth="yes"/>
      <point x="517" y="863"/>
      <point x="453" y="863"/>
      <point x="390" y="842" type="curve" smooth="yes"/>
      <point x="343" y="826"/>
      <point x="311" y="794"/>
      <point x="274" y="763" type="curve" smooth="yes"/>
      <point x="247" y="736"/>
      <point x="221" y="715"/>
      <point x="195" y="694" type="curve"/>
      <point x="179" y="678"/>
      <point x="163" y="678"/>
      <point x="142" y="684" type="curve" smooth="yes"/>
      <point x="110" y="694"/>
      <point x="94" y="721"/>
      <point x="110" y="747" type="curve"/>
      <point x="115" y="763"/>
      <point x="137" y="763"/>
      <point x="147" y="752" type="curve" smooth="yes"/>
      <point x="152" y="747"/>
      <point x="152" y="736"/>
    </contour>
  </outline>
</glyph>
<glyph name="i_seti_gulp" format="2">
  <advance width="1200"/>
  <unicode hex="E610"/>
  <note>
i_seti_gulp
</note>
  <outline>
    <contour>
      <point x="830" y="330" type="curve"/>
      <point x="678" y="291"/>
      <point x="533" y="291"/>
      <point x="393" y="330" type="curve"/>
      <point x="393" y="325" type="line"/>
      <point x="426" y="291"/>
      <point x="426" y="246"/>
      <point x="426" y="202" type="curve" smooth="yes"/>
      <point x="426" y="157"/>
      <point x="426" y="118"/>
      <point x="432" y="73" type="curve"/>
      <point x="432" y="62"/>
      <point x="443" y="50"/>
      <point x="449" y="45" type="curve"/>
      <point x="477" y="28"/>
      <point x="510" y="17"/>
      <point x="544" y="6" type="curve"/>
      <point x="550" y="6"/>
      <point x="561" y="0"/>
      <point x="566" y="0" type="curve" smooth="yes"/>
      <point x="628" y="0" type="line"/>
      <point x="667" y="11"/>
      <point x="712" y="28"/>
      <point x="751" y="39" type="curve" smooth="yes"/>
      <point x="768" y="45"/>
      <point x="779" y="56"/>
      <point x="779" y="78" type="curve"/>
      <point x="785" y="134"/>
      <point x="790" y="196"/>
      <point x="796" y="252" type="curve" smooth="yes"/>
      <point x="796" y="263"/>
      <point x="802" y="280"/>
      <point x="807" y="291" type="curve" smooth="yes"/>
      <point x="813" y="302"/>
      <point x="818" y="314"/>
    </contour>
    <contour>
      <point x="914" y="1041" type="curve" smooth="yes"/>
      <point x="914" y="1041" type="line" smooth="yes"/>
      <point x="706" y="991"/>
      <point x="494" y="991"/>
      <point x="281" y="1036" type="curve"/>
      <point x="281" y="1008"/>
      <point x="281" y="980"/>
      <point x="286" y="952" type="curve" smooth="yes"/>
      <point x="298" y="862"/>
      <point x="314" y="778"/>
      <point x="320" y="689" type="curve" smooth="yes"/>
      <point x="320" y="683"/>
      <point x="326" y="677"/>
      <point x="326" y="672" type="curve" smooth="yes"/>
      <point x="331" y="621" type="line" smooth="yes"/>
      <point x="337" y="565"/>
      <point x="342" y="515"/>
      <point x="348" y="465" type="curve"/>
      <point x="354" y="442"/>
      <point x="359" y="414"/>
      <point x="359" y="386" type="curve"/>
      <point x="365" y="364"/>
      <point x="370" y="341"/>
      <point x="398" y="336" type="curve"/>
      <point x="477" y="313"/>
      <point x="555" y="308"/>
      <point x="634" y="313" type="curve" smooth="yes"/>
      <point x="690" y="319"/>
      <point x="740" y="325"/>
      <point x="796" y="336" type="curve" smooth="yes"/>
      <point x="830" y="341"/>
      <point x="852" y="358"/>
      <point x="852" y="397" type="curve"/>
      <point x="858" y="459"/>
      <point x="863" y="521"/>
      <point x="869" y="577" type="curve" smooth="yes"/>
      <point x="891" y="806" type="line" smooth="yes"/>
      <point x="897" y="885"/>
      <point x="908" y="963"/>
    </contour>
    <contour>
      <point x="281" y="1075" type="curve"/>
      <point x="337" y="1008"/>
      <point x="824" y="1002"/>
      <point x="919" y="1075" type="curve"/>
      <point x="902" y="1081"/>
      <point x="891" y="1086"/>
      <point x="880" y="1086" type="curve" smooth="yes"/>
      <point x="785" y="1092"/>
      <point x="695" y="1097"/>
      <point x="600" y="1103" type="curve" smooth="yes"/>
      <point x="572" y="1103"/>
      <point x="555" y="1109"/>
      <point x="544" y="1142" type="curve"/>
      <point x="533" y="1220"/>
      <point x="494" y="1288"/>
      <point x="432" y="1338" type="curve" smooth="yes"/>
      <point x="410" y="1355"/>
      <point x="393" y="1377"/>
      <point x="370" y="1400" type="curve" smooth="yes"/>
      <point x="342" y="1428"/>
      <point x="342" y="1428"/>
      <point x="309" y="1394" type="curve"/>
      <point x="354" y="1349"/>
      <point x="393" y="1299"/>
      <point x="438" y="1254" type="curve" smooth="yes"/>
      <point x="477" y="1215"/>
      <point x="477" y="1165"/>
      <point x="494" y="1114" type="curve"/>
      <point x="494" y="1114"/>
      <point x="477" y="1103"/>
      <point x="471" y="1103" type="curve" smooth="yes"/>
      <point x="421" y="1097"/>
      <point x="365" y="1092"/>
      <point x="314" y="1086" type="curve" smooth="yes"/>
      <point x="303" y="1086"/>
      <point x="292" y="1081"/>
    </contour>
  </outline>
</glyph>
<glyph name="i_seti_grunt" format="2">
  <advance width="1200"/>
  <unicode hex="E611"/>
  <note>
i_seti_grunt
</note>
  <outline>
    <contour>
      <point x="1052" y="694" type="curve" smooth="yes"/>
      <point x="1052" y="694" type="line" smooth="yes"/>
      <point x="1080" y="708"/>
      <point x="1115" y="722"/>
      <point x="1143" y="743" type="curve" smooth="yes"/>
      <point x="1206" y="784"/>
      <point x="1206" y="861"/>
      <point x="1143" y="889" type="curve" smooth="yes"/>
      <point x="1129" y="896"/>
      <point x="1122" y="910"/>
      <point x="1115" y="931" type="curve"/>
      <point x="1108" y="973"/>
      <point x="1115" y="1008"/>
      <point x="1136" y="1043" type="curve" smooth="yes"/>
      <point x="1185" y="1113"/>
      <point x="1150" y="1169"/>
      <point x="1059" y="1176" type="curve" smooth="yes"/>
      <point x="1052" y="1176" type="line"/>
      <point x="1045" y="1183" type="line"/>
      <point x="1038" y="1217"/>
      <point x="1031" y="1245"/>
      <point x="1073" y="1273" type="curve"/>
      <point x="1087" y="1280"/>
      <point x="1108" y="1287"/>
      <point x="1129" y="1294" type="curve"/>
      <point x="1143" y="1301"/>
      <point x="1157" y="1301"/>
      <point x="1164" y="1301" type="curve"/>
      <point x="1164" y="1308"/>
      <point x="1157" y="1308"/>
      <point x="1157" y="1308" type="curve"/>
      <point x="1108" y="1364"/>
      <point x="1038" y="1378"/>
      <point x="975" y="1371" type="curve" smooth="yes"/>
      <point x="891" y="1364"/>
      <point x="842" y="1322"/>
      <point x="794" y="1266" type="curve"/>
      <point x="787" y="1252"/>
      <point x="773" y="1252"/>
      <point x="759" y="1259" type="curve" smooth="yes"/>
      <point x="745" y="1266"/>
      <point x="745" y="1273"/>
      <point x="745" y="1280" type="curve" smooth="yes"/>
      <point x="745" y="1294"/>
      <point x="752" y="1308"/>
      <point x="752" y="1322" type="curve"/>
      <point x="773" y="1364" type="line"/>
      <point x="731" y="1364"/>
      <point x="703" y="1343"/>
      <point x="668" y="1322" type="curve"/>
      <point x="647" y="1357"/>
      <point x="647" y="1385"/>
      <point x="661" y="1420" type="curve"/>
      <point x="598" y="1399"/>
      <point x="556" y="1371"/>
      <point x="542" y="1308" type="curve"/>
      <point x="521" y="1329"/>
      <point x="528" y="1357"/>
      <point x="528" y="1385" type="curve"/>
      <point x="521" y="1385" type="line" smooth="yes"/>
      <point x="514" y="1385"/>
      <point x="514" y="1378"/>
      <point x="507" y="1378" type="curve"/>
      <point x="472" y="1350"/>
      <point x="451" y="1315"/>
      <point x="444" y="1280" type="curve"/>
      <point x="444" y="1273"/>
      <point x="437" y="1266"/>
      <point x="437" y="1259" type="curve"/>
      <point x="430" y="1266"/>
      <point x="423" y="1266"/>
      <point x="416" y="1273" type="curve"/>
      <point x="389" y="1294"/>
      <point x="361" y="1322"/>
      <point x="333" y="1343" type="curve"/>
      <point x="249" y="1392"/>
      <point x="172" y="1392"/>
      <point x="88" y="1350" type="curve"/>
      <point x="32" y="1294" type="line"/>
      <point x="60" y="1280"/>
      <point x="88" y="1280"/>
      <point x="116" y="1266" type="curve"/>
      <point x="165" y="1252"/>
      <point x="179" y="1224"/>
      <point x="158" y="1169" type="curve"/>
      <point x="144" y="1169"/>
      <point x="130" y="1162"/>
      <point x="116" y="1162" type="curve"/>
      <point x="67" y="1148"/>
      <point x="46" y="1113"/>
      <point x="53" y="1071" type="curve"/>
      <point x="60" y="1050"/>
      <point x="74" y="1029"/>
      <point x="81" y="1008" type="curve"/>
      <point x="81" y="1001"/>
      <point x="88" y="994"/>
      <point x="88" y="987" type="curve" smooth="yes"/>
      <point x="88" y="917" type="line" smooth="yes"/>
      <point x="88" y="903"/>
      <point x="74" y="889"/>
      <point x="60" y="875" type="curve" smooth="yes"/>
      <point x="46" y="861"/>
      <point x="25" y="847"/>
      <point x="18" y="826" type="curve"/>
      <point x="-3" y="791"/>
      <point x="18" y="750"/>
      <point x="53" y="722" type="curve" smooth="yes"/>
      <point x="81" y="701"/>
      <point x="109" y="687"/>
      <point x="144" y="673" type="curve" smooth="yes"/>
      <point x="186" y="652"/>
      <point x="200" y="624"/>
      <point x="200" y="589" type="curve" smooth="yes"/>
      <point x="200" y="547"/>
      <point x="200" y="512"/>
      <point x="193" y="470" type="curve"/>
      <point x="193" y="456"/>
      <point x="186" y="435"/>
      <point x="186" y="414" type="curve"/>
      <point x="144" y="449"/>
      <point x="116" y="484"/>
      <point x="109" y="533" type="curve"/>
      <point x="67" y="498"/>
      <point x="46" y="463"/>
      <point x="46" y="421" type="curve"/>
      <point x="32" y="331"/>
      <point x="67" y="240"/>
      <point x="179" y="198" type="curve"/>
      <point x="186" y="198"/>
      <point x="193" y="191"/>
      <point x="200" y="184" type="curve"/>
      <point x="242" y="114"/>
      <point x="305" y="72"/>
      <point x="389" y="58" type="curve"/>
      <point x="396" y="58"/>
      <point x="403" y="58"/>
      <point x="403" y="51" type="curve"/>
      <point x="479" y="2"/>
      <point x="556" y="-5"/>
      <point x="640" y="2" type="curve" smooth="yes"/>
      <point x="689" y="9"/>
      <point x="731" y="16"/>
      <point x="766" y="44" type="curve" smooth="yes"/>
      <point x="773" y="51"/>
      <point x="787" y="51"/>
      <point x="794" y="58" type="curve"/>
      <point x="877" y="72"/>
      <point x="933" y="114"/>
      <point x="975" y="177" type="curve"/>
      <point x="996" y="198" type="line"/>
      <point x="1038" y="212"/>
      <point x="1073" y="233"/>
      <point x="1094" y="268" type="curve" smooth="yes"/>
      <point x="1129" y="317"/>
      <point x="1136" y="379"/>
      <point x="1129" y="428" type="curve" smooth="yes"/>
      <point x="1122" y="470"/>
      <point x="1101" y="498"/>
      <point x="1066" y="533" type="curve"/>
      <point x="1052" y="484"/>
      <point x="1031" y="449"/>
      <point x="989" y="414" type="curve"/>
      <point x="982" y="477"/>
      <point x="982" y="540"/>
      <point x="982" y="596" type="curve"/>
      <point x="996" y="652"/>
      <point x="1017" y="680"/>
    </contour>
  </outline>
</glyph>
<glyph name="i_custom_default" format="2">
  <advance width="1200"/>
  <unicode hex="E612"/>
  <note>
i_custom_default
</note>
  <outline>
    <contour>
      <point x="1120" y="1327" type="line"/>
      <point x="24" y="1327" type="line"/>
      <point x="20" y="1170" type="line"/>
      <point x="1126" y="1170" type="line"/>
    </contour>
    <contour>
      <point x="969" y="967" type="line"/>
      <point x="20" y="967" type="line"/>
      <point x="24" y="812" type="line"/>
      <point x="967" y="812" type="line"/>
    </contour>
    <contour>
      <point x="1176" y="608" type="line"/>
      <point x="24" y="608" type="line"/>
      <point x="20" y="453" type="line"/>
      <point x="1180" y="453" type="line"/>
    </contour>
    <contour>
      <point x="699" y="250" type="line"/>
      <point x="20" y="250" type="line"/>
      <point x="24" y="93" type="line"/>
      <point x="695" y="93" type="line"/>
    </contour>
  </outline>
</glyph>
<glyph name="i_seti_folder" format="2">
  <advance width="1200"/>
  <unicode hex="E613"/>
  <note>
i_seti_folder
</note>
  <outline>
    <contour>
      <point x="1089" y="1055" type="curve" smooth="yes"/>
      <point x="607" y="1055" type="line"/>
      <point x="607" y="1100" type="line" smooth="yes"/>
      <point x="607" y="1153"/>
      <point x="566" y="1195"/>
      <point x="513" y="1195" type="curve" smooth="yes"/>
      <point x="20" y="1195" type="line"/>
      <point x="20" y="225" type="line"/>
      <point x="1180" y="225" type="line"/>
      <point x="1180" y="960" type="line"/>
      <point x="1184" y="1013"/>
      <point x="1142" y="1055"/>
    </contour>
  </outline>
</glyph>
<glyph name="i_seti_css" format="2">
  <advance width="1200"/>
  <unicode hex="E614"/>
  <note>
i_seti_css
</note>
  <outline>
    <contour>
      <point x="215" y="453" type="line"/>
      <point x="152" y="142" type="line"/>
      <point x="378" y="142" type="line"/>
      <point x="440" y="453" type="line"/>
      <point x="658" y="453" type="line"/>
      <point x="596" y="142" type="line"/>
      <point x="814" y="142" type="line"/>
      <point x="876" y="453" type="line"/>
      <point x="1110" y="453" type="line"/>
      <point x="1110" y="617" type="line"/>
      <point x="908" y="617" type="line"/>
      <point x="954" y="811" type="line"/>
      <point x="1180" y="811" type="line"/>
      <point x="1180" y="975" type="line"/>
      <point x="985" y="975" type="line"/>
      <point x="1048" y="1278" type="line"/>
      <point x="830" y="1278" type="line"/>
      <point x="767" y="975" type="line"/>
      <point x="549" y="975" type="line"/>
      <point x="612" y="1278" type="line"/>
      <point x="394" y="1278" type="line"/>
      <point x="331" y="975" type="line"/>
      <point x="90" y="975" type="line"/>
      <point x="90" y="811" type="line"/>
      <point x="292" y="811" type="line"/>
      <point x="254" y="617" type="line"/>
      <point x="20" y="617" type="line"/>
      <point x="20" y="453" type="line"/>
    </contour>
    <contour>
      <point x="728" y="811" type="line"/>
      <point x="690" y="617" type="line"/>
      <point x="472" y="617" type="line"/>
      <point x="510" y="811" type="line"/>
    </contour>
  </outline>
</glyph>
<glyph name="i_seti_config" format="2">
  <advance width="1200"/>
  <unicode hex="E615"/>
  <note>
i_seti_config
</note>
  <outline>
    <contour>
      <point x="1142" y="631" type="curve" smooth="yes"/>
      <point x="1142" y="631" type="line" smooth="yes"/>
      <point x="1117" y="637"/>
      <point x="1091" y="650"/>
      <point x="1072" y="656" type="curve"/>
      <point x="1072" y="701"/>
      <point x="1066" y="739"/>
      <point x="1066" y="784" type="curve" smooth="yes"/>
      <point x="1066" y="790"/>
      <point x="1072" y="790"/>
      <point x="1072" y="797" type="curve"/>
      <point x="1097" y="809"/>
      <point x="1117" y="816"/>
      <point x="1142" y="829" type="curve" smooth="yes"/>
      <point x="1168" y="841"/>
      <point x="1174" y="867"/>
      <point x="1168" y="892" type="curve"/>
      <point x="1148" y="937"/>
      <point x="1129" y="975"/>
      <point x="1110" y="1020" type="curve" smooth="yes"/>
      <point x="1097" y="1045"/>
      <point x="1072" y="1058"/>
      <point x="1046" y="1045" type="curve" smooth="yes"/>
      <point x="1021" y="1033"/>
      <point x="1002" y="1026"/>
      <point x="976" y="1014" type="curve"/>
      <point x="970" y="1014"/>
      <point x="964" y="1014"/>
      <point x="964" y="1020" type="curve"/>
      <point x="951" y="1039"/>
      <point x="932" y="1052"/>
      <point x="919" y="1065" type="curve" smooth="yes"/>
      <point x="906" y="1077"/>
      <point x="887" y="1090"/>
      <point x="874" y="1103" type="curve"/>
      <point x="887" y="1128"/>
      <point x="893" y="1154"/>
      <point x="906" y="1179" type="curve" smooth="yes"/>
      <point x="919" y="1211"/>
      <point x="906" y="1237"/>
      <point x="874" y="1250" type="curve"/>
      <point x="836" y="1256"/>
      <point x="791" y="1275"/>
      <point x="753" y="1288" type="curve" smooth="yes"/>
      <point x="721" y="1301"/>
      <point x="696" y="1288"/>
      <point x="683" y="1256" type="curve"/>
      <point x="677" y="1230"/>
      <point x="664" y="1205"/>
      <point x="657" y="1186" type="curve"/>
      <point x="613" y="1186"/>
      <point x="574" y="1179"/>
      <point x="530" y="1179" type="curve" smooth="yes"/>
      <point x="523" y="1179"/>
      <point x="523" y="1186"/>
      <point x="517" y="1186" type="curve"/>
      <point x="504" y="1211"/>
      <point x="498" y="1230"/>
      <point x="485" y="1256" type="curve" smooth="yes"/>
      <point x="472" y="1281"/>
      <point x="447" y="1288"/>
      <point x="421" y="1281" type="curve"/>
      <point x="377" y="1262"/>
      <point x="338" y="1243"/>
      <point x="294" y="1224" type="curve" smooth="yes"/>
      <point x="268" y="1211"/>
      <point x="256" y="1186"/>
      <point x="268" y="1160" type="curve" smooth="yes"/>
      <point x="281" y="1135"/>
      <point x="287" y="1116"/>
      <point x="300" y="1090" type="curve"/>
      <point x="300" y="1084"/>
      <point x="300" y="1077"/>
      <point x="294" y="1077" type="curve"/>
      <point x="281" y="1065"/>
      <point x="268" y="1058"/>
      <point x="262" y="1045" type="curve"/>
      <point x="243" y="1026"/>
      <point x="230" y="1007"/>
      <point x="211" y="988" type="curve"/>
      <point x="185" y="994"/>
      <point x="160" y="1007"/>
      <point x="141" y="1013" type="curve" smooth="yes"/>
      <point x="109" y="1026"/>
      <point x="83" y="1013"/>
      <point x="71" y="982" type="curve" smooth="yes"/>
      <point x="58" y="950"/>
      <point x="39" y="905"/>
      <point x="26" y="867" type="curve" smooth="yes"/>
      <point x="13" y="829"/>
      <point x="20" y="809"/>
      <point x="58" y="797" type="curve" smooth="yes"/>
      <point x="83" y="790"/>
      <point x="109" y="778"/>
      <point x="128" y="771" type="curve"/>
      <point x="128" y="726"/>
      <point x="134" y="688"/>
      <point x="134" y="644" type="curve" smooth="yes"/>
      <point x="134" y="637"/>
      <point x="128" y="637"/>
      <point x="128" y="631" type="curve"/>
      <point x="103" y="618"/>
      <point x="83" y="612"/>
      <point x="58" y="599" type="curve" smooth="yes"/>
      <point x="32" y="586"/>
      <point x="26" y="561"/>
      <point x="32" y="535" type="curve"/>
      <point x="51" y="490"/>
      <point x="71" y="452"/>
      <point x="90" y="408" type="curve" smooth="yes"/>
      <point x="103" y="382"/>
      <point x="128" y="369"/>
      <point x="154" y="382" type="curve" smooth="yes"/>
      <point x="179" y="395"/>
      <point x="198" y="401"/>
      <point x="224" y="414" type="curve"/>
      <point x="230" y="414"/>
      <point x="236" y="414"/>
      <point x="236" y="408" type="curve"/>
      <point x="249" y="388"/>
      <point x="268" y="376"/>
      <point x="281" y="363" type="curve" smooth="yes"/>
      <point x="294" y="350"/>
      <point x="313" y="337"/>
      <point x="326" y="325" type="curve"/>
      <point x="313" y="299"/>
      <point x="307" y="274"/>
      <point x="294" y="248" type="curve" smooth="yes"/>
      <point x="281" y="216"/>
      <point x="294" y="191"/>
      <point x="326" y="178" type="curve" smooth="yes"/>
      <point x="364" y="165"/>
      <point x="402" y="146"/>
      <point x="447" y="133" type="curve" smooth="yes"/>
      <point x="485" y="121"/>
      <point x="504" y="127"/>
      <point x="517" y="165" type="curve" smooth="yes"/>
      <point x="523" y="191"/>
      <point x="536" y="216"/>
      <point x="543" y="235" type="curve"/>
      <point x="587" y="235"/>
      <point x="626" y="242"/>
      <point x="670" y="242" type="curve" smooth="yes"/>
      <point x="677" y="242"/>
      <point x="677" y="235"/>
      <point x="683" y="235" type="curve"/>
      <point x="696" y="210"/>
      <point x="702" y="191"/>
      <point x="715" y="165" type="curve" smooth="yes"/>
      <point x="728" y="140"/>
      <point x="753" y="133"/>
      <point x="779" y="140" type="curve"/>
      <point x="823" y="159"/>
      <point x="862" y="178"/>
      <point x="906" y="197" type="curve" smooth="yes"/>
      <point x="932" y="210"/>
      <point x="944" y="235"/>
      <point x="932" y="261" type="curve" smooth="yes"/>
      <point x="919" y="286"/>
      <point x="913" y="306"/>
      <point x="900" y="331" type="curve"/>
      <point x="900" y="337"/>
      <point x="900" y="344"/>
      <point x="906" y="344" type="curve"/>
      <point x="925" y="357"/>
      <point x="938" y="376"/>
      <point x="951" y="388" type="curve" smooth="yes"/>
      <point x="964" y="401"/>
      <point x="976" y="420"/>
      <point x="989" y="433" type="curve"/>
      <point x="1015" y="427"/>
      <point x="1040" y="414"/>
      <point x="1059" y="408" type="curve" smooth="yes"/>
      <point x="1091" y="395"/>
      <point x="1117" y="408"/>
      <point x="1129" y="439" type="curve" smooth="yes"/>
      <point x="1142" y="478"/>
      <point x="1161" y="516"/>
      <point x="1174" y="561" type="curve"/>
      <point x="1187" y="593"/>
      <point x="1180" y="618"/>
    </contour>
    <contour>
      <point x="696" y="497" type="curve" smooth="yes"/>
      <point x="696" y="497" type="line" smooth="yes"/>
      <point x="574" y="446"/>
      <point x="441" y="497"/>
      <point x="383" y="618" type="curve" smooth="yes"/>
      <point x="332" y="739"/>
      <point x="383" y="873"/>
      <point x="504" y="931" type="curve" smooth="yes"/>
      <point x="626" y="982"/>
      <point x="759" y="931"/>
      <point x="817" y="809" type="curve" smooth="yes"/>
      <point x="868" y="688"/>
      <point x="817" y="554"/>
    </contour>
  </outline>
</glyph>
<glyph name="i_seti_npm" format="2">
  <advance width="1200"/>
  <unicode hex="E616"/>
  <note>
i_seti_npm
</note>
  <outline>
    <contour>
      <point x="1180" y="937" type="line"/>
      <point x="20" y="937" type="line"/>
      <point x="20" y="551" type="line"/>
      <point x="349" y="551" type="line"/>
      <point x="349" y="483" type="line"/>
      <point x="605" y="483" type="line"/>
      <point x="605" y="546" type="line"/>
      <point x="1180" y="546" type="line"/>
    </contour>
    <contour>
      <point x="339" y="869" type="line"/>
      <point x="339" y="613" type="line"/>
      <point x="276" y="613" type="line"/>
      <point x="276" y="802" type="line"/>
      <point x="213" y="802" type="line"/>
      <point x="213" y="613" type="line"/>
      <point x="83" y="613" type="line"/>
      <point x="83" y="869" type="line"/>
    </contour>
    <contour>
      <point x="658" y="613" type="curve"/>
      <point x="527" y="613" type="line"/>
      <point x="527" y="546" type="line"/>
      <point x="397" y="546" type="line"/>
      <point x="397" y="865" type="line"/>
      <point x="653" y="865" type="line"/>
      <point x="658" y="787"/>
      <point x="658" y="700"/>
    </contour>
    <contour>
      <point x="1112" y="869" type="line"/>
      <point x="1112" y="613" type="line"/>
      <point x="1049" y="613" type="line"/>
      <point x="1049" y="802" type="line"/>
      <point x="987" y="802" type="line"/>
      <point x="987" y="613" type="line"/>
      <point x="919" y="613" type="line"/>
      <point x="919" y="802" type="line"/>
      <point x="856" y="802" type="line"/>
      <point x="856" y="613" type="line"/>
      <point x="726" y="613" type="line"/>
      <point x="726" y="869" type="line"/>
    </contour>
    <contour>
      <point x="595" y="676" type="line"/>
      <point x="595" y="802" type="line"/>
      <point x="532" y="802" type="line"/>
      <point x="532" y="676" type="line"/>
    </contour>
  </outline>
</glyph>
<glyph name="i_custom_home" format="2">
  <advance width="1200"/>
  <unicode hex="E617"/>
  <note>
i_custom_home
</note>
  <outline>
    <contour>
      <point x="724" y="1276" type="curve" smooth="yes"/>
      <point x="662" y="1318"/>
      <point x="621" y="1338"/>
      <point x="600" y="1338" type="curve" smooth="yes"/>
      <point x="579" y="1338"/>
      <point x="537" y="1318"/>
      <point x="474" y="1276" type="curve" smooth="yes"/>
      <point x="412" y="1236"/>
      <point x="347" y="1191"/>
      <point x="279" y="1141" type="curve" smooth="yes"/>
      <point x="212" y="1091"/>
      <point x="153" y="1045"/>
      <point x="101" y="1004" type="curve" smooth="yes"/>
      <point x="20" y="944" type="line"/>
      <point x="24" y="82" type="line"/>
      <point x="416" y="244" type="line"/>
      <point x="418" y="677" type="line"/>
      <point x="441" y="698" type="line" smooth="yes"/>
      <point x="456" y="714"/>
      <point x="472" y="731"/>
      <point x="492" y="751" type="curve" smooth="yes"/>
      <point x="511" y="771"/>
      <point x="531" y="789"/>
      <point x="552" y="805" type="curve" smooth="yes"/>
      <point x="572" y="820"/>
      <point x="588" y="828"/>
      <point x="600" y="828" type="curve" smooth="yes"/>
      <point x="613" y="828"/>
      <point x="630" y="820"/>
      <point x="650" y="805" type="curve" smooth="yes"/>
      <point x="671" y="789"/>
      <point x="691" y="771"/>
      <point x="710" y="751" type="curve" smooth="yes"/>
      <point x="730" y="731"/>
      <point x="746" y="714"/>
      <point x="759" y="698" type="curve"/>
      <point x="782" y="677" type="line"/>
      <point x="784" y="244" type="line"/>
      <point x="1176" y="82" type="line"/>
      <point x="1180" y="944" type="line"/>
      <point x="1101" y="1004" type="line" smooth="yes"/>
      <point x="1048" y="1045"/>
      <point x="987" y="1091"/>
      <point x="919" y="1141" type="curve" smooth="yes"/>
      <point x="852" y="1191"/>
      <point x="787" y="1237"/>
    </contour>
  </outline>
</glyph>
<glyph name="i_seti_ejs" format="2">
  <advance width="1200"/>
  <unicode hex="E618"/>
  <note>
i_seti_ejs
</note>
  <outline>
    <contour>
      <point x="457" y="1188" type="line"/>
      <point x="20" y="785" type="line"/>
      <point x="20" y="635" type="line"/>
      <point x="457" y="232" type="line"/>
      <point x="457" y="423" type="line"/>
      <point x="129" y="710" type="line"/>
      <point x="457" y="997" type="line"/>
    </contour>
    <contour>
      <point x="743" y="226" type="line"/>
      <point x="1180" y="628" type="line"/>
      <point x="1180" y="792" type="line"/>
      <point x="743" y="1194" type="line"/>
      <point x="743" y="997" type="line"/>
      <point x="1078" y="710" type="line"/>
      <point x="1078" y="703" type="line"/>
      <point x="743" y="417" type="line"/>
    </contour>
  </outline>
</glyph>
<glyph name="i_seti_xml" format="2">
  <advance width="1200"/>
  <unicode hex="E619"/>
  <note>
i_seti_xml
</note>
  <outline>
    <contour>
      <point x="29" y="1290" type="curve"/>
      <point x="29" y="1208"/>
      <point x="29" y="1127"/>
      <point x="38" y="1045" type="curve"/>
      <point x="283" y="1045"/>
      <point x="509" y="964"/>
      <point x="681" y="782" type="curve" smooth="yes"/>
      <point x="853" y="601"/>
      <point x="935" y="393"/>
      <point x="944" y="139" type="curve"/>
      <point x="1180" y="139" type="line"/>
      <point x="1198" y="728"/>
      <point x="681" y="1299"/>
    </contour>
    <contour>
      <point x="573" y="130" type="curve"/>
      <point x="808" y="130" type="line"/>
      <point x="799" y="375"/>
      <point x="708" y="574"/>
      <point x="527" y="737" type="curve"/>
      <point x="382" y="855"/>
      <point x="219" y="918"/>
      <point x="29" y="918" type="curve"/>
      <point x="29" y="692" type="line" smooth="yes"/>
      <point x="29" y="683"/>
      <point x="29" y="674"/>
      <point x="47" y="674" type="curve" smooth="yes"/>
      <point x="74" y="674"/>
      <point x="92" y="674"/>
      <point x="111" y="665" type="curve"/>
      <point x="337" y="619"/>
      <point x="473" y="493"/>
      <point x="545" y="275" type="curve"/>
      <point x="554" y="230"/>
      <point x="564" y="175"/>
    </contour>
    <contour>
      <point x="346" y="293" type="curve" smooth="yes"/>
      <point x="346" y="384"/>
      <point x="274" y="456"/>
      <point x="183" y="456" type="curve" smooth="yes"/>
      <point x="92" y="456"/>
      <point x="20" y="384"/>
      <point x="20" y="293" type="curve"/>
      <point x="29" y="203"/>
      <point x="92" y="130"/>
      <point x="183" y="130" type="curve" smooth="yes"/>
      <point x="274" y="130"/>
      <point x="346" y="203"/>
    </contour>
  </outline>
</glyph>
<glyph name="i_seti_bower" format="2">
  <advance width="1200"/>
  <unicode hex="E61A"/>
  <note>
i_seti_bower
</note>
  <outline>
    <contour>
      <point x="1128" y="740" type="curve"/>
      <point x="1110" y="745"/>
      <point x="1093" y="757"/>
      <point x="1069" y="763" type="curve" smooth="yes"/>
      <point x="964" y="792"/>
      <point x="860" y="804"/>
      <point x="755" y="821" type="curve"/>
      <point x="737" y="821"/>
      <point x="720" y="827"/>
      <point x="696" y="827" type="curve"/>
      <point x="702" y="856"/>
      <point x="714" y="868"/>
      <point x="755" y="874" type="curve"/>
      <point x="761" y="868"/>
      <point x="761" y="856"/>
      <point x="766" y="850" type="curve"/>
      <point x="766" y="844"/>
      <point x="772" y="839"/>
      <point x="778" y="844" type="curve"/>
      <point x="819" y="844" type="line"/>
      <point x="889" y="856"/>
      <point x="935" y="891"/>
      <point x="964" y="961" type="curve"/>
      <point x="970" y="984"/>
      <point x="976" y="1008"/>
      <point x="982" y="1025" type="curve"/>
      <point x="988" y="1072"/>
      <point x="1005" y="1118"/>
      <point x="1040" y="1153" type="curve" smooth="yes"/>
      <point x="1052" y="1165" type="line"/>
      <point x="970" y="1188"/>
      <point x="825" y="1136"/>
      <point x="766" y="1013" type="curve"/>
      <point x="755" y="1019"/>
      <point x="737" y="1019"/>
      <point x="726" y="1025" type="curve"/>
      <point x="720" y="1025"/>
      <point x="714" y="1031"/>
      <point x="714" y="1037" type="curve"/>
      <point x="691" y="1101"/>
      <point x="650" y="1153"/>
      <point x="586" y="1194" type="curve" smooth="yes"/>
      <point x="539" y="1223"/>
      <point x="475" y="1229"/>
      <point x="423" y="1223" type="curve" smooth="yes"/>
      <point x="300" y="1206"/>
      <point x="201" y="1147"/>
      <point x="125" y="1054" type="curve" smooth="yes"/>
      <point x="50" y="961"/>
      <point x="15" y="844"/>
      <point x="21" y="728" type="curve" smooth="yes"/>
      <point x="26" y="606"/>
      <point x="67" y="489"/>
      <point x="137" y="384" type="curve" smooth="yes"/>
      <point x="160" y="349"/>
      <point x="201" y="314"/>
      <point x="230" y="285" type="curve"/>
      <point x="271" y="262"/>
      <point x="324" y="262"/>
      <point x="359" y="297" type="curve" smooth="yes"/>
      <point x="364" y="303"/>
      <point x="370" y="314"/>
      <point x="376" y="320" type="curve"/>
      <point x="376" y="314"/>
      <point x="382" y="314"/>
      <point x="382" y="308" type="curve"/>
      <point x="393" y="285"/>
      <point x="399" y="250"/>
      <point x="411" y="233" type="curve"/>
      <point x="423" y="209"/>
      <point x="463" y="192"/>
      <point x="493" y="204" type="curve"/>
      <point x="498" y="209"/>
      <point x="504" y="209"/>
      <point x="510" y="204" type="curve"/>
      <point x="533" y="192"/>
      <point x="557" y="192"/>
      <point x="580" y="204" type="curve" smooth="yes"/>
      <point x="592" y="209"/>
      <point x="597" y="221"/>
      <point x="609" y="221" type="curve"/>
      <point x="621" y="227"/>
      <point x="632" y="221"/>
      <point x="644" y="221" type="curve"/>
      <point x="673" y="227"/>
      <point x="702" y="239"/>
      <point x="702" y="279" type="curve"/>
      <point x="702" y="279"/>
      <point x="702" y="285"/>
      <point x="708" y="285" type="curve"/>
      <point x="720" y="291"/>
      <point x="731" y="303"/>
      <point x="731" y="314" type="curve"/>
      <point x="737" y="332"/>
      <point x="737" y="349"/>
      <point x="731" y="373" type="curve"/>
      <point x="714" y="402"/>
      <point x="696" y="442"/>
      <point x="673" y="472" type="curve" smooth="yes"/>
      <point x="667" y="477" type="line"/>
      <point x="685" y="472"/>
      <point x="702" y="466"/>
      <point x="726" y="460" type="curve" smooth="yes"/>
      <point x="755" y="454"/>
      <point x="784" y="454"/>
      <point x="807" y="477" type="curve"/>
      <point x="813" y="477"/>
      <point x="813" y="472"/>
      <point x="819" y="472" type="curve"/>
      <point x="865" y="442"/>
      <point x="929" y="454"/>
      <point x="964" y="495" type="curve"/>
      <point x="976" y="495" type="line"/>
      <point x="1011" y="489"/>
      <point x="1040" y="495"/>
      <point x="1069" y="518" type="curve"/>
      <point x="1081" y="530"/>
      <point x="1093" y="541"/>
      <point x="1093" y="559" type="curve" smooth="yes"/>
      <point x="1093" y="565" type="line"/>
      <point x="1151" y="571"/>
      <point x="1180" y="594"/>
      <point x="1180" y="652" type="curve"/>
      <point x="1174" y="693"/>
      <point x="1163" y="722"/>
    </contour>
    <contour>
      <point x="871" y="897" type="curve"/>
      <point x="848" y="885"/>
      <point x="825" y="879"/>
      <point x="790" y="879" type="curve"/>
      <point x="790" y="879"/>
      <point x="784" y="879"/>
      <point x="784" y="885" type="curve"/>
      <point x="778" y="897"/>
      <point x="778" y="909"/>
      <point x="772" y="920" type="curve"/>
      <point x="772" y="926"/>
      <point x="772" y="926"/>
      <point x="778" y="926" type="curve" smooth="yes"/>
      <point x="795" y="926"/>
      <point x="801" y="926"/>
      <point x="801" y="903" type="curve"/>
      <point x="813" y="920"/>
      <point x="813" y="920"/>
      <point x="830" y="914" type="curve"/>
      <point x="842" y="909"/>
      <point x="854" y="909"/>
      <point x="865" y="903" type="curve" smooth="yes"/>
      <point x="877" y="897"/>
      <point x="877" y="897"/>
    </contour>
    <contour>
      <point x="795" y="1019" type="curve"/>
      <point x="819" y="1060"/>
      <point x="854" y="1089"/>
      <point x="883" y="1112" type="curve"/>
      <point x="912" y="1130"/>
      <point x="941" y="1142"/>
      <point x="976" y="1142" type="curve"/>
      <point x="970" y="1136"/>
      <point x="964" y="1130"/>
      <point x="959" y="1118" type="curve"/>
      <point x="941" y="1095"/>
      <point x="941" y="1060"/>
      <point x="935" y="1037" type="curve" smooth="yes"/>
      <point x="929" y="1008"/>
      <point x="924" y="978"/>
      <point x="912" y="949" type="curve"/>
      <point x="912" y="938"/>
      <point x="900" y="932"/>
      <point x="900" y="926" type="curve"/>
      <point x="883" y="943"/>
      <point x="865" y="955"/>
      <point x="842" y="973" type="curve"/>
      <point x="842" y="984" type="line"/>
      <point x="865" y="1025"/>
      <point x="889" y="1072"/>
      <point x="929" y="1101" type="curve"/>
      <point x="871" y="1077"/>
      <point x="848" y="1037"/>
      <point x="819" y="984" type="curve"/>
      <point x="807" y="990"/>
      <point x="801" y="996"/>
      <point x="790" y="1002" type="curve"/>
      <point x="790" y="1008"/>
      <point x="795" y="1013"/>
    </contour>
    <contour>
      <point x="638" y="920" type="curve" smooth="yes"/>
      <point x="638" y="949"/>
      <point x="644" y="978"/>
      <point x="661" y="1002" type="curve"/>
      <point x="661" y="1008"/>
      <point x="673" y="1008"/>
      <point x="673" y="1008" type="curve"/>
      <point x="731" y="1002"/>
      <point x="778" y="984"/>
      <point x="825" y="949" type="curve"/>
      <point x="836" y="943"/>
      <point x="842" y="932"/>
      <point x="854" y="926" type="curve"/>
      <point x="842" y="932"/>
      <point x="825" y="932"/>
      <point x="813" y="938" type="curve"/>
      <point x="784" y="943"/>
      <point x="749" y="943"/>
      <point x="720" y="932" type="curve"/>
      <point x="696" y="914"/>
      <point x="667" y="914"/>
      <point x="638" y="920" type="curve"/>
      <point x="656" y="903"/>
      <point x="673" y="903"/>
      <point x="696" y="909" type="curve"/>
      <point x="714" y="909"/>
      <point x="726" y="914"/>
      <point x="743" y="920" type="curve"/>
      <point x="743" y="914"/>
      <point x="737" y="909"/>
      <point x="737" y="909" type="curve"/>
      <point x="714" y="891"/>
      <point x="679" y="879"/>
      <point x="650" y="868" type="curve"/>
      <point x="644" y="868" type="line"/>
      <point x="638" y="885"/>
      <point x="638" y="903"/>
    </contour>
    <contour>
      <point x="463" y="1060" type="curve" smooth="yes"/>
      <point x="516" y="1060"/>
      <point x="568" y="1013"/>
      <point x="568" y="955" type="curve" smooth="yes"/>
      <point x="568" y="897"/>
      <point x="522" y="850"/>
      <point x="463" y="850" type="curve" smooth="yes"/>
      <point x="405" y="850"/>
      <point x="359" y="897"/>
      <point x="359" y="955" type="curve" smooth="yes"/>
      <point x="359" y="1019"/>
      <point x="405" y="1060"/>
    </contour>
    <contour>
      <point x="731" y="705" type="curve"/>
      <point x="825" y="699"/>
      <point x="924" y="710"/>
      <point x="1011" y="716" type="curve"/>
      <point x="1011" y="722"/>
      <point x="1005" y="722"/>
      <point x="1005" y="722" type="curve"/>
      <point x="935" y="734"/>
      <point x="877" y="745"/>
      <point x="813" y="757" type="curve" smooth="yes"/>
      <point x="761" y="763"/>
      <point x="714" y="769"/>
      <point x="667" y="775" type="curve"/>
      <point x="656" y="775" type="line"/>
      <point x="644" y="763"/>
      <point x="632" y="751"/>
      <point x="621" y="734" type="curve"/>
      <point x="609" y="710"/>
      <point x="597" y="687"/>
      <point x="580" y="670" type="curve" smooth="yes"/>
      <point x="533" y="617"/>
      <point x="487" y="582"/>
      <point x="423" y="571" type="curve" smooth="yes"/>
      <point x="376" y="565"/>
      <point x="335" y="571"/>
      <point x="294" y="582" type="curve"/>
      <point x="283" y="582" type="line"/>
      <point x="242" y="553"/>
      <point x="201" y="553"/>
      <point x="160" y="559" type="curve"/>
      <point x="143" y="565"/>
      <point x="120" y="571"/>
      <point x="96" y="576" type="curve"/>
      <point x="96" y="571"/>
      <point x="102" y="571"/>
      <point x="102" y="565" type="curve"/>
      <point x="131" y="501"/>
      <point x="178" y="442"/>
      <point x="242" y="402" type="curve"/>
      <point x="312" y="349"/>
      <point x="393" y="326"/>
      <point x="475" y="332" type="curve" smooth="yes"/>
      <point x="562" y="338"/>
      <point x="632" y="402"/>
      <point x="644" y="489" type="curve"/>
      <point x="644" y="507" type="line"/>
      <point x="638" y="530"/>
      <point x="632" y="547"/>
      <point x="627" y="565" type="curve"/>
      <point x="667" y="536"/>
      <point x="731" y="547"/>
      <point x="737" y="582" type="curve"/>
      <point x="749" y="582"/>
      <point x="766" y="576"/>
      <point x="778" y="576" type="curve" smooth="yes"/>
      <point x="801" y="576"/>
      <point x="819" y="582"/>
      <point x="836" y="600" type="curve"/>
      <point x="848" y="606"/>
      <point x="854" y="623"/>
      <point x="848" y="635" type="curve"/>
      <point x="860" y="635" type="line"/>
      <point x="883" y="629"/>
      <point x="912" y="641"/>
      <point x="924" y="658" type="curve"/>
      <point x="935" y="670"/>
      <point x="929" y="675"/>
      <point x="918" y="675" type="curve"/>
      <point x="877" y="681"/>
      <point x="848" y="687"/>
      <point x="813" y="693" type="curve"/>
      <point x="790" y="693"/>
      <point x="755" y="699"/>
    </contour>
    <contour>
      <point x="463" y="897" type="curve" smooth="yes"/>
      <point x="498" y="897"/>
      <point x="527" y="920"/>
      <point x="527" y="955" type="curve" smooth="yes"/>
      <point x="527" y="990"/>
      <point x="498" y="1013"/>
      <point x="463" y="1013" type="curve" smooth="yes"/>
      <point x="428" y="1013"/>
      <point x="399" y="984"/>
      <point x="399" y="955" type="curve" smooth="yes"/>
      <point x="399" y="926"/>
      <point x="423" y="897"/>
    </contour>
    <contour>
      <point x="428" y="1002" type="curve"/>
      <point x="417" y="996"/>
      <point x="417" y="984"/>
      <point x="423" y="973" type="curve"/>
      <point x="446" y="961"/>
      <point x="475" y="961"/>
      <point x="487" y="973" type="curve" smooth="yes"/>
      <point x="498" y="984"/>
      <point x="498" y="996"/>
      <point x="487" y="1002" type="curve" smooth="yes"/>
      <point x="475" y="1008"/>
      <point x="469" y="1008"/>
      <point x="458" y="1013" type="curve"/>
      <point x="446" y="1008"/>
      <point x="434" y="1008"/>
    </contour>
  </outline>
</glyph>
<glyph name="i_seti_coffee" format="2">
  <advance width="1200"/>
  <unicode hex="E61B"/>
  <note>
i_seti_coffee
</note>
  <outline>
    <contour>
      <point x="652" y="1154" type="curve" smooth="yes"/>
      <point x="652" y="1154" type="line" smooth="yes"/>
      <point x="619" y="1148"/>
      <point x="600" y="1135"/>
      <point x="503" y="1090" type="curve" smooth="yes"/>
      <point x="452" y="1064"/>
      <point x="381" y="1058"/>
      <point x="362" y="1077" type="curve"/>
      <point x="342" y="1103"/>
      <point x="368" y="1116"/>
      <point x="426" y="1116" type="curve" smooth="yes"/>
      <point x="478" y="1116"/>
      <point x="490" y="1122"/>
      <point x="471" y="1135" type="curve" smooth="yes"/>
      <point x="432" y="1161"/>
      <point x="342" y="1141"/>
      <point x="323" y="1109" type="curve"/>
      <point x="316" y="1090"/>
      <point x="316" y="1083"/>
      <point x="329" y="1064" type="curve"/>
      <point x="362" y="1032"/>
      <point x="387" y="1019"/>
      <point x="458" y="1025" type="curve"/>
      <point x="510" y="1025"/>
      <point x="536" y="1032"/>
      <point x="587" y="1064" type="curve"/>
      <point x="664" y="1103"/>
      <point x="748" y="1122"/>
      <point x="800" y="1115" type="curve" smooth="yes"/>
      <point x="851" y="1109"/>
      <point x="864" y="1090"/>
      <point x="832" y="1070" type="curve"/>
      <point x="806" y="1051"/>
      <point x="742" y="1045"/>
      <point x="716" y="1070" type="curve"/>
      <point x="690" y="1083"/>
      <point x="658" y="1083"/>
      <point x="658" y="1057" type="curve" smooth="yes"/>
      <point x="658" y="1025"/>
      <point x="755" y="999"/>
      <point x="838" y="1019" type="curve" smooth="yes"/>
      <point x="935" y="1038"/>
      <point x="935" y="1122"/>
      <point x="838" y="1154" type="curve"/>
      <point x="800" y="1161"/>
      <point x="703" y="1167"/>
    </contour>
    <contour>
      <point x="104" y="1070" type="curve" smooth="yes"/>
      <point x="84" y="1057"/>
      <point x="72" y="1038"/>
      <point x="72" y="1032" type="curve"/>
      <point x="65" y="1006"/>
      <point x="117" y="967"/>
      <point x="194" y="941" type="curve" smooth="yes"/>
      <point x="265" y="922"/>
      <point x="291" y="916"/>
      <point x="400" y="903" type="curve" smooth="yes"/>
      <point x="471" y="896"/>
      <point x="793" y="896"/>
      <point x="858" y="903" type="curve"/>
      <point x="884" y="909"/>
      <point x="922" y="909"/>
      <point x="935" y="916" type="curve"/>
      <point x="980" y="922"/>
      <point x="1103" y="954"/>
      <point x="1128" y="974" type="curve"/>
      <point x="1167" y="993"/>
      <point x="1186" y="1025"/>
      <point x="1174" y="1045" type="curve"/>
      <point x="1154" y="1083"/>
      <point x="1109" y="1109"/>
      <point x="1122" y="1070" type="curve" smooth="yes"/>
      <point x="1135" y="1019"/>
      <point x="987" y="967"/>
      <point x="793" y="954" type="curve" smooth="yes"/>
      <point x="722" y="948"/>
      <point x="510" y="948"/>
      <point x="471" y="954" type="curve"/>
      <point x="458" y="954"/>
      <point x="413" y="961"/>
      <point x="381" y="961" type="curve" smooth="yes"/>
      <point x="271" y="967"/>
      <point x="149" y="1012"/>
      <point x="142" y="1045" type="curve"/>
      <point x="142" y="1051"/>
      <point x="142" y="1070"/>
      <point x="149" y="1077" type="curve"/>
      <point x="155" y="1096"/>
      <point x="142" y="1096"/>
    </contour>
    <contour>
      <point x="84" y="896" type="curve"/>
      <point x="84" y="871"/>
      <point x="97" y="832"/>
      <point x="104" y="800" type="curve"/>
      <point x="123" y="748" type="line"/>
      <point x="97" y="729" type="line"/>
      <point x="84" y="716"/>
      <point x="59" y="690"/>
      <point x="46" y="671" type="curve"/>
      <point x="26" y="632"/>
      <point x="20" y="619"/>
      <point x="20" y="561" type="curve" smooth="yes"/>
      <point x="20" y="484"/>
      <point x="33" y="452"/>
      <point x="97" y="407" type="curve" smooth="yes"/>
      <point x="130" y="381"/>
      <point x="142" y="381"/>
      <point x="194" y="381" type="curve" smooth="yes"/>
      <point x="271" y="381"/>
      <point x="297" y="400"/>
      <point x="239" y="407" type="curve" smooth="yes"/>
      <point x="194" y="413"/>
      <point x="130" y="471"/>
      <point x="110" y="523" type="curve" smooth="yes"/>
      <point x="91" y="568"/>
      <point x="97" y="639"/>
      <point x="117" y="671" type="curve" smooth="yes"/>
      <point x="123" y="684"/>
      <point x="136" y="697"/>
      <point x="136" y="697" type="curve"/>
      <point x="162" y="658" type="line" smooth="yes"/>
      <point x="175" y="639"/>
      <point x="213" y="581"/>
      <point x="246" y="529" type="curve"/>
      <point x="284" y="478"/>
      <point x="316" y="420"/>
      <point x="323" y="394" type="curve"/>
      <point x="362" y="291"/>
      <point x="432" y="258"/>
      <point x="626" y="258" type="curve" smooth="yes"/>
      <point x="819" y="258"/>
      <point x="896" y="297"/>
      <point x="935" y="400" type="curve"/>
      <point x="942" y="426"/>
      <point x="980" y="484"/>
      <point x="1012" y="529" type="curve" smooth="yes"/>
      <point x="1045" y="574"/>
      <point x="1090" y="639"/>
      <point x="1103" y="677" type="curve"/>
      <point x="1135" y="748"/>
      <point x="1180" y="890"/>
      <point x="1180" y="922" type="curve" smooth="yes"/>
      <point x="1180" y="941"/>
      <point x="1180" y="941"/>
      <point x="1161" y="922" type="curve" smooth="yes"/>
      <point x="1128" y="890"/>
      <point x="1019" y="858"/>
      <point x="877" y="845" type="curve" smooth="yes"/>
      <point x="761" y="832"/>
      <point x="394" y="838"/>
      <point x="304" y="858" type="curve"/>
      <point x="291" y="858"/>
      <point x="271" y="864"/>
      <point x="252" y="864" type="curve"/>
      <point x="207" y="871"/>
      <point x="110" y="916"/>
      <point x="91" y="929" type="curve"/>
      <point x="84" y="935"/>
      <point x="78" y="935"/>
    </contour>
  </outline>
</glyph>
<glyph name="i_seti_twig" format="2">
  <advance width="1200"/>
  <unicode hex="E61C"/>
  <note>
i_seti_twig
</note>
  <outline>
    <contour>
      <point x="978" y="1419" type="curve" smooth="yes"/>
      <point x="978" y="1419" type="line" smooth="yes"/>
      <point x="909" y="1428"/>
      <point x="848" y="1380"/>
      <point x="808" y="1329" type="curve"/>
      <point x="687" y="1195"/>
      <point x="638" y="1014"/>
      <point x="606" y="840" type="curve" smooth="yes"/>
      <point x="594" y="764"/>
      <point x="583" y="689"/>
      <point x="575" y="612" type="curve" smooth="yes"/>
      <point x="571" y="547"/>
      <point x="562" y="484"/>
      <point x="562" y="419" type="curve"/>
      <point x="532" y="485"/>
      <point x="488" y="557"/>
      <point x="415" y="581" type="curve"/>
      <point x="388" y="599"/>
      <point x="272" y="599"/>
      <point x="358" y="582" type="curve"/>
      <point x="459" y="544"/>
      <point x="516" y="438"/>
      <point x="530" y="335" type="curve"/>
      <point x="540" y="296"/>
      <point x="541" y="249"/>
      <point x="540" y="204" type="curve" smooth="yes"/>
      <point x="543" y="172"/>
      <point x="541" y="91"/>
      <point x="527" y="166" type="curve"/>
      <point x="514" y="165"/>
      <point x="549" y="81"/>
      <point x="489" y="95" type="curve"/>
      <point x="469" y="90"/>
      <point x="451" y="131"/>
      <point x="469" y="92" type="curve"/>
      <point x="464" y="65"/>
      <point x="542" y="51"/>
      <point x="557" y="59" type="curve"/>
      <point x="607" y="46"/>
      <point x="696" y="75"/>
      <point x="723" y="55" type="curve"/>
      <point x="757" y="44"/>
      <point x="779" y="179"/>
      <point x="748" y="102" type="curve"/>
      <point x="705" y="70"/>
      <point x="721" y="161"/>
      <point x="716" y="189" type="curve" smooth="yes"/>
      <point x="709" y="267"/>
      <point x="718" y="348"/>
      <point x="723" y="425" type="curve"/>
      <point x="732" y="476"/>
      <point x="739" y="532"/>
      <point x="756" y="584" type="curve" smooth="yes"/>
      <point x="777" y="655"/>
      <point x="810" y="724"/>
      <point x="862" y="778" type="curve"/>
      <point x="806" y="757"/>
      <point x="772" y="701"/>
      <point x="743" y="651" type="curve" smooth="yes"/>
      <point x="710" y="592"/>
      <point x="688" y="525"/>
      <point x="668" y="461" type="curve"/>
      <point x="661" y="491"/>
      <point x="669" y="536"/>
      <point x="671" y="570" type="curve" smooth="yes"/>
      <point x="675" y="649"/>
      <point x="686" y="723"/>
      <point x="699" y="802" type="curve" smooth="yes"/>
      <point x="726" y="964"/>
      <point x="770" y="1124"/>
      <point x="842" y="1273" type="curve"/>
      <point x="872" y="1325"/>
      <point x="898" y="1393"/>
      <point x="964" y="1405" type="curve"/>
      <point x="1010" y="1417"/>
      <point x="1068" y="1346"/>
      <point x="1076" y="1344" type="curve"/>
      <point x="1053" y="1379"/>
      <point x="1019" y="1410"/>
    </contour>
    <contour>
      <point x="193" y="670" type="curve" smooth="yes"/>
      <point x="193" y="670" type="line" smooth="yes"/>
      <point x="193" y="634"/>
      <point x="198" y="595"/>
      <point x="198" y="566" type="curve" smooth="yes"/>
      <point x="201" y="521"/>
      <point x="198" y="492"/>
      <point x="201" y="446" type="curve"/>
      <point x="200" y="395"/>
      <point x="206" y="351"/>
      <point x="204" y="300" type="curve" smooth="yes"/>
      <point x="201" y="270"/>
      <point x="218" y="172"/>
      <point x="188" y="244" type="curve"/>
      <point x="182" y="270"/>
      <point x="118" y="332"/>
      <point x="124" y="316" type="curve"/>
      <point x="168" y="262"/>
      <point x="182" y="192"/>
      <point x="189" y="123" type="curve"/>
      <point x="194" y="101"/>
      <point x="202" y="-12"/>
      <point x="181" y="67" type="curve"/>
      <point x="155" y="122"/>
      <point x="207" y="5"/>
      <point x="151" y="27" type="curve"/>
      <point x="128" y="58"/>
      <point x="145" y="28"/>
      <point x="124" y="18" type="curve"/>
      <point x="182" y="-10"/>
      <point x="246" y="1"/>
      <point x="310" y="9" type="curve"/>
      <point x="338" y="-2"/>
      <point x="337" y="114"/>
      <point x="324" y="48" type="curve"/>
      <point x="303" y="-6"/>
      <point x="265" y="55"/>
      <point x="283" y="91" type="curve"/>
      <point x="285" y="135"/>
      <point x="299" y="207"/>
      <point x="355" y="203" type="curve"/>
      <point x="359" y="222"/>
      <point x="276" y="199"/>
      <point x="269" y="184" type="curve"/>
      <point x="261" y="266"/>
      <point x="251" y="355"/>
      <point x="237" y="440" type="curve" smooth="yes"/>
      <point x="224" y="517"/>
      <point x="213" y="596"/>
    </contour>
  </outline>
</glyph>
<glyph name="i_custom_cpp" format="2">
  <advance width="1200"/>
  <unicode hex="E61D"/>
  <note>
i_custom_cpp
</note>
  <outline>
    <contour>
      <point x="606" y="1361" type="curve" smooth="yes"/>
      <point x="606" y="1361" type="line" smooth="yes"/>
      <point x="547" y="1362"/>
      <point x="503" y="1314"/>
      <point x="452" y="1291" type="curve"/>
      <point x="321" y="1215"/>
      <point x="189" y="1142"/>
      <point x="59" y="1065" type="curve"/>
      <point x="11" y="1028"/>
      <point x="21" y="965"/>
      <point x="20" y="912" type="curve" smooth="yes"/>
      <point x="21" y="749"/>
      <point x="19" y="585"/>
      <point x="21" y="422" type="curve"/>
      <point x="30" y="358"/>
      <point x="94" y="332"/>
      <point x="144" y="304" type="curve" smooth="yes"/>
      <point x="285" y="224"/>
      <point x="425" y="142"/>
      <point x="567" y="64" type="curve"/>
      <point x="636" y="42"/>
      <point x="692" y="101"/>
      <point x="750" y="128" type="curve"/>
      <point x="879" y="205"/>
      <point x="1011" y="276"/>
      <point x="1139" y="353" type="curve"/>
      <point x="1190" y="392"/>
      <point x="1179" y="458"/>
      <point x="1180" y="514" type="curve" smooth="yes"/>
      <point x="1179" y="675"/>
      <point x="1181" y="836"/>
      <point x="1179" y="997" type="curve"/>
      <point x="1165" y="1077"/>
      <point x="1076" y="1097"/>
      <point x="1019" y="1137" type="curve"/>
      <point x="890" y="1209"/>
      <point x="764" y="1286"/>
      <point x="635" y="1356" type="curve"/>
      <point x="625" y="1359"/>
      <point x="616" y="1360"/>
    </contour>
    <contour>
      <point x="621" y="1095" type="curve" smooth="yes"/>
      <point x="749" y="1089"/>
      <point x="871" y="1014"/>
      <point x="934" y="903" type="curve"/>
      <point x="879" y="876"/>
      <point x="814" y="818"/>
      <point x="763" y="815" type="curve"/>
      <point x="708" y="899"/>
      <point x="587" y="930"/>
      <point x="502" y="874" type="curve"/>
      <point x="406" y="822"/>
      <point x="375" y="681"/>
      <point x="445" y="595" type="curve"/>
      <point x="511" y="501"/>
      <point x="665" y="491"/>
      <point x="741" y="579" type="curve"/>
      <point x="776" y="652"/>
      <point x="847" y="548"/>
      <point x="901" y="536" type="curve"/>
      <point x="973" y="508"/>
      <point x="868" y="436"/>
      <point x="836" y="405" type="curve"/>
      <point x="686" y="285"/>
      <point x="447" y="301"/>
      <point x="318" y="445" type="curve" smooth="yes"/>
      <point x="190" y="578"/>
      <point x="177" y="804"/>
      <point x="295" y="947" type="curve" smooth="yes"/>
      <point x="371" y="1046"/>
      <point x="497" y="1101"/>
    </contour>
    <contour>
      <point x="822" y="743" type="line"/>
      <point x="822" y="807" type="line"/>
      <point x="886" y="807" type="line"/>
      <point x="886" y="743" type="line"/>
      <point x="952" y="743" type="line"/>
      <point x="952" y="677" type="line"/>
      <point x="886" y="677" type="line"/>
      <point x="886" y="613" type="line"/>
      <point x="822" y="613" type="line"/>
      <point x="822" y="677" type="line"/>
      <point x="756" y="677" type="line"/>
      <point x="756" y="743" type="line"/>
    </contour>
    <contour>
      <point x="1040" y="743" type="line"/>
      <point x="1040" y="807" type="line"/>
      <point x="1104" y="807" type="line"/>
      <point x="1104" y="743" type="line"/>
      <point x="1168" y="743" type="line"/>
      <point x="1168" y="677" type="line"/>
      <point x="1104" y="677" type="line"/>
      <point x="1104" y="613" type="line"/>
      <point x="1040" y="613" type="line"/>
      <point x="1040" y="677" type="line"/>
      <point x="977" y="677" type="line"/>
      <point x="977" y="743" type="line"/>
    </contour>
  </outline>
</glyph>
<glyph name="i_seti_haskell" format="2">
  <advance width="1200"/>
  <unicode hex="E61F"/>
  <note>
i_seti_haskell
</note>
  <outline>
    <contour>
      <point x="496" y="1122" type="curve"/>
      <point x="293" y="1122" type="line"/>
      <point x="293" y="1116" type="line"/>
      <point x="380" y="983"/>
      <point x="472" y="849"/>
      <point x="559" y="716" type="curve"/>
      <point x="559" y="710" type="line"/>
      <point x="472" y="577"/>
      <point x="380" y="443"/>
      <point x="293" y="310" type="curve"/>
      <point x="293" y="304" type="line"/>
      <point x="496" y="304" type="line"/>
      <point x="501" y="310" type="line"/>
      <point x="554" y="391"/>
      <point x="612" y="472"/>
      <point x="664" y="553" type="curve"/>
      <point x="670" y="559"/>
      <point x="664" y="559"/>
      <point x="670" y="553" type="curve"/>
      <point x="722" y="472"/>
      <point x="780" y="391"/>
      <point x="832" y="310" type="curve"/>
      <point x="838" y="304" type="line"/>
      <point x="1041" y="304" type="line"/>
      <point x="931" y="478"/>
      <point x="815" y="646"/>
      <point x="699" y="820" type="curve" smooth="yes"/>
      <point x="629" y="919"/>
      <point x="565" y="1023"/>
    </contour>
    <contour>
      <point x="223" y="1116" type="line"/>
      <point x="20" y="1116" type="line"/>
      <point x="113" y="983"/>
      <point x="200" y="849"/>
      <point x="287" y="710" type="curve"/>
      <point x="287" y="704" type="line"/>
      <point x="223" y="606"/>
      <point x="159" y="513"/>
      <point x="95" y="414" type="curve"/>
      <point x="66" y="379"/>
      <point x="43" y="339"/>
      <point x="20" y="304" type="curve"/>
      <point x="20" y="298" type="line"/>
      <point x="223" y="298" type="line"/>
      <point x="316" y="437"/>
      <point x="409" y="571"/>
      <point x="496" y="704" type="curve"/>
      <point x="496" y="710" type="line"/>
      <point x="455" y="780"/>
      <point x="409" y="843"/>
      <point x="362" y="913" type="curve" smooth="yes"/>
      <point x="316" y="977"/>
      <point x="275" y="1046"/>
      <point x="229" y="1110" type="curve"/>
    </contour>
    <contour>
      <point x="1180" y="884" type="line"/>
      <point x="728" y="884" type="line"/>
      <point x="728" y="878" type="line"/>
      <point x="757" y="832"/>
      <point x="786" y="791"/>
      <point x="815" y="745" type="curve"/>
      <point x="1180" y="745" type="line"/>
    </contour>
    <contour>
      <point x="1180" y="675" type="line"/>
      <point x="861" y="675" type="line"/>
      <point x="861" y="669" type="line"/>
      <point x="890" y="623"/>
      <point x="919" y="582"/>
      <point x="948" y="536" type="curve"/>
      <point x="1180" y="536" type="line"/>
    </contour>
  </outline>
</glyph>
<glyph name="i_seti_lua" format="2">
  <advance width="1200"/>
  <unicode hex="E620"/>
  <note>
i_seti_lua
</note>
  <outline>
    <contour>
      <point x="525" y="130" type="curve" smooth="yes"/>
      <point x="803" y="130"/>
      <point x="1029" y="356"/>
      <point x="1029" y="635" type="curve" smooth="yes"/>
      <point x="1029" y="913"/>
      <point x="809" y="1133"/>
      <point x="536" y="1139" type="curve" smooth="yes"/>
      <point x="246" y="1145"/>
      <point x="20" y="913"/>
      <point x="20" y="635" type="curve" smooth="yes"/>
      <point x="20" y="356"/>
      <point x="246" y="130"/>
    </contour>
    <contour>
      <point x="733" y="994" type="curve" smooth="yes"/>
      <point x="820" y="994"/>
      <point x="884" y="925"/>
      <point x="884" y="843" type="curve" smooth="yes"/>
      <point x="884" y="756"/>
      <point x="815" y="693"/>
      <point x="733" y="693" type="curve" smooth="yes"/>
      <point x="646" y="693"/>
      <point x="583" y="762"/>
      <point x="583" y="843" type="curve" smooth="yes"/>
      <point x="583" y="925"/>
      <point x="652" y="994"/>
    </contour>
    <contour>
      <point x="1029" y="994" type="curve" smooth="yes"/>
      <point x="1110" y="994"/>
      <point x="1180" y="1058"/>
      <point x="1180" y="1139" type="curve" smooth="yes"/>
      <point x="1180" y="1220"/>
      <point x="1116" y="1290"/>
      <point x="1035" y="1290" type="curve" smooth="yes"/>
      <point x="948" y="1290"/>
      <point x="884" y="1226"/>
      <point x="884" y="1145" type="curve"/>
      <point x="878" y="1058"/>
      <point x="948" y="994"/>
    </contour>
  </outline>
</glyph>
<glyph name="i_indent_line" format="2">
  <advance width="1200"/>
  <unicode hex="E621"/>
  <note>
i_indent_line
</note>
  <outline>
    <contour>
      <point x="552" y="48" type="curve" smooth="yes"/>
      <point x="550" y="0"/>
      <point x="615" y="-18"/>
      <point x="640" y="22" type="curve" smooth="yes"/>
      <point x="686" y="90"/>
      <point x="550" y="128"/>
    </contour>
    <contour>
      <point x="552" y="427" type="curve" smooth="yes"/>
      <point x="549" y="379"/>
      <point x="615" y="362"/>
      <point x="640" y="401" type="curve" smooth="yes"/>
      <point x="685" y="468"/>
      <point x="552" y="508"/>
    </contour>
    <contour>
      <point x="566" y="204" type="curve"/>
      <point x="596" y="167"/>
      <point x="659" y="201"/>
      <point x="647" y="246" type="curve" smooth="yes"/>
      <point x="633" y="327"/>
      <point x="508" y="261"/>
    </contour>
    <contour>
      <point x="552" y="805" type="curve" smooth="yes"/>
      <point x="550" y="758"/>
      <point x="616" y="739"/>
      <point x="640" y="779" type="curve" smooth="yes"/>
      <point x="686" y="847"/>
      <point x="550" y="886"/>
    </contour>
    <contour>
      <point x="552" y="616" type="curve" smooth="yes"/>
      <point x="549" y="570"/>
      <point x="616" y="550"/>
      <point x="640" y="588" type="curve" smooth="yes"/>
      <point x="685" y="657"/>
      <point x="554" y="699"/>
    </contour>
    <contour>
      <point x="552" y="1185" type="curve" smooth="yes"/>
      <point x="549" y="1137"/>
      <point x="616" y="1119"/>
      <point x="640" y="1158" type="curve" smooth="yes"/>
      <point x="685" y="1226"/>
      <point x="552" y="1266"/>
    </contour>
    <contour>
      <point x="566" y="960" type="curve" smooth="yes"/>
      <point x="597" y="926"/>
      <point x="659" y="959"/>
      <point x="647" y="1004" type="curve" smooth="yes"/>
      <point x="632" y="1085"/>
      <point x="507" y="1018"/>
    </contour>
    <contour>
      <point x="566" y="1340" type="curve" smooth="yes"/>
      <point x="597" y="1306"/>
      <point x="659" y="1337"/>
      <point x="647" y="1384" type="curve" smooth="yes"/>
      <point x="630" y="1462"/>
      <point x="508" y="1398"/>
    </contour>
  </outline>
</glyph>
<glyph name="i_seti_karma" format="2">
  <advance width="1200"/>
  <unicode hex="E622"/>
  <note>
i_seti_karma
</note>
  <outline>
    <contour>
      <point x="420" y="1412" type="line"/>
      <point x="29" y="1412" type="line"/>
      <point x="29" y="1020" type="line"/>
      <point x="298" y="0" type="line"/>
      <point x="420" y="0" type="line"/>
      <point x="420" y="408" type="line"/>
      <point x="486" y="408" type="line"/>
      <point x="763" y="0" type="line"/>
      <point x="1171" y="0" type="line"/>
      <point x="690" y="726" type="line"/>
      <point x="690" y="767" type="line"/>
      <point x="1139" y="1420" type="line"/>
      <point x="706" y="1420" type="line"/>
      <point x="486" y="1061" type="line"/>
      <point x="420" y="1061" type="line"/>
    </contour>
  </outline>
</glyph>
<glyph name="i_seti_favicon" format="2">
  <advance width="1200"/>
  <unicode hex="E623"/>
  <note>
i_seti_favicon
</note>
  <outline>
    <contour>
      <point x="780" y="896" type="line"/>
      <point x="600" y="1261" type="line"/>
      <point x="420" y="896" type="line"/>
      <point x="20" y="838" type="line"/>
      <point x="310" y="559" type="line"/>
      <point x="240" y="159" type="line"/>
      <point x="600" y="345" type="line"/>
      <point x="960" y="159" type="line"/>
      <point x="890" y="559" type="line"/>
      <point x="1180" y="838" type="line"/>
    </contour>
  </outline>
</glyph>
<glyph name="i_seti_julia" format="2">
  <advance width="1200"/>
  <unicode hex="E624"/>
  <note>
i_seti_julia
</note>
  <outline>
    <contour>
      <point x="600" y="1263" type="curve" smooth="yes"/>
      <point x="455" y="1263"/>
      <point x="337" y="1145"/>
      <point x="337" y="1000" type="curve" smooth="yes"/>
      <point x="337" y="855"/>
      <point x="455" y="737"/>
      <point x="600" y="737" type="curve" smooth="yes"/>
      <point x="745" y="737"/>
      <point x="863" y="855"/>
      <point x="863" y="1000" type="curve" smooth="yes"/>
      <point x="863" y="1145"/>
      <point x="745" y="1263"/>
    </contour>
    <contour>
      <point x="283" y="683" type="curve" smooth="yes"/>
      <point x="138" y="683"/>
      <point x="20" y="565"/>
      <point x="20" y="420" type="curve" smooth="yes"/>
      <point x="20" y="275"/>
      <point x="138" y="157"/>
      <point x="283" y="157" type="curve" smooth="yes"/>
      <point x="428" y="157"/>
      <point x="546" y="275"/>
      <point x="546" y="420" type="curve" smooth="yes"/>
      <point x="546" y="565"/>
      <point x="428" y="683"/>
    </contour>
    <contour>
      <point x="917" y="683" type="curve" smooth="yes"/>
      <point x="772" y="683"/>
      <point x="654" y="565"/>
      <point x="654" y="420" type="curve" smooth="yes"/>
      <point x="654" y="275"/>
      <point x="772" y="157"/>
      <point x="917" y="157" type="curve" smooth="yes"/>
      <point x="1062" y="157"/>
      <point x="1180" y="275"/>
      <point x="1180" y="420" type="curve" smooth="yes"/>
      <point x="1180" y="565"/>
      <point x="1062" y="683"/>
    </contour>
  </outline>
</glyph>
<glyph name="i_seti_react" format="2">
  <advance width="1200"/>
  <unicode hex="E625"/>
  <note>
i_seti_react
</note>
  <outline>
    <contour>
      <point x="837" y="1228" type="curve" smooth="yes"/>
      <point x="837" y="1228" type="line" smooth="yes"/>
      <point x="743" y="1223"/>
      <point x="666" y="1160"/>
      <point x="600" y="1099" type="curve"/>
      <point x="533" y="1161"/>
      <point x="452" y="1226"/>
      <point x="355" y="1226" type="curve" smooth="yes"/>
      <point x="288" y="1226"/>
      <point x="251" y="1155"/>
      <point x="247" y="1096" type="curve"/>
      <point x="230" y="1033"/>
      <point x="269" y="948"/>
      <point x="253" y="901" type="curve"/>
      <point x="168" y="873"/>
      <point x="70" y="835"/>
      <point x="28" y="750" type="curve" smooth="yes"/>
      <point x="-1" y="682"/>
      <point x="55" y="616"/>
      <point x="109" y="582" type="curve"/>
      <point x="150" y="543"/>
      <point x="233" y="536"/>
      <point x="261" y="502" type="curve"/>
      <point x="243" y="414"/>
      <point x="227" y="311"/>
      <point x="280" y="232" type="curve" smooth="yes"/>
      <point x="323" y="173"/>
      <point x="408" y="190"/>
      <point x="465" y="219" type="curve"/>
      <point x="519" y="235"/>
      <point x="567" y="304"/>
      <point x="610" y="311" type="curve"/>
      <point x="676" y="252"/>
      <point x="757" y="187"/>
      <point x="852" y="193" type="curve" smooth="yes"/>
      <point x="925" y="201"/>
      <point x="953" y="283"/>
      <point x="956" y="347" type="curve"/>
      <point x="970" y="402"/>
      <point x="933" y="478"/>
      <point x="950" y="518" type="curve"/>
      <point x="1034" y="547"/>
      <point x="1128" y="586"/>
      <point x="1171" y="670" type="curve" smooth="yes"/>
      <point x="1202" y="735"/>
      <point x="1147" y="801"/>
      <point x="1094" y="834" type="curve"/>
      <point x="1050" y="870"/>
      <point x="977" y="883"/>
      <point x="938" y="910" type="curve"/>
      <point x="957" y="1000"/>
      <point x="972" y="1104"/>
      <point x="920" y="1186" type="curve" smooth="yes"/>
      <point x="901" y="1213"/>
      <point x="869" y="1228"/>
    </contour>
    <contour>
      <point x="835" y="1178" type="curve" smooth="yes"/>
      <point x="891" y="1179"/>
      <point x="903" y="1111"/>
      <point x="905" y="1067" type="curve" smooth="yes"/>
      <point x="904" y="1020"/>
      <point x="908" y="945"/>
      <point x="879" y="918" type="curve"/>
      <point x="824" y="942"/>
      <point x="740" y="913"/>
      <point x="709" y="974" type="curve" smooth="yes"/>
      <point x="686" y="1019"/>
      <point x="598" y="1064"/>
      <point x="674" y="1099" type="curve"/>
      <point x="721" y="1136"/>
      <point x="774" y="1174"/>
    </contour>
    <contour>
      <point x="362" y="1177" type="curve" smooth="yes"/>
      <point x="362" y="1177" type="line" smooth="yes"/>
      <point x="443" y="1170"/>
      <point x="509" y="1116"/>
      <point x="566" y="1063" type="curve"/>
      <point x="517" y="1028"/>
      <point x="499" y="944"/>
      <point x="437" y="938" type="curve"/>
      <point x="387" y="944"/>
      <point x="297" y="881"/>
      <point x="302" y="963" type="curve"/>
      <point x="293" y="1027"/>
      <point x="283" y="1102"/>
      <point x="321" y="1159" type="curve" smooth="yes"/>
      <point x="331" y="1172"/>
      <point x="347" y="1177"/>
    </contour>
    <contour>
      <point x="600" y="1028" type="curve"/>
      <point x="618" y="1004"/>
      <point x="668" y="960"/>
      <point x="660" y="946" type="curve"/>
      <point x="622" y="951"/>
      <point x="555" y="939"/>
      <point x="536" y="951" type="curve"/>
      <point x="556" y="977"/>
      <point x="578" y="1003"/>
    </contour>
    <contour>
      <point x="600" y="897" type="curve"/>
      <point x="638" y="890"/>
      <point x="693" y="911"/>
      <point x="717" y="877" type="curve" smooth="yes"/>
      <point x="752" y="823"/>
      <point x="783" y="767"/>
      <point x="812" y="710" type="curve"/>
      <point x="781" y="646"/>
      <point x="745" y="585"/>
      <point x="706" y="526" type="curve"/>
      <point x="636" y="521"/>
      <point x="565" y="521"/>
      <point x="495" y="525" type="curve"/>
      <point x="455" y="584"/>
      <point x="419" y="646"/>
      <point x="389" y="709" type="curve"/>
      <point x="419" y="773"/>
      <point x="455" y="835"/>
      <point x="494" y="893" type="curve"/>
      <point x="529" y="896"/>
      <point x="565" y="897"/>
    </contour>
    <contour>
      <point x="431" y="887" type="curve"/>
      <point x="405" y="855"/>
      <point x="380" y="788"/>
      <point x="360" y="774" type="curve"/>
      <point x="356" y="806"/>
      <point x="299" y="871"/>
      <point x="351" y="874" type="curve"/>
      <point x="377" y="879"/>
      <point x="404" y="883"/>
    </contour>
    <contour>
      <point x="769" y="887" type="curve"/>
      <point x="799" y="874"/>
      <point x="880" y="889"/>
      <point x="869" y="850" type="curve"/>
      <point x="856" y="824"/>
      <point x="842" y="733"/>
      <point x="822" y="798" type="curve"/>
      <point x="805" y="828"/>
      <point x="788" y="858"/>
    </contour>
    <contour>
      <point x="277" y="856" type="curve"/>
      <point x="284" y="796"/>
      <point x="347" y="738"/>
      <point x="321" y="681" type="curve"/>
      <point x="296" y="649"/>
      <point x="298" y="568"/>
      <point x="262" y="565" type="curve"/>
      <point x="190" y="590"/>
      <point x="107" y="622"/>
      <point x="72" y="695" type="curve"/>
      <point x="60" y="750"/>
      <point x="119" y="785"/>
      <point x="159" y="809" type="curve" smooth="yes"/>
      <point x="196" y="830"/>
      <point x="237" y="845"/>
    </contour>
    <contour>
      <point x="923" y="856" type="curve"/>
      <point x="997" y="832"/>
      <point x="1079" y="803"/>
      <point x="1124" y="736" type="curve"/>
      <point x="1149" y="681"/>
      <point x="1086" y="639"/>
      <point x="1047" y="614" type="curve"/>
      <point x="1010" y="598"/>
      <point x="954" y="558"/>
      <point x="923" y="572" type="curve"/>
      <point x="915" y="632"/>
      <point x="847" y="690"/>
      <point x="883" y="748" type="curve"/>
      <point x="898" y="783"/>
      <point x="912" y="819"/>
    </contour>
    <contour>
      <point x="600" y="815" type="curve"/>
      <point x="524" y="818"/>
      <point x="470" y="726"/>
      <point x="509" y="661" type="curve"/>
      <point x="541" y="594"/>
      <point x="647" y="588"/>
      <point x="686" y="653" type="curve"/>
      <point x="733" y="718"/>
      <point x="681" y="817"/>
    </contour>
    <contour>
      <point x="838" y="653" type="curve"/>
      <point x="843" y="621"/>
      <point x="899" y="557"/>
      <point x="858" y="546" type="curve"/>
      <point x="829" y="545"/>
      <point x="741" y="510"/>
      <point x="787" y="561" type="curve"/>
      <point x="805" y="591"/>
      <point x="822" y="622"/>
    </contour>
    <contour>
      <point x="362" y="651" type="curve"/>
      <point x="378" y="612"/>
      <point x="424" y="557"/>
      <point x="425" y="532" type="curve"/>
      <point x="396" y="544"/>
      <point x="309" y="526"/>
      <point x="333" y="573" type="curve"/>
      <point x="342" y="600"/>
      <point x="352" y="625"/>
    </contour>
    <contour>
      <point x="891" y="502" type="curve"/>
      <point x="908" y="426"/>
      <point x="922" y="338"/>
      <point x="883" y="266" type="curve"/>
      <point x="848" y="219"/>
      <point x="782" y="250"/>
      <point x="742" y="273" type="curve"/>
      <point x="709" y="297"/>
      <point x="647" y="327"/>
      <point x="643" y="361" type="curve"/>
      <point x="691" y="398"/>
      <point x="706" y="486"/>
      <point x="775" y="483" type="curve"/>
      <point x="814" y="487"/>
      <point x="853" y="494"/>
    </contour>
    <contour>
      <point x="311" y="500" type="curve"/>
      <point x="367" y="476"/>
      <point x="449" y="503"/>
      <point x="486" y="452" type="curve"/>
      <point x="501" y="415"/>
      <point x="572" y="377"/>
      <point x="556" y="344" type="curve"/>
      <point x="499" y="294"/>
      <point x="430" y="237"/>
      <point x="349" y="244" type="curve"/>
      <point x="295" y="260"/>
      <point x="295" y="330"/>
      <point x="294" y="376" type="curve" smooth="yes"/>
      <point x="295" y="418"/>
      <point x="301" y="460"/>
    </contour>
    <contour>
      <point x="670" y="474" type="curve"/>
      <point x="645" y="454"/>
      <point x="618" y="374"/>
      <point x="589" y="404" type="curve"/>
      <point x="573" y="429"/>
      <point x="500" y="487"/>
      <point x="566" y="473" type="curve"/>
      <point x="600" y="472"/>
      <point x="635" y="472"/>
    </contour>
  </outline>
</glyph>
<glyph name="i_custom_go" format="2">
  <advance width="1200"/>
  <unicode hex="E626"/>
  <note>
i_custom_go
</note>
  <outline>
    <contour>
      <point x="601" y="1420" type="curve" smooth="yes"/>
      <point x="601" y="1420" type="line" smooth="yes"/>
      <point x="487" y="1414"/>
      <point x="367" y="1401"/>
      <point x="271" y="1333" type="curve"/>
      <point x="214" y="1344"/>
      <point x="120" y="1354"/>
      <point x="97" y="1278" type="curve"/>
      <point x="70" y="1213"/>
      <point x="129" y="1166"/>
      <point x="165" y="1134" type="curve"/>
      <point x="161" y="1076"/>
      <point x="146" y="1018"/>
      <point x="153" y="959" type="curve"/>
      <point x="150" y="880"/>
      <point x="168" y="801"/>
      <point x="175" y="722" type="curve"/>
      <point x="130" y="719"/>
      <point x="44" y="682"/>
      <point x="95" y="630" type="curve"/>
      <point x="115" y="582"/>
      <point x="175" y="677"/>
      <point x="168" y="623" type="curve"/>
      <point x="168" y="504"/>
      <point x="166" y="386"/>
      <point x="169" y="268" type="curve"/>
      <point x="179" y="209"/>
      <point x="215" y="157"/>
      <point x="260" y="119" type="curve"/>
      <point x="228" y="97"/>
      <point x="172" y="54"/>
      <point x="213" y="16" type="curve" smooth="yes"/>
      <point x="261" y="-32"/>
      <point x="303" y="42"/>
      <point x="347" y="58" type="curve"/>
      <point x="433" y="28"/>
      <point x="523" y="8"/>
      <point x="614" y="17" type="curve" smooth="yes"/>
      <point x="700" y="22"/>
      <point x="785" y="38"/>
      <point x="864" y="73" type="curve"/>
      <point x="904" y="48"/>
      <point x="953" y="-35"/>
      <point x="995" y="36" type="curve"/>
      <point x="1012" y="79"/>
      <point x="960" y="110"/>
      <point x="942" y="134" type="curve"/>
      <point x="989" y="188"/>
      <point x="1016" y="255"/>
      <point x="1029" y="324" type="curve" smooth="yes"/>
      <point x="1050" y="433"/>
      <point x="1040" y="545"/>
      <point x="1036" y="654" type="curve"/>
      <point x="1080" y="600"/>
      <point x="1161" y="677"/>
      <point x="1098" y="715" type="curve"/>
      <point x="1056" y="726"/>
      <point x="1018" y="735"/>
      <point x="1031" y="787" type="curve"/>
      <point x="1026" y="914"/>
      <point x="1035" y="1044"/>
      <point x="1003" y="1168" type="curve"/>
      <point x="1058" y="1186"/>
      <point x="1093" y="1252"/>
      <point x="1065" y="1305" type="curve" smooth="yes"/>
      <point x="1038" y="1366"/>
      <point x="958" y="1375"/>
      <point x="903" y="1349" type="curve"/>
      <point x="870" y="1357"/>
      <point x="838" y="1388"/>
      <point x="801" y="1395" type="curve"/>
      <point x="738" y="1420"/>
      <point x="668" y="1417"/>
    </contour>
    <contour>
      <point x="620" y="1404" type="curve" smooth="yes"/>
      <point x="743" y="1409"/>
      <point x="888" y="1373"/>
      <point x="950" y="1255" type="curve" smooth="yes"/>
      <point x="1029" y="1120"/>
      <point x="1010" y="958"/>
      <point x="1017" y="809" type="curve"/>
      <point x="1017" y="679"/>
      <point x="1028" y="550"/>
      <point x="1027" y="421" type="curve"/>
      <point x="1018" y="316"/>
      <point x="996" y="201"/>
      <point x="912" y="129" type="curve"/>
      <point x="865" y="102"/>
      <point x="821" y="62"/>
      <point x="764" y="54" type="curve" smooth="yes"/>
      <point x="635" y="28"/>
      <point x="494" y="18"/>
      <point x="369" y="68" type="curve"/>
      <point x="324" y="117"/>
      <point x="251" y="121"/>
      <point x="220" y="185" type="curve"/>
      <point x="162" y="268"/>
      <point x="181" y="374"/>
      <point x="179" y="469" type="curve" smooth="yes"/>
      <point x="180" y="565"/>
      <point x="187" y="662"/>
      <point x="185" y="759" type="curve"/>
      <point x="162" y="922"/>
      <point x="147" y="1098"/>
      <point x="226" y="1249" type="curve" smooth="yes"/>
      <point x="286" y="1358"/>
      <point x="418" y="1394"/>
      <point x="535" y="1400" type="curve" smooth="yes"/>
      <point x="563" y="1402"/>
      <point x="591" y="1404"/>
    </contour>
    <contour>
      <point x="739" y="1350" type="curve" smooth="yes"/>
      <point x="648" y="1348"/>
      <point x="579" y="1234"/>
      <point x="631" y="1156" type="curve"/>
      <point x="660" y="1098"/>
      <point x="727" y="1075"/>
      <point x="788" y="1092" type="curve"/>
      <point x="848" y="1103"/>
      <point x="888" y="1161"/>
      <point x="883" y="1221" type="curve"/>
      <point x="885" y="1297"/>
      <point x="810" y="1350"/>
    </contour>
    <contour>
      <point x="958" y="1348" type="curve"/>
      <point x="1029" y="1361"/>
      <point x="1088" y="1278"/>
      <point x="1046" y="1217" type="curve" smooth="yes"/>
      <point x="1018" y="1172"/>
      <point x="988" y="1181"/>
      <point x="982" y="1229" type="curve"/>
      <point x="1006" y="1260"/>
      <point x="996" y="1306"/>
      <point x="945" y="1293" type="curve"/>
      <point x="918" y="1324"/>
      <point x="898" y="1345"/>
    </contour>
    <contour>
      <point x="759" y="1340" type="curve" smooth="yes"/>
      <point x="852" y="1336"/>
      <point x="916" y="1210"/>
      <point x="849" y="1138" type="curve" smooth="yes"/>
      <point x="787" y="1065"/>
      <point x="654" y="1090"/>
      <point x="625" y="1182" type="curve" smooth="yes"/>
      <point x="596" y="1266"/>
      <point x="675" y="1347"/>
    </contour>
    <contour>
      <point x="417" y="1333" type="curve" smooth="yes"/>
      <point x="343" y="1337"/>
      <point x="271" y="1269"/>
      <point x="284" y="1194" type="curve"/>
      <point x="283" y="1089"/>
      <point x="427" y="1036"/>
      <point x="502" y="1102" type="curve" smooth="yes"/>
      <point x="555" y="1142"/>
      <point x="571" y="1224"/>
      <point x="529" y="1277" type="curve"/>
      <point x="504" y="1313"/>
      <point x="460" y="1333"/>
    </contour>
    <contour>
      <point x="196" y="1328" type="curve"/>
      <point x="256" y="1339"/>
      <point x="257" y="1290"/>
      <point x="210" y="1269" type="curve"/>
      <point x="157" y="1278"/>
      <point x="173" y="1228"/>
      <point x="187" y="1204" type="curve"/>
      <point x="184" y="1134"/>
      <point x="106" y="1179"/>
      <point x="106" y="1229" type="curve"/>
      <point x="97" y="1283"/>
      <point x="143" y="1328"/>
    </contour>
    <contour>
      <point x="422" y="1324" type="curve" smooth="yes"/>
      <point x="493" y="1327"/>
      <point x="557" y="1262"/>
      <point x="545" y="1190" type="curve"/>
      <point x="538" y="1093"/>
      <point x="407" y="1048"/>
      <point x="335" y="1108" type="curve"/>
      <point x="264" y="1158"/>
      <point x="279" y="1284"/>
      <point x="363" y="1314" type="curve"/>
      <point x="381" y="1325"/>
      <point x="402" y="1324"/>
    </contour>
    <contour>
      <point x="682" y="1251" type="curve" smooth="yes"/>
      <point x="592" y="1253"/>
      <point x="655" y="1117"/>
      <point x="714" y="1182" type="curve"/>
      <point x="734" y="1208"/>
      <point x="718" y="1250"/>
    </contour>
    <contour>
      <point x="335" y="1241" type="curve"/>
      <point x="232" y="1195"/>
      <point x="392" y="1100"/>
      <point x="390" y="1205" type="curve"/>
      <point x="387" y="1230"/>
      <point x="357" y="1242"/>
    </contour>
    <contour>
      <point x="584" y="1128" type="curve"/>
      <point x="534" y="1118"/>
      <point x="490" y="1068"/>
      <point x="482" y="1019" type="curve"/>
      <point x="492" y="981"/>
      <point x="555" y="1008"/>
      <point x="530" y="958" type="curve"/>
      <point x="514" y="905"/>
      <point x="570" y="896"/>
      <point x="594" y="921" type="curve"/>
      <point x="638" y="873"/>
      <point x="664" y="943"/>
      <point x="650" y="982" type="curve"/>
      <point x="655" y="1001"/>
      <point x="721" y="995"/>
      <point x="698" y="1041" type="curve"/>
      <point x="676" y="1075"/>
      <point x="642" y="1094"/>
      <point x="618" y="1122" type="curve"/>
      <point x="608" y="1128"/>
      <point x="595" y="1128"/>
    </contour>
    <contour>
      <point x="639" y="1081" type="curve"/>
      <point x="689" y="1074"/>
      <point x="718" y="983"/>
      <point x="644" y="1000" type="curve"/>
      <point x="598" y="1047"/>
      <point x="516" y="964"/>
      <point x="490" y="1027" type="curve"/>
      <point x="500" y="1121"/>
      <point x="594" y="1024"/>
    </contour>
    <contour>
      <point x="585" y="1008" type="curve" smooth="yes"/>
      <point x="585" y="1008" type="line" smooth="yes"/>
      <point x="587" y="978"/>
      <point x="594" y="933"/>
      <point x="568" y="914" type="curve"/>
      <point x="526" y="905"/>
      <point x="532" y="978"/>
      <point x="548" y="996" type="curve"/>
      <point x="560" y="1002"/>
      <point x="573" y="1005"/>
    </contour>
    <contour>
      <point x="603" y="1004" type="curve"/>
      <point x="658" y="1012"/>
      <point x="662" y="889"/>
      <point x="605" y="920" type="curve"/>
      <point x="592" y="946"/>
      <point x="595" y="977"/>
    </contour>
    <contour>
      <point x="1043" y="724" type="curve"/>
      <point x="1077" y="740"/>
      <point x="1149" y="654"/>
      <point x="1099" y="669" type="curve"/>
      <point x="1051" y="690"/>
      <point x="1137" y="641"/>
      <point x="1081" y="642" type="curve"/>
      <point x="1055" y="651"/>
      <point x="1022" y="663"/>
      <point x="1032" y="696" type="curve" smooth="yes"/>
      <point x="1034" y="705"/>
      <point x="1029" y="724"/>
    </contour>
    <contour>
      <point x="160" y="712" type="curve"/>
      <point x="215" y="684"/>
      <point x="106" y="583"/>
      <point x="100" y="648" type="curve"/>
      <point x="147" y="682"/>
      <point x="66" y="628"/>
      <point x="87" y="676" type="curve"/>
      <point x="103" y="699"/>
      <point x="134" y="707"/>
    </contour>
    <contour>
      <point x="927" y="120" type="curve"/>
      <point x="968" y="130"/>
      <point x="1015" y="20"/>
      <point x="970" y="42" type="curve"/>
      <point x="939" y="94"/>
      <point x="960" y="47"/>
      <point x="968" y="18" type="curve"/>
      <point x="925" y="5"/>
      <point x="899" y="67"/>
      <point x="871" y="85" type="curve"/>
      <point x="884" y="103"/>
      <point x="903" y="122"/>
    </contour>
    <contour>
      <point x="283" y="115" type="curve"/>
      <point x="308" y="115"/>
      <point x="377" y="63"/>
      <point x="325" y="55" type="curve"/>
      <point x="303" y="33"/>
      <point x="214" y="-28"/>
      <point x="234" y="40" type="curve"/>
      <point x="271" y="91"/>
      <point x="224" y="47"/>
      <point x="213" y="25" type="curve"/>
      <point x="186" y="67"/>
      <point x="248" y="106"/>
    </contour>
  </outline>
</glyph>
<glyph name="i_seti_go" format="2">
  <advance width="1200"/>
  <unicode hex="E627"/>
  <note>
i_seti_go
</note>
  <outline>
    <contour>
      <point x="618" y="1420" type="curve" smooth="yes"/>
      <point x="487" y="1418"/>
      <point x="337" y="1406"/>
      <point x="243" y="1301" type="curve"/>
      <point x="151" y="1175"/>
      <point x="150" y="1009"/>
      <point x="164" y="860" type="curve" smooth="yes"/>
      <point x="170" y="804"/>
      <point x="182" y="749"/>
      <point x="176" y="692" type="curve"/>
      <point x="174" y="551"/>
      <point x="160" y="409"/>
      <point x="175" y="267" type="curve"/>
      <point x="190" y="203"/>
      <point x="228" y="126"/>
      <point x="297" y="110" type="curve"/>
      <point x="346" y="64"/>
      <point x="408" y="35"/>
      <point x="477" y="30" type="curve" smooth="yes"/>
      <point x="593" y="19"/>
      <point x="715" y="22"/>
      <point x="825" y="66" type="curve"/>
      <point x="872" y="95"/>
      <point x="925" y="120"/>
      <point x="956" y="166" type="curve" smooth="yes"/>
      <point x="1017" y="251"/>
      <point x="1033" y="360"/>
      <point x="1033" y="462" type="curve" smooth="yes"/>
      <point x="1029" y="600"/>
      <point x="1023" y="738"/>
      <point x="1022" y="876" type="curve" smooth="yes"/>
      <point x="1017" y="1019"/>
      <point x="1025" y="1175"/>
      <point x="937" y="1296" type="curve" smooth="yes"/>
      <point x="866" y="1396"/>
      <point x="733" y="1422"/>
    </contour>
    <contour>
      <point x="740" y="1364" type="curve" smooth="yes"/>
      <point x="820" y="1367"/>
      <point x="901" y="1295"/>
      <point x="885" y="1211" type="curve"/>
      <point x="884" y="1138"/>
      <point x="810" y="1092"/>
      <point x="742" y="1097" type="curve"/>
      <point x="645" y="1093"/>
      <point x="574" y="1223"/>
      <point x="634" y="1302" type="curve"/>
      <point x="657" y="1338"/>
      <point x="698" y="1362"/>
    </contour>
    <contour>
      <point x="962" y="1363" type="curve" smooth="yes"/>
      <point x="878" y="1361"/>
      <point x="958" y="1290"/>
      <point x="999" y="1296" type="curve"/>
      <point x="1018" y="1267"/>
      <point x="969" y="1250"/>
      <point x="994" y="1222" type="curve"/>
      <point x="1014" y="1148"/>
      <point x="1097" y="1274"/>
      <point x="1058" y="1314" type="curve"/>
      <point x="1042" y="1351"/>
      <point x="999" y="1364"/>
    </contour>
    <contour>
      <point x="759" y="1349" type="curve" smooth="yes"/>
      <point x="683" y="1356"/>
      <point x="607" y="1283"/>
      <point x="627" y="1205" type="curve" smooth="yes"/>
      <point x="647" y="1120"/>
      <point x="759" y="1083"/>
      <point x="828" y="1135" type="curve" smooth="yes"/>
      <point x="900" y="1184"/>
      <point x="880" y="1301"/>
      <point x="805" y="1335" type="curve" smooth="yes"/>
      <point x="791" y="1343"/>
      <point x="775" y="1348"/>
    </contour>
    <contour>
      <point x="412" y="1347" type="curve"/>
      <point x="492" y="1351"/>
      <point x="566" y="1272"/>
      <point x="548" y="1191" type="curve" smooth="yes"/>
      <point x="533" y="1106"/>
      <point x="430" y="1057"/>
      <point x="354" y="1095" type="curve"/>
      <point x="298" y="1118"/>
      <point x="267" y="1179"/>
      <point x="277" y="1237" type="curve"/>
      <point x="281" y="1302"/>
      <point x="350" y="1350"/>
    </contour>
    <contour>
      <point x="187" y="1342" type="curve" smooth="yes"/>
      <point x="116" y="1346"/>
      <point x="65" y="1258"/>
      <point x="112" y="1202" type="curve"/>
      <point x="138" y="1152"/>
      <point x="189" y="1189"/>
      <point x="175" y="1229" type="curve"/>
      <point x="134" y="1263"/>
      <point x="186" y="1287"/>
      <point x="215" y="1291" type="curve"/>
      <point x="258" y="1332"/>
      <point x="239" y="1340"/>
    </contour>
    <contour>
      <point x="417" y="1332" type="curve" smooth="yes"/>
      <point x="341" y="1340"/>
      <point x="273" y="1265"/>
      <point x="292" y="1191" type="curve"/>
      <point x="308" y="1095"/>
      <point x="445" y="1066"/>
      <point x="506" y="1138" type="curve"/>
      <point x="564" y="1197"/>
      <point x="533" y="1314"/>
      <point x="448" y="1327" type="curve"/>
      <point x="438" y="1330"/>
      <point x="427" y="1331"/>
    </contour>
    <contour>
      <point x="680" y="1264" type="curve"/>
      <point x="781" y="1266"/>
      <point x="702" y="1121"/>
      <point x="647" y="1199" type="curve" smooth="yes"/>
      <point x="626" y="1225"/>
      <point x="652" y="1259"/>
    </contour>
    <contour>
      <point x="335" y="1254" type="curve" smooth="yes"/>
      <point x="397" y="1267"/>
      <point x="413" y="1163"/>
      <point x="346" y="1167" type="curve"/>
      <point x="292" y="1163"/>
      <point x="287" y="1240"/>
    </contour>
    <contour>
      <point x="581" y="1139" type="curve" smooth="yes"/>
      <point x="581" y="1139" type="line" smooth="yes"/>
      <point x="637" y="1141"/>
      <point x="654" y="1085"/>
      <point x="695" y="1058" type="curve"/>
      <point x="724" y="1013"/>
      <point x="664" y="1005"/>
      <point x="649" y="993" type="curve"/>
      <point x="658" y="955"/>
      <point x="648" y="883"/>
      <point x="595" y="924" type="curve" smooth="yes"/>
      <point x="581" y="935"/>
      <point x="529" y="881"/>
      <point x="527" y="942" type="curve" smooth="yes"/>
      <point x="525" y="976"/>
      <point x="548" y="1013"/>
      <point x="495" y="1006" type="curve"/>
      <point x="444" y="1053"/>
      <point x="528" y="1105"/>
      <point x="558" y="1135" type="curve"/>
      <point x="566" y="1137"/>
      <point x="574" y="1138"/>
    </contour>
    <contour>
      <point x="635" y="1088" type="curve"/>
      <point x="592" y="1035"/>
      <point x="492" y="1127"/>
      <point x="494" y="1029" type="curve"/>
      <point x="533" y="987"/>
      <point x="598" y="1052"/>
      <point x="646" y="1010" type="curve"/>
      <point x="716" y="1006"/>
      <point x="675" y="1079"/>
    </contour>
    <contour>
      <point x="581" y="1012" type="curve"/>
      <point x="536" y="1016"/>
      <point x="532" y="974"/>
      <point x="538" y="940" type="curve"/>
      <point x="570" y="891"/>
      <point x="590" y="965"/>
      <point x="583" y="996" type="curve" smooth="yes"/>
      <point x="582" y="1001"/>
      <point x="585" y="1008"/>
    </contour>
    <contour>
      <point x="602" y="1011" type="curve"/>
      <point x="575" y="977"/>
      <point x="614" y="880"/>
      <point x="642" y="946" type="curve"/>
      <point x="647" y="977"/>
      <point x="638" y="1010"/>
    </contour>
    <contour>
      <point x="1049" y="728" type="curve"/>
      <point x="1035" y="716"/>
      <point x="1028" y="668"/>
      <point x="1054" y="660" type="curve"/>
      <point x="1078" y="629"/>
      <point x="1136" y="655"/>
      <point x="1087" y="676" type="curve" smooth="yes"/>
      <point x="1108" y="667"/>
      <point x="1140" y="659"/>
      <point x="1116" y="698" type="curve"/>
      <point x="1099" y="717"/>
      <point x="1073" y="722"/>
    </contour>
    <contour>
      <point x="150" y="715" type="curve"/>
      <point x="119" y="722"/>
      <point x="44" y="664"/>
      <point x="89" y="659" type="curve"/>
      <point x="135" y="681"/>
      <point x="49" y="624"/>
      <point x="110" y="627" type="curve"/>
      <point x="145" y="632"/>
      <point x="189" y="694"/>
    </contour>
    <contour>
      <point x="931" y="113" type="curve" smooth="yes"/>
      <point x="883" y="113"/>
      <point x="851" y="61"/>
      <point x="911" y="42" type="curve"/>
      <point x="920" y="6"/>
      <point x="1000" y="-12"/>
      <point x="962" y="41" type="curve"/>
      <point x="935" y="105"/>
      <point x="1000" y="-23"/>
      <point x="994" y="48" type="curve"/>
      <point x="984" y="76"/>
      <point x="965" y="111"/>
    </contour>
    <contour>
      <point x="275" y="108" type="curve" smooth="yes"/>
      <point x="238" y="103"/>
      <point x="172" y="46"/>
      <point x="209" y="18" type="curve"/>
      <point x="216" y="47"/>
      <point x="264" y="78"/>
      <point x="226" y="32" type="curve"/>
      <point x="209" y="-44"/>
      <point x="301" y="37"/>
      <point x="330" y="52" type="curve"/>
      <point x="362" y="61"/>
      <point x="293" y="111"/>
    </contour>
  </outline>
</glyph>
<glyph name="i_seti_typescript" format="2">
  <advance width="1200"/>
  <unicode hex="E628"/>
  <note>
i_seti_typescript
</note>
  <outline>
    <contour>
      <point x="373" y="964" type="line"/>
      <point x="576" y="964" type="line"/>
      <point x="570" y="964" type="line"/>
      <point x="570" y="1072" type="line"/>
      <point x="20" y="1072" type="line"/>
      <point x="20" y="964" type="line"/>
      <point x="223" y="964" type="line"/>
      <point x="223" y="354" type="line"/>
      <point x="373" y="354" type="line"/>
    </contour>
    <contour>
      <point x="1036" y="540" type="curve" smooth="yes"/>
      <point x="1037" y="540" type="line" smooth="yes"/>
      <point x="1037" y="516"/>
      <point x="1025" y="492"/>
      <point x="1013" y="474" type="curve"/>
      <point x="995" y="456"/>
      <point x="965" y="450"/>
      <point x="923" y="450" type="curve" smooth="yes"/>
      <point x="881" y="450"/>
      <point x="839" y="462"/>
      <point x="815" y="480" type="curve" smooth="yes"/>
      <point x="785" y="504"/>
      <point x="773" y="534"/>
      <point x="773" y="575" type="curve"/>
      <point x="630" y="575" type="line"/>
      <point x="624" y="498"/>
      <point x="660" y="444"/>
      <point x="714" y="402" type="curve" smooth="yes"/>
      <point x="767" y="360"/>
      <point x="839" y="342"/>
      <point x="917" y="342" type="curve" smooth="yes"/>
      <point x="995" y="342"/>
      <point x="1060" y="360"/>
      <point x="1108" y="396" type="curve"/>
      <point x="1156" y="426"/>
      <point x="1180" y="480"/>
      <point x="1180" y="540" type="curve" smooth="yes"/>
      <point x="1180" y="599"/>
      <point x="1162" y="647"/>
      <point x="1120" y="683" type="curve" smooth="yes"/>
      <point x="1078" y="719"/>
      <point x="1019" y="749"/>
      <point x="941" y="773" type="curve" smooth="yes"/>
      <point x="881" y="791"/>
      <point x="845" y="803"/>
      <point x="821" y="821" type="curve" smooth="yes"/>
      <point x="797" y="839"/>
      <point x="785" y="857"/>
      <point x="785" y="880" type="curve" smooth="yes"/>
      <point x="785" y="904"/>
      <point x="791" y="928"/>
      <point x="815" y="946" type="curve" smooth="yes"/>
      <point x="839" y="964"/>
      <point x="869" y="970"/>
      <point x="905" y="970" type="curve" smooth="yes"/>
      <point x="947" y="970"/>
      <point x="977" y="958"/>
      <point x="1001" y="940" type="curve"/>
      <point x="1025" y="916"/>
      <point x="1036" y="892"/>
      <point x="1036" y="857" type="curve"/>
      <point x="1174" y="857" type="line"/>
      <point x="1174" y="916"/>
      <point x="1150" y="970"/>
      <point x="1102" y="1012" type="curve" smooth="yes"/>
      <point x="1054" y="1054"/>
      <point x="989" y="1078"/>
      <point x="911" y="1078" type="curve" smooth="yes"/>
      <point x="833" y="1078"/>
      <point x="767" y="1060"/>
      <point x="720" y="1024" type="curve" smooth="yes"/>
      <point x="666" y="988"/>
      <point x="642" y="940"/>
      <point x="642" y="880" type="curve" smooth="yes"/>
      <point x="642" y="821"/>
      <point x="666" y="779"/>
      <point x="708" y="743" type="curve" smooth="yes"/>
      <point x="755" y="707"/>
      <point x="821" y="677"/>
      <point x="905" y="653" type="curve"/>
      <point x="953" y="635"/>
      <point x="989" y="623"/>
      <point x="1007" y="605" type="curve" smooth="yes"/>
      <point x="1025" y="587"/>
      <point x="1036" y="569"/>
    </contour>
  </outline>
</glyph>
<glyph name="i_custom_msdos" format="2">
  <advance width="1200"/>
  <unicode hex="E629"/>
  <note>
i_custom_msdos
</note>
  <outline>
    <contour>
      <point x="806" y="1344" type="curve" smooth="yes"/>
      <point x="806" y="1344" type="line" smooth="yes"/>
      <point x="720" y="1349"/>
      <point x="620" y="1286"/>
      <point x="624" y="1191" type="curve"/>
      <point x="619" y="1126"/>
      <point x="674" y="1077"/>
      <point x="733" y="1059" type="curve"/>
      <point x="789" y="1037"/>
      <point x="865" y="1045"/>
      <point x="904" y="992" type="curve"/>
      <point x="920" y="925"/>
      <point x="824" y="903"/>
      <point x="777" y="928" type="curve"/>
      <point x="734" y="936"/>
      <point x="738" y="1001"/>
      <point x="692" y="988" type="curve"/>
      <point x="624" y="988" type="line"/>
      <point x="619" y="899"/>
      <point x="701" y="834"/>
      <point x="784" y="828" type="curve"/>
      <point x="873" y="812"/>
      <point x="986" y="852"/>
      <point x="1006" y="950" type="curve" smooth="yes"/>
      <point x="1023" y="1015"/>
      <point x="991" y="1093"/>
      <point x="923" y="1112" type="curve"/>
      <point x="863" y="1139"/>
      <point x="785" y="1130"/>
      <point x="737" y="1179" type="curve"/>
      <point x="707" y="1240"/>
      <point x="799" y="1273"/>
      <point x="843" y="1248" type="curve"/>
      <point x="888" y="1236"/>
      <point x="880" y="1169"/>
      <point x="932" y="1186" type="curve" smooth="yes"/>
      <point x="950" y="1191"/>
      <point x="990" y="1177"/>
      <point x="991" y="1197" type="curve"/>
      <point x="983" y="1288"/>
      <point x="894" y="1348"/>
    </contour>
    <contour>
      <point x="314" y="1335" type="curve"/>
      <point x="171" y="1335" type="line"/>
      <point x="171" y="831" type="line"/>
      <point x="272" y="831" type="line"/>
      <point x="272" y="1102" type="line"/>
      <point x="295" y="1012"/>
      <point x="319" y="921"/>
      <point x="343" y="831" type="curve"/>
      <point x="446" y="831" type="line"/>
      <point x="465" y="925"/>
      <point x="485" y="1020"/>
      <point x="504" y="1114" type="curve"/>
      <point x="507" y="1020"/>
      <point x="509" y="925"/>
      <point x="512" y="831" type="curve"/>
      <point x="609" y="831" type="line"/>
      <point x="609" y="1335" type="line"/>
      <point x="446" y="1335" type="line"/>
      <point x="427" y="1238"/>
      <point x="408" y="1141"/>
      <point x="390" y="1044" type="curve"/>
      <point x="365" y="1141"/>
      <point x="339" y="1238"/>
    </contour>
    <contour>
      <point x="604" y="800" type="curve"/>
      <point x="469" y="806"/>
      <point x="339" y="717"/>
      <point x="298" y="588" type="curve" smooth="yes"/>
      <point x="261" y="479"/>
      <point x="264" y="355"/>
      <point x="316" y="251" type="curve"/>
      <point x="375" y="247"/>
      <point x="412" y="311"/>
      <point x="413" y="364" type="curve"/>
      <point x="422" y="426"/>
      <point x="423" y="491"/>
      <point x="440" y="552" type="curve"/>
      <point x="468" y="626"/>
      <point x="545" y="682"/>
      <point x="625" y="672" type="curve"/>
      <point x="639" y="718"/>
      <point x="705" y="763"/>
      <point x="713" y="787" type="curve"/>
      <point x="678" y="796"/>
      <point x="641" y="802"/>
    </contour>
    <contour>
      <point x="881" y="795" type="curve" smooth="yes"/>
      <point x="792" y="797"/>
      <point x="692" y="763"/>
      <point x="653" y="676" type="curve" smooth="yes"/>
      <point x="618" y="601"/>
      <point x="624" y="489"/>
      <point x="704" y="444" type="curve" smooth="yes"/>
      <point x="741" y="423"/>
      <point x="816" y="374"/>
      <point x="798" y="451" type="curve"/>
      <point x="804" y="502"/>
      <point x="779" y="548"/>
      <point x="764" y="595" type="curve"/>
      <point x="780" y="673"/>
      <point x="883" y="685"/>
      <point x="946" y="662" type="curve"/>
      <point x="1006" y="658"/>
      <point x="995" y="566"/>
      <point x="1047" y="574" type="curve"/>
      <point x="1153" y="574" type="line"/>
      <point x="1154" y="675"/>
      <point x="1075" y="764"/>
      <point x="978" y="784" type="curve" smooth="yes"/>
      <point x="946" y="792"/>
      <point x="914" y="795"/>
    </contour>
    <contour>
      <point x="257" y="782" type="curve" smooth="yes"/>
      <point x="178" y="780"/>
      <point x="99" y="778"/>
      <point x="20" y="776" type="curve"/>
      <point x="20" y="104" type="line"/>
      <point x="116" y="102"/>
      <point x="213" y="92"/>
      <point x="310" y="95" type="curve" smooth="yes"/>
      <point x="428" y="101"/>
      <point x="536" y="183"/>
      <point x="573" y="295" type="curve" smooth="yes"/>
      <point x="609" y="405"/>
      <point x="606" y="533"/>
      <point x="548" y="635" type="curve"/>
      <point x="486" y="608"/>
      <point x="445" y="544"/>
      <point x="447" y="476" type="curve"/>
      <point x="438" y="410"/>
      <point x="446" y="338"/>
      <point x="406" y="281" type="curve"/>
      <point x="386" y="244"/>
      <point x="347" y="218"/>
      <point x="304" y="224" type="curve"/>
      <point x="256" y="222"/>
      <point x="207" y="227"/>
      <point x="159" y="232" type="curve"/>
      <point x="159" y="640" type="line"/>
      <point x="303" y="640" type="line"/>
      <point x="322" y="687"/>
      <point x="369" y="722"/>
      <point x="391" y="763" type="curve"/>
      <point x="348" y="777"/>
      <point x="302" y="782"/>
    </contour>
    <contour>
      <point x="873" y="648" type="line"/>
      <point x="799" y="656"/>
      <point x="771" y="586"/>
      <point x="807" y="528" type="curve"/>
      <point x="830" y="467"/>
      <point x="824" y="401"/>
      <point x="806" y="340" type="curve"/>
      <point x="802" y="309"/>
      <point x="775" y="271"/>
      <point x="810" y="249" type="curve" smooth="yes"/>
      <point x="840" y="233"/>
      <point x="891" y="216"/>
      <point x="919" y="234" type="curve"/>
      <point x="987" y="361"/>
      <point x="992" y="523"/>
      <point x="916" y="648" type="curve"/>
    </contour>
    <contour>
      <point x="991" y="486" type="curve"/>
      <point x="988" y="441"/>
      <point x="985" y="397"/>
      <point x="983" y="352" type="curve"/>
      <point x="1060" y="332"/>
      <point x="1051" y="219"/>
      <point x="971" y="212" type="curve"/>
      <point x="907" y="201"/>
      <point x="823" y="198"/>
      <point x="777" y="253" type="curve"/>
      <point x="758" y="287"/>
      <point x="760" y="329"/>
      <point x="712" y="315" type="curve"/>
      <point x="623" y="315" type="line"/>
      <point x="608" y="228"/>
      <point x="670" y="138"/>
      <point x="753" y="111" type="curve" smooth="yes"/>
      <point x="872" y="69"/>
      <point x="1019" y="68"/>
      <point x="1120" y="153" type="curve" smooth="yes"/>
      <point x="1205" y="226"/>
      <point x="1200" y="382"/>
      <point x="1101" y="441" type="curve"/>
      <point x="1069" y="465"/>
      <point x="1029" y="476"/>
    </contour>
    <contour>
      <point x="561" y="219" type="curve"/>
      <point x="538" y="175"/>
      <point x="500" y="142"/>
      <point x="465" y="107" type="curve"/>
      <point x="549" y="73"/>
      <point x="645" y="63"/>
      <point x="732" y="94" type="curve"/>
      <point x="676" y="118"/>
      <point x="644" y="182"/>
      <point x="607" y="217" type="curve"/>
      <point x="592" y="218"/>
      <point x="577" y="218"/>
    </contour>
  </outline>
</glyph>
<glyph name="i_custom_windows" format="2">
  <advance width="1200"/>
  <unicode hex="E62A"/>
  <note>
i_custom_windows
</note>
  <outline>
    <contour>
      <point x="620" y="690" type="line"/>
      <point x="620" y="410" type="line"/>
      <point x="620" y="130" type="line"/>
      <point x="1180" y="130" type="line"/>
      <point x="1180" y="690" type="line"/>
    </contour>
    <contour>
      <point x="20" y="690" type="line"/>
      <point x="20" y="410" type="line"/>
      <point x="20" y="130" type="line"/>
      <point x="580" y="130" type="line"/>
      <point x="580" y="690" type="line"/>
    </contour>
    <contour>
      <point x="620" y="1290" type="line"/>
      <point x="620" y="1010" type="line"/>
      <point x="620" y="730" type="line"/>
      <point x="1180" y="730" type="line"/>
      <point x="1180" y="1290" type="line"/>
    </contour>
    <contour>
      <point x="20" y="1290" type="line"/>
      <point x="20" y="1010" type="line"/>
      <point x="20" y="730" type="line"/>
      <point x="580" y="730" type="line"/>
      <point x="580" y="1290" type="line"/>
    </contour>
  </outline>
</glyph>
<glyph name="i_custom_vim" format="2">
  <advance width="1200"/>
  <unicode hex="E62B"/>
  <note>
i_custom_vim
</note>
  <outline>
    <contour>
      <point x="465" y="1244" type="line"/>
      <point x="38" y="1252" type="line"/>
      <point x="20" y="1231" type="line"/>
      <point x="20" y="1138" type="line"/>
      <point x="42" y="1118" type="line"/>
      <point x="77" y="1116" type="line" smooth="yes"/>
      <point x="81" y="1116"/>
      <point x="83" y="1115"/>
      <point x="85" y="1112" type="curve"/>
      <point x="87" y="1109"/>
      <point x="89" y="1107"/>
      <point x="89" y="1104" type="curve" smooth="yes"/>
      <point x="91" y="201" type="line"/>
      <point x="121" y="168" type="line"/>
      <point x="228" y="168" type="line"/>
      <point x="1180" y="1134" type="line"/>
      <point x="1180" y="1223" type="line"/>
      <point x="1160" y="1244" type="line"/>
      <point x="741" y="1248" type="line"/>
      <point x="719" y="1217" type="line"/>
      <point x="719" y="1140" type="line"/>
      <point x="739" y="1114" type="line"/>
      <point x="768" y="1114" type="line" smooth="yes"/>
      <point x="773" y="1114"/>
      <point x="776" y="1114"/>
      <point x="778" y="1112" type="curve" smooth="yes"/>
      <point x="781" y="1111"/>
      <point x="782" y="1109"/>
      <point x="782" y="1106" type="curve" smooth="yes"/>
      <point x="782" y="1105"/>
      <point x="781" y="1103"/>
      <point x="780" y="1100" type="curve"/>
      <point x="780" y="1097"/>
      <point x="779" y="1095"/>
      <point x="778" y="1094" type="curve"/>
      <point x="776" y="1094"/>
      <point x="776" y="1093"/>
      <point x="776" y="1092" type="curve"/>
      <point x="442" y="767" type="line"/>
      <point x="438" y="764"/>
      <point x="435" y="762"/>
      <point x="432" y="761" type="curve"/>
      <point x="430" y="761"/>
      <point x="427" y="761"/>
      <point x="424" y="763" type="curve" smooth="yes"/>
      <point x="423" y="764"/>
      <point x="421" y="766"/>
      <point x="420" y="769" type="curve"/>
      <point x="420" y="771"/>
      <point x="419" y="773"/>
      <point x="418" y="775" type="curve"/>
      <point x="418" y="777" type="line"/>
      <point x="422" y="1100" type="line" smooth="yes"/>
      <point x="422" y="1104"/>
      <point x="423" y="1107"/>
      <point x="424" y="1110" type="curve"/>
      <point x="427" y="1113"/>
      <point x="430" y="1114"/>
      <point x="434" y="1114" type="curve" smooth="yes"/>
      <point x="469" y="1114" type="line"/>
      <point x="491" y="1138" type="line"/>
      <point x="491" y="1213" type="line"/>
    </contour>
  </outline>
</glyph>
<glyph name="i_custom_elm" format="2">
  <advance width="1200"/>
  <unicode hex="E62C"/>
  <note>
i_custom_elm
</note>
  <outline>
    <contour>
      <point x="349" y="992" type="line"/>
      <point x="600" y="742" type="line"/>
      <point x="851" y="992" type="line"/>
    </contour>
    <contour>
      <point x="601" y="1290" type="line"/>
      <point x="52" y="1290" type="line"/>
      <point x="304" y="1037" type="line"/>
      <point x="853" y="1037" type="line"/>
    </contour>
    <contour>
      <point x="1179" y="711" type="line"/>
      <point x="906" y="984" type="line"/>
      <point x="632" y="710" type="line"/>
      <point x="905" y="437" type="line"/>
    </contour>
    <contour>
      <point x="664" y="1290" type="line"/>
      <point x="1180" y="774" type="line"/>
      <point x="1180" y="1290" type="line"/>
    </contour>
    <contour>
      <point x="20" y="162" type="line"/>
      <point x="568" y="710" type="line"/>
      <point x="20" y="1258" type="line"/>
    </contour>
    <contour>
      <point x="1180" y="648" type="line"/>
      <point x="937" y="405" type="line"/>
      <point x="1180" y="162" type="line"/>
    </contour>
    <contour>
      <point x="1148" y="130" type="line"/>
      <point x="600" y="678" type="line"/>
      <point x="52" y="130" type="line"/>
    </contour>
  </outline>
</glyph>
<glyph name="i_custom_elixir" format="2">
  <advance width="1200"/>
  <unicode hex="E62D"/>
  <note>
i_custom_elixir
</note>
  <outline>
    <contour>
      <point x="634" y="1420" type="curve" smooth="yes"/>
      <point x="634" y="1420" type="line" smooth="yes"/>
      <point x="561" y="1385"/>
      <point x="489" y="1304"/>
      <point x="429" y="1229" type="curve" smooth="yes"/>
      <point x="242" y="994"/>
      <point x="140" y="727"/>
      <point x="140" y="516" type="curve" smooth="yes"/>
      <point x="140" y="136"/>
      <point x="400" y="0"/>
      <point x="610" y="0" type="curve" smooth="yes"/>
      <point x="820" y="0"/>
      <point x="1060" y="164"/>
      <point x="1060" y="484" type="curve" smooth="yes"/>
      <point x="1060" y="731"/>
      <point x="895" y="811"/>
      <point x="765" y="969" type="curve" smooth="yes"/>
      <point x="635" y="1128"/>
      <point x="637" y="1302"/>
    </contour>
    <contour>
      <point x="342" y="155" type="curve"/>
      <point x="435" y="151"/>
      <point x="509" y="140"/>
      <point x="565" y="120" type="curve" smooth="yes"/>
      <point x="650" y="91"/>
      <point x="698" y="24"/>
      <point x="565" y="52" type="curve" smooth="yes"/>
      <point x="477" y="71"/>
      <point x="403" y="105"/>
    </contour>
  </outline>
</glyph>
<glyph name="i_custom_electron" format="2">
  <advance width="1200"/>
  <unicode hex="E62E"/>
  <note>
i_custom_electron
</note>
  <outline>
    <contour>
      <point x="601" y="1335" type="curve"/>
      <point x="535" y="1338"/>
      <point x="494" y="1252"/>
      <point x="538" y="1203" type="curve"/>
      <point x="578" y="1145"/>
      <point x="653" y="1193"/>
      <point x="683" y="1211" type="curve"/>
      <point x="787" y="1135"/>
      <point x="829" y="1003"/>
      <point x="855" y="882" type="curve" smooth="yes"/>
      <point x="887" y="713"/>
      <point x="878" y="536"/>
      <point x="830" y="370" type="curve"/>
      <point x="876" y="326"/>
      <point x="878" y="446"/>
      <point x="890" y="477" type="curve"/>
      <point x="925" y="688"/>
      <point x="911" y="917"/>
      <point x="811" y="1110" type="curve" smooth="yes"/>
      <point x="780" y="1166"/>
      <point x="739" y="1220"/>
      <point x="681" y="1250" type="curve"/>
      <point x="685" y="1295"/>
      <point x="645" y="1336"/>
    </contour>
    <contour>
      <point x="601" y="1301" type="curve" smooth="yes"/>
      <point x="682" y="1302"/>
      <point x="641" y="1170"/>
      <point x="574" y="1216" type="curve" smooth="yes"/>
      <point x="536" y="1239"/>
      <point x="555" y="1303"/>
    </contour>
    <contour>
      <point x="313" y="1076" type="curve" smooth="yes"/>
      <point x="219" y="1078"/>
      <point x="106" y="1045"/>
      <point x="70" y="949" type="curve" smooth="yes"/>
      <point x="43" y="872"/>
      <point x="71" y="787"/>
      <point x="114" y="721" type="curve"/>
      <point x="175" y="721"/>
      <point x="97" y="798"/>
      <point x="100" y="834" type="curve"/>
      <point x="78" y="901"/>
      <point x="104" y="984"/>
      <point x="172" y="1014" type="curve" smooth="yes"/>
      <point x="251" y="1054"/>
      <point x="344" y="1045"/>
      <point x="429" y="1033" type="curve"/>
      <point x="469" y="1077"/>
      <point x="369" y="1072"/>
      <point x="340" y="1076" type="curve" smooth="yes"/>
      <point x="331" y="1076"/>
      <point x="322" y="1076"/>
    </contour>
    <contour>
      <point x="892" y="1075" type="curve"/>
      <point x="841" y="1031"/>
      <point x="954" y="1044"/>
      <point x="981" y="1031" type="curve"/>
      <point x="1052" y="1016"/>
      <point x="1114" y="953"/>
      <point x="1107" y="878" type="curve" smooth="yes"/>
      <point x="1102" y="789"/>
      <point x="1048" y="715"/>
      <point x="995" y="648" type="curve"/>
      <point x="1013" y="591"/>
      <point x="1059" y="680"/>
      <point x="1077" y="703" type="curve" smooth="yes"/>
      <point x="1131" y="785"/>
      <point x="1172" y="904"/>
      <point x="1105" y="992" type="curve" smooth="yes"/>
      <point x="1056" y="1055"/>
      <point x="969" y="1074"/>
    </contour>
    <contour>
      <point x="751" y="1061" type="curve" smooth="yes"/>
      <point x="751" y="1061" type="line" smooth="yes"/>
      <point x="536" y="1013"/>
      <point x="335" y="897"/>
      <point x="187" y="735" type="curve" smooth="yes"/>
      <point x="119" y="657"/>
      <point x="55" y="561"/>
      <point x="61" y="454" type="curve"/>
      <point x="-1" y="424"/>
      <point x="10" y="324"/>
      <point x="76" y="307" type="curve"/>
      <point x="138" y="284"/>
      <point x="204" y="356"/>
      <point x="175" y="415" type="curve"/>
      <point x="160" y="474"/>
      <point x="62" y="444"/>
      <point x="99" y="516" type="curve"/>
      <point x="136" y="654"/>
      <point x="245" y="758"/>
      <point x="355" y="842" type="curve" smooth="yes"/>
      <point x="476" y="931"/>
      <point x="615" y="996"/>
      <point x="761" y="1030" type="curve"/>
      <point x="775" y="1039"/>
      <point x="766" y="1061"/>
    </contour>
    <contour>
      <point x="600" y="735" type="curve" smooth="yes"/>
      <point x="499" y="734"/>
      <point x="552" y="573"/>
      <point x="634" y="630" type="curve" smooth="yes"/>
      <point x="681" y="661"/>
      <point x="655" y="737"/>
    </contour>
    <contour>
      <point x="215" y="638" type="curve"/>
      <point x="208" y="640" type="line"/>
      <point x="161" y="608"/>
      <point x="258" y="561"/>
      <point x="278" y="532" type="curve"/>
      <point x="441" y="398"/>
      <point x="642" y="298"/>
      <point x="855" y="282" type="curve" smooth="yes"/>
      <point x="922" y="279"/>
      <point x="992" y="285"/>
      <point x="1052" y="319" type="curve"/>
      <point x="1104" y="277"/>
      <point x="1189" y="326"/>
      <point x="1179" y="392" type="curve"/>
      <point x="1176" y="457"/>
      <point x="1085" y="489"/>
      <point x="1041" y="441" type="curve"/>
      <point x="990" y="404"/>
      <point x="1060" y="324"/>
      <point x="979" y="325" type="curve"/>
      <point x="832" y="292"/>
      <point x="679" y="340"/>
      <point x="545" y="401" type="curve" smooth="yes"/>
      <point x="422" y="459"/>
      <point x="308" y="539"/>
    </contour>
    <contour>
      <point x="100" y="431" type="curve" smooth="yes"/>
      <point x="181" y="431"/>
      <point x="141" y="300"/>
      <point x="74" y="345" type="curve" smooth="yes"/>
      <point x="35" y="369"/>
      <point x="55" y="433"/>
    </contour>
    <contour>
      <point x="1099" y="431" type="curve" smooth="yes"/>
      <point x="1176" y="432"/>
      <point x="1144" y="305"/>
      <point x="1076" y="343" type="curve" smooth="yes"/>
      <point x="1034" y="365"/>
      <point x="1050" y="431"/>
    </contour>
    <contour>
      <point x="375" y="357" type="curve"/>
      <point x="366" y="360" type="line"/>
      <point x="323" y="337"/>
      <point x="381" y="278"/>
      <point x="391" y="244" type="curve"/>
      <point x="436" y="158"/>
      <point x="523" y="69"/>
      <point x="629" y="88" type="curve" smooth="yes"/>
      <point x="707" y="102"/>
      <point x="766" y="166"/>
      <point x="803" y="233" type="curve"/>
      <point x="773" y="286"/>
      <point x="745" y="183"/>
      <point x="713" y="168" type="curve"/>
      <point x="660" y="111"/>
      <point x="566" y="101"/>
      <point x="507" y="153" type="curve"/>
      <point x="440" y="203"/>
      <point x="409" y="284"/>
    </contour>
  </outline>
</glyph>
<glyph name="i_custom_crystal" format="2">
  <advance width="1200"/>
  <unicode hex="E62F"/>
  <note>
i_custom_crystal
</note>
  <outline>
    <contour>
      <point x="1026" y="1130" type="line"/>
      <point x="443" y="1290" type="line"/>
      <point x="20" y="865" type="line"/>
      <point x="175" y="284" type="line"/>
      <point x="759" y="130" type="line"/>
      <point x="1180" y="556" type="line"/>
    </contour>
    <contour>
      <point x="462" y="442" type="line"/>
      <point x="51" y="858" type="line"/>
      <point x="617" y="1007" type="line"/>
    </contour>
  </outline>
</glyph>
